<?xml version="1.0" standalone="no"?>
<!DOCTYPE svg PUBLIC "-//W3C//DTD SVG 1.1//EN" "http://www.w3.org/Graphics/SVG/1.1/DTD/svg11.dtd" >
<svg>
<metadata>
Created by FontForge 20090914 at Tue Jun 28 21:20:08 2016
 By www-data
Font data copyright Google 2011
</metadata>
<defs>
<font id="Roboto-Medium" horiz-adv-x="1160" >
  <font-face 
    font-family="Roboto Lt"
    font-weight="500"
    font-stretch="normal"
    units-per-em="2048"
    panose-1="0 0 0 0 0 0 0 0 0 0"
    ascent="1536"
    descent="-512"
    x-height="1082"
    cap-height="1456"
    bbox="-1006 -554.996 2422 2169"
    underline-thickness="100"
    underline-position="-100"
    unicode-range="U+0009-U+FFFD"
  />
<missing-glyph horiz-adv-x="1024" 
d="M102 0v1024h820v-1024h-820zM204 102h616v820h-616v-820z" />
    <glyph glyph-name="fi" unicode="fi" horiz-adv-x="1192" 
d="M189 0l0.000976562 901.999h-165v180h165v92c0 130 38.333 230.333 115 301s184 106 322 106c48 0 95.667 -5.16699 143 -15.5s101.666 -25.166 162.999 -44.499l-37 -201c-41.333 14 -82 25.5 -122 34.5s-83.333 13.5 -130 13.5c-72.667 0 -126 -16.167 -160 -48.5
s-51 -80.833 -51 -145.5v-92h213v-180h-213v-902h-243zM1047 -0.000976562h-243v1082h243v-1082z" />
    <glyph glyph-name=".notdef" horiz-adv-x="1024" 
d="M102 0v1024h820v-1024h-820zM204 102h616v820h-616v-820z" />
    <glyph glyph-name="uni0002" horiz-adv-x="0" 
 />
    <glyph glyph-name="uni0002" horiz-adv-x="0" 
 />
    <glyph glyph-name="uni0009" unicode="&#x9;" horiz-adv-x="0" 
 />
    <glyph glyph-name="nonmarkingreturn" unicode="&#xd;" horiz-adv-x="510" 
 />
    <glyph glyph-name="space" unicode=" " horiz-adv-x="510" 
 />
    <glyph glyph-name="exclam" unicode="!" horiz-adv-x="549" 
d="M397 491h-243v965h243v-965zM397 0h-243v234h243v-234z" />
    <glyph glyph-name="quotedbl" unicode="&#x22;" horiz-adv-x="781" 
d="M347 1181l-102 -249h-112v524h214v-275zM672 1181l-102 -249h-112v524h214v-275z" />
    <glyph glyph-name="numbersign" unicode="#" horiz-adv-x="1250" 
d="M683 410h-225l-76 -410h-167l76 410h-231v158h261l58 313h-243v159h273l78 416h167l-78 -416h224l78 416h168l-78 -416h208v-159h-238l-58 -313h221v-158h-251l-76 -410h-167zM488 568h225l58 313h-225z" />
    <glyph glyph-name="dollar" unicode="$" horiz-adv-x="1205" 
d="M841 380c0 56.667 -18.499 103.501 -55.499 140.501s-100.167 71.167 -189.5 102.5c-141.333 45.333 -247.333 102.166 -318 170.499s-106 161.5 -106 279.5c0 111.333 33.667 202.5 101 273.5s159.666 113.167 276.999 126.5v218h159v-220
c116 -15.333 206 -61.333 270 -138s95.333 -177.667 94 -303l-3 -5h-235c0 77.333 -18.667 138.5 -56 183.5s-89.666 67.5 -156.999 67.5c-70.667 0 -123 -18.167 -157 -54.5s-51 -85.166 -51 -146.499c0 -57.333 17.667 -103.333 53 -138s100.666 -69.667 195.999 -105
c141.333 -46 246.833 -103 316.5 -171s104.5 -161 104.5 -279c0 -115.333 -35.167 -207.333 -105.5 -276s-166.833 -109.334 -289.5 -122.001v-195h-159v194c-120 12 -218.833 54.333 -296.5 127s-115.167 179.667 -112.5 321l2 5h235c0 -92.667 23.333 -158.667 70 -198
s105.667 -59 177 -59c76 0 134.333 18 175 54s61 85 61 147z" />
    <glyph glyph-name="percent" unicode="%" horiz-adv-x="1504" 
d="M100 1176c0 85.333 27.5 156.833 82.5 214.5s130.167 86.5 225.5 86.5c96 0 171.5 -28.667 226.5 -86s82.5 -129 82.5 -215v-77c0 -85.333 -27.5 -156.5 -82.5 -213.5s-129.833 -85.5 -224.5 -85.5c-96 0 -171.667 28.5 -227 85.5s-83 128.167 -83 213.5v77zM269 1099
c0 -42.667 12.168 -78.832 36.501 -108.499s59.166 -44.5 104.499 -44.5c44 0 77.833 14.667 101.5 44s35.5 65.666 35.5 108.999v77c0 43.333 -12.167 80 -36.5 110s-58.5 45 -102.5 45c-44.667 0 -79 -15 -103 -45s-36 -66.667 -36 -110v-77zM800.001 357.002
c0 84.667 27.667 155.833 83 213.5s130.333 86.5 225 86.5c96 0 171.5 -28.667 226.5 -86s82.5 -128.666 82.5 -213.999v-78c0 -86 -27.5 -157.5 -82.5 -214.5s-129.833 -85.5 -224.5 -85.5c-96 0 -171.667 28.667 -227 86s-83 128.666 -83 213.999v78zM969.001 279.001
c0 -42.667 12.499 -79 37.499 -109s59.5 -45 103.5 -45c46.667 0 81.334 14.5 104.001 43.5s34 65.833 34 110.5v78c0 42.667 -12.167 79 -36.5 109s-58.833 45 -103.5 45s-79 -15 -103 -45s-36 -66.333 -36 -109v-78zM460 109.001l-125 72l711 1138l125 -72z" />
    <glyph glyph-name="ampersand" unicode="&#x26;" horiz-adv-x="1309" 
d="M62 393c0 80 22.3311 149.499 66.998 208.499s112.334 119.5 203.001 181.5c-48.667 62.667 -84.667 119.334 -108 170.001s-35 102.667 -35 156c0 117.333 34 208 102 272s161 96 279 96c106 0 192.167 -31.833 258.5 -95.5s99.5 -140.5 99.5 -230.5
c0 -67.333 -16.167 -125.833 -48.5 -175.5s-79.5 -97.834 -141.5 -144.501l-104 -75l302 -359c26.667 42 47.5 88 62.5 138s22.5 103 22.5 159h204c0 -92 -12.5 -176.833 -37.5 -254.5s-62.5 -146.5 -112.5 -206.5l192 -228l-2 -5h-274l-81 95
c-54.667 -38 -113.167 -66.833 -175.5 -86.5s-128.166 -29.5 -197.499 -29.5c-144.667 0 -260 38.333 -346 115s-129 176.334 -129 299.001zM543.998 172.999c41.333 0 82.332 6.00098 122.999 18.001s79.334 29.667 116.001 53l-325 384l-26 -19
c-50.667 -37.333 -84.5 -73.5 -101.5 -108.5s-25.5 -68.167 -25.5 -99.5c0 -66.667 21 -121.334 63 -164.001s100.667 -64 176 -64zM416.997 1112c0 -32 7.83301 -64.667 23.5 -98s39.5 -70.333 71.5 -111l109 73c38 24.667 63.5 50.5 76.5 77.5s19.5 56.833 19.5 89.5
c0 36 -13.833 68.167 -41.5 96.5s-64.167 42.5 -109.5 42.5c-46.667 0 -83.167 -16.5 -109.5 -49.5s-39.5 -73.167 -39.5 -120.5z" />
    <glyph glyph-name="quotesingle" unicode="'" horiz-adv-x="444" 
d="M338 1207l-102 -283h-127v532h229v-249z" />
    <glyph glyph-name="parenleft" unicode="(" horiz-adv-x="695" 
d="M128 592c0 262.667 52.168 486.167 156.501 670.5s217.166 304.833 338.499 361.5l6 -1l45 -134c-89.333 -68 -165.833 -177 -229.5 -327s-95.5 -339.333 -95.5 -568v-20c0 -228.667 31.667 -418 95 -568s140 -261.333 230 -334l-45 -128h-6
c-122 57.333 -235 178 -339 362s-156 407.333 -156 670v16z" />
    <glyph glyph-name="parenright" unicode=")" horiz-adv-x="700" 
d="M571 576c0 -259.333 -53.167 -481.998 -159.5 -667.998s-220.5 -307.333 -342.5 -364h-6l-46 128c88.667 68 165 178 229 330s96 342.667 96 572v20c0 226.667 -32.833 416.167 -98.5 568.5s-141.167 263.166 -226.5 332.499l46 129h6
c121.333 -56 235.333 -177.333 342 -364s160 -409.334 160 -668.001v-16z" />
    <glyph glyph-name="asterisk" unicode="*" horiz-adv-x="872" 
d="M302 678l-232 73l51 164l238 -83l-5 249h169l-2 -257l231 83l51 -167l-238 -73l146 -200l-138 -102l-144 211l-140 -203l-139 99z" />
    <glyph glyph-name="plus" unicode="+" horiz-adv-x="1141" 
d="M686 801h380v-222h-380v-433h-236v433h-382v222h382v405h236v-405z" />
    <glyph glyph-name="comma" unicode="," horiz-adv-x="462" 
d="M363 31l-155 -312h-154l70 321v198h239v-207z" />
    <glyph glyph-name="hyphen" unicode="-" horiz-adv-x="910" 
d="M748 521h-590v196h590v-196z" />
    <glyph glyph-name="period" unicode="." horiz-adv-x="572" 
d="M395 0h-242v233h242v-233z" />
    <glyph glyph-name="slash" unicode="/" horiz-adv-x="839" 
d="M225 -125h-223l573 1581h223z" />
    <glyph glyph-name="zero" unicode="0" horiz-adv-x="1164" 
d="M1059 521c0 -168 -43.168 -300.333 -129.501 -397s-201.833 -145 -346.5 -145s-260.667 48.5 -348 145.5s-131 229.167 -131 396.5v413c0 167.333 43.333 299.666 130 396.999s202.334 146 347.001 146s260.5 -48.667 347.5 -146s130.5 -229.666 130.5 -396.999v-413z
M815.999 971c0 97.333 -20.666 173.5 -61.999 228.5s-99 82.5 -173 82.5c-74.667 0 -132.334 -27.5 -173.001 -82.5s-61 -131.167 -61 -228.5v-485c0 -98.667 20.667 -175.5 62 -230.5s99.333 -82.5 174 -82.5s132.167 27.333 172.5 82s60.5 131.667 60.5 231v485z" />
    <glyph glyph-name="one" unicode="1" horiz-adv-x="1164" 
d="M751 0h-243v1232h-309v193l552 52v-1477z" />
    <glyph glyph-name="two" unicode="2" horiz-adv-x="1164" 
d="M1073 0h-938.999v167l455 526c74 87.333 125.333 159.333 154 216s43 111 43 163c0 62 -17.333 112.5 -52 151.5s-84.334 58.5 -149.001 58.5c-75.333 0 -133 -24.333 -173 -73s-60 -110 -60 -184h-235l-2 6c-3.33301 124.667 37.834 230.167 123.501 316.5
s201.167 129.5 346.5 129.5c139.333 0 248.166 -37.333 326.499 -112s117.5 -172.667 117.5 -294c0 -82 -21.833 -159 -65.5 -231s-115.5 -168.333 -215.5 -289l-307 -352l2 -5h630v-194z" />
    <glyph glyph-name="three" unicode="3" horiz-adv-x="1164" 
d="M580 844c78.667 0 135.334 19.667 170.001 59s52 94.333 52 165c0 63.333 -18.667 114.833 -56 154.5s-91.333 59.5 -162 59.5c-65.333 0 -119.666 -19.5 -162.999 -58.5s-65 -87.833 -65 -146.5h-233l-2 6c-4 111.333 38.5 204.833 127.5 280.5
s200.833 113.5 335.5 113.5c142 0 254.167 -34.833 336.5 -104.5s123.5 -171.167 123.5 -304.5c0 -66.667 -18.167 -127.834 -54.5 -183.501s-86.833 -99.167 -151.5 -130.5c74 -29.333 130.667 -73.5 170 -132.5s59 -130.167 59 -213.5c0 -134 -45 -239 -135 -315
s-206 -114 -348 -114c-128 0 -240.333 36.167 -337 108.5s-143.334 171.166 -140.001 296.499l2 6h234c0 -61.333 22.5 -112.833 67.5 -154.5s102.833 -62.5 173.5 -62.5c73.333 0 131.666 21.833 174.999 65.5s65 99.834 65 168.501
c0 82.667 -20.167 144.334 -60.5 185.001s-101.5 61 -183.5 61h-162v191h162z" />
    <glyph glyph-name="four" unicode="4" horiz-adv-x="1164" 
d="M922 519h184v-196h-184v-323h-242v323h-609l-6 149l608 984h249v-937zM302 519h378v594l-6 1l-23 -56z" />
    <glyph glyph-name="five" unicode="5" horiz-adv-x="1164" 
d="M158 644l84 811.999h768v-210h-566l-44 -371c28.667 20.667 62.834 38 102.501 52s83.5 21.333 131.5 22c135.333 1.33301 240.666 -41 315.999 -127s113 -205 113 -357c0 -144 -39.667 -261 -119 -351s-198 -135 -356 -135c-128 0 -236.167 34.5 -324.5 103.5
s-130.833 167.5 -127.5 295.5l2 5l228 7c0 -68 20.5 -121.167 61.5 -159.5s94.5 -57.5 160.5 -57.5c76 0 133.667 25.667 173 77s59 122.333 59 213c0 87.333 -20.333 157.5 -61 210.5s-98.667 79.5 -174 79.5c-66.667 0 -116.167 -10.667 -148.5 -32
s-55.833 -52.666 -70.5 -93.999z" />
    <glyph glyph-name="six" unicode="6" horiz-adv-x="1164" 
d="M654 1477c56.667 0 111.335 -5.5 164.002 -16.5s100 -25.5 142 -43.5l-47 -188c-40.667 16 -80.667 28.5 -120 37.5s-85.333 13.5 -138 13.5c-88.667 0 -160.167 -35.667 -214.5 -107s-81.5 -165.666 -81.5 -282.999v-76c39.333 39.333 86.166 70 140.499 92
s114.166 33 179.499 33c124.667 0 222.834 -43 294.501 -129s107.5 -198.667 107.5 -338c0 -147.333 -43 -266.333 -129 -357s-199.667 -136 -341 -136c-143.333 0 -261.5 51.667 -354.5 155s-139.5 244.666 -139.5 423.999v317c0 178.667 51.167 323.667 153.5 435
s230.166 167 383.499 167zM600.001 750c-58 0 -107.165 -10.5 -147.498 -31.5s-71.5 -49.833 -93.5 -86.5v-87c0 -116 23.667 -207 71 -273s107.666 -99 180.999 -99c71.333 0 127.166 28 167.499 84s60.5 127.667 60.5 215c0 85.333 -21.167 153 -63.5 203
s-100.833 75 -175.5 75z" />
    <glyph glyph-name="seven" unicode="7" horiz-adv-x="1164" 
d="M1078 1261c-175.333 -206.667 -293.833 -389.668 -355.5 -549.001s-92.5 -339.666 -92.5 -540.999v-171h-243v171c0 210 38.833 400.167 116.5 570.5s190.5 343.5 338.5 519.5h-757v195h993v-195z" />
    <glyph glyph-name="eight" unicode="8" horiz-adv-x="1164" 
d="M1032 1080c0 -73.333 -19.6689 -138.166 -59.002 -194.499s-92.666 -99.833 -159.999 -130.5c80 -31.333 143.833 -77.666 191.5 -138.999s71.5 -132 71.5 -212c0 -135.333 -45.167 -240 -135.5 -314s-205.166 -111 -344.499 -111c-148 0 -268.833 37 -362.5 111
s-140.5 178.667 -140.5 314c0 80 24.5 150.667 73.5 212s115.5 107.666 199.5 138.999c-70.667 30.667 -126.334 74.167 -167.001 130.5s-61 121.166 -61 194.499c0 128.667 42 227 126 295s194 102 330 102c128.667 0 233.834 -34.167 315.501 -102.5
s122.5 -166.5 122.5 -294.5zM833.998 413c0 71.333 -22.999 129.833 -68.999 175.5s-103 68.5 -171 68.5c-74.667 0 -136.334 -22.833 -185.001 -68.5s-73 -104.167 -73 -175.5c0 -72.667 24.167 -130.834 72.5 -174.501s110.833 -65.5 187.5 -65.5
c68 0 124.667 21.833 170 65.5s68 101.834 68 174.501zM788.999 1071c0 62.667 -18.332 113.5 -54.999 152.5s-83.334 58.5 -140.001 58.5c-64 0 -115.5 -18.833 -154.5 -56.5s-58.5 -89.167 -58.5 -154.5s20 -118.166 60 -158.499s91.667 -60.5 155 -60.5
c56 0 102.167 20.167 138.5 60.5s54.5 93.166 54.5 158.499z" />
    <glyph glyph-name="nine" unicode="9" horiz-adv-x="1164" 
d="M515 173c84 0 152.169 29.667 204.502 89s78.5 142.666 78.5 249.999v105c-32 -44.667 -71 -78.334 -117 -101.001s-96 -34 -150 -34c-138 0 -246.167 43.667 -324.5 131s-117.5 207.666 -117.5 360.999c0 146 43.833 266.333 131.5 361s197.834 142 330.501 142
c146 0 264.167 -47.667 354.5 -143s135.5 -228.666 135.5 -399.999v-413c0 -168.667 -49.167 -301.167 -147.5 -397.5s-224.5 -144.5 -378.5 -144.5c-51.333 0 -103.833 5.33301 -157.5 16s-103.834 26.334 -150.501 47.001l39 185
c43.333 -19.333 85.666 -33.166 126.999 -41.499s88.666 -12.5 141.999 -12.5zM554.002 671c58 0 107.667 12.167 149 36.5s73 56.166 95 95.499v173c0 98 -21.5 173.5 -64.5 226.5s-102.5 79.5 -178.5 79.5c-64.667 0 -118.167 -29.167 -160.5 -87.5
s-63.5 -131.833 -63.5 -220.5c0 -91.333 19.167 -164.666 57.5 -219.999s93.5 -83 165.5 -83z" />
    <glyph glyph-name="colon" unicode=":" horiz-adv-x="549" 
d="M395 0h-242v233h242v-233zM395 876h-242v233h242v-233z" />
    <glyph glyph-name="semicolon" unicode=";" horiz-adv-x="544" 
d="M396 876h-242v233h242v-233zM414 31l-155 -312h-154l70 321v198h239v-207z" />
    <glyph glyph-name="less" unicode="&#x3c;" horiz-adv-x="1041" 
d="M322 559l-19 -3v-6l19 -3l578 -218v-243l-837 372v193l837 372v-242z" />
    <glyph glyph-name="equal" unicode="=" horiz-adv-x="1166" 
d="M1007 790h-862v202h862v-202zM1007 366h-862v201h862v-201z" />
    <glyph glyph-name="greater" unicode="&#x3e;" horiz-adv-x="1066" 
d="M128 770v239l864 -372v-193l-864 -372v239l605 226l18 2l1 6l-19 4z" />
    <glyph glyph-name="question" unicode="?" horiz-adv-x="996" 
d="M340 412c0.666992 95.333 11.668 163.498 33.001 204.498s68.666 92.5 141.999 154.5c52 50.667 93.333 99.167 124 145.5s46 97.5 46 153.5c0 64.667 -17.5 114.834 -52.5 150.501s-84.833 53.5 -149.5 53.5c-55.333 0 -102.333 -15.167 -141 -45.5
s-58 -75.166 -58 -134.499h-234l-3 6c-2 118.667 37.833 211.167 119.5 277.5s187.167 99.5 316.5 99.5c140 0 249.167 -35.667 327.5 -107s117.5 -170.333 117.5 -297c0 -84.667 -24.5 -163.167 -73.5 -235.5s-110.833 -138.5 -185.5 -198.5
c-38 -33.333 -61.833 -65 -71.5 -95s-14.5 -74 -14.5 -132h-243zM587.001 -0.00195312h-248v233h248v-233z" />
    <glyph glyph-name="at" unicode="@" horiz-adv-x="1825" 
d="M1731 507c-6 -144 -47.3311 -268.004 -123.998 -372.004s-191.334 -156 -344.001 -156c-50 0 -93.167 14 -129.5 42s-62.5 67.667 -78.5 119c-31.333 -53.333 -70 -93.166 -116 -119.499s-99.667 -39.5 -161 -39.5c-88.667 0 -156.834 39.833 -204.501 119.5
s-65.5 184.834 -53.5 315.501c16 170.667 62.833 307.667 140.5 411s171.834 155 282.501 155c73.333 0 132.5 -8.66699 177.5 -26s94.167 -44 147.5 -80l-3 -4h5l-51 -579c-5.33301 -67.333 0.666992 -113.666 18 -138.999s40.333 -38 69 -38
c79.333 0 142.833 36.833 190.5 110.5s74.167 167.167 79.5 280.5c10.667 244.667 -36 435.334 -140 572.001s-265.333 205 -484 205c-204 0 -367.167 -73.667 -489.5 -221s-188.5 -342.333 -198.5 -585c-12 -243.333 37.167 -435 147.5 -575s268.833 -210 475.5 -210
c58 0 117 6.66699 177 20s111.333 31 154 53l38 -130c-44.667 -28 -101.5 -49.833 -170.5 -65.5s-136.5 -23.5 -202.5 -23.5c-258 0 -457.333 83.167 -598 249.5s-205.334 393.5 -194.001 681.5c12 282.667 96 511 252 685s360.333 261 613 261c255.333 0 451 -82 587 -246
s198.667 -387.667 188 -671zM721.002 415.996c-6.66699 -88.667 0 -155.999 20 -201.999s53 -69 99 -69c39.333 0 75.666 8.16699 108.999 24.5s63 45.5 89 87.5c0 5.33301 0.166992 10.666 0.5 15.999s0.833008 12 1.5 20l45 515c-15.333 6 -31.666 10.833 -48.999 14.5
s-35.333 5.5 -54 5.5c-78.667 0 -138.667 -34.167 -180 -102.5s-68.333 -171.5 -81 -309.5z" />
    <glyph glyph-name="A" unicode="A" horiz-adv-x="1300" 
d="M911 340h-516l-112 -340h-251l508 1456h231l502 -1456h-251zM462 543h383l-187 574h-6z" />
    <glyph glyph-name="B" unicode="B" horiz-adv-x="1304" 
d="M153 0l-0.000976562 1456h477c160.667 0 286.334 -33.167 377.001 -99.5s136 -165.5 136 -297.5c0 -64 -18.167 -121.667 -54.5 -173s-86.833 -90.333 -151.5 -117c93.333 -15.333 165.166 -55.666 215.499 -120.999s75.5 -142 75.5 -230
c0 -136.667 -44.667 -240.5 -134 -311.5s-212.666 -106.5 -369.999 -106.5h-571zM395.999 661.999l0.000976562 -467.999h328c84 0 148.667 19.167 194 57.5s68 93.833 68 166.5c0 73.333 -22.333 131.666 -67 174.999s-107.334 66.333 -188.001 69h-13h-322zM396 843h260
c75.333 0 134.833 17.833 178.5 53.5s65.5 86.167 65.5 151.5c0 72 -23 125.5 -69 160.5s-113 52.5 -201 52.5h-234v-418z" />
    <glyph glyph-name="C" unicode="C" horiz-adv-x="1300" 
d="M1217 476l2.00195 -6.00098c2.66699 -146.667 -45 -265.167 -143 -355.5s-230.333 -135.5 -397 -135.5c-169.333 0 -306.666 57.167 -411.999 171.5s-158 260.5 -158 438.5v277c0 177.333 52 323.5 156 438.5s239.667 172.5 407 172.5
c171.333 0 306.166 -43.667 404.499 -131s146.166 -207 143.499 -359l-2 -6h-235c0 97.333 -26.333 171.833 -79 223.5s-130 77.5 -232 77.5c-98.667 0 -176.834 -39.167 -234.501 -117.5s-86.5 -177.166 -86.5 -296.499v-279c0 -120.667 29.333 -220.167 88 -298.5
s138.667 -117.5 240 -117.5c99.333 0 174.833 26 226.5 78s77.5 127 77.5 225h234z" />
    <glyph glyph-name="D" unicode="D" horiz-adv-x="1372" 
d="M153 0v1456h481c184.667 0 334.834 -57.667 450.501 -173s173.5 -263.666 173.5 -444.999v-221c0 -182 -57.833 -330.333 -173.5 -445s-265.834 -172 -450.501 -172h-481zM396 1261v-1067h238c116.667 0 209.334 39.5 278.001 118.5s103 180.5 103 304.5v223
c0 122.667 -34.333 223.5 -103 302.5s-161.334 118.5 -278.001 118.5h-238z" />
    <glyph glyph-name="E" unicode="E" horiz-adv-x="1134" 
d="M966 655h-570v-461h672v-194h-915v1456h908v-195h-665v-411h570v-195z" />
    <glyph glyph-name="F" unicode="F" horiz-adv-x="1134" 
d="M983 621h-587v-621h-243v1456h932v-195h-689v-445h587v-195z" />
    <glyph glyph-name="G" unicode="G" horiz-adv-x="1376" 
d="M1232 197c-40 -56.667 -103.829 -107.168 -191.496 -151.501s-200.834 -66.5 -339.501 -66.5c-172 0 -313.5 55.5 -424.5 166.5s-166.5 254.5 -166.5 430.5v304c0 176 53.667 319.5 161 430.5s245.333 166.5 414 166.5c169.333 0 301.333 -42.667 396 -128
s140.667 -196.666 138 -333.999l-3 -6h-231c0 82 -25.5 148 -76.5 198s-124.167 75 -219.5 75c-100.667 0 -181.834 -37.667 -243.501 -113s-92.5 -171 -92.5 -287v-306c0 -117.333 32.167 -213.833 96.5 -289.5s148.166 -113.5 251.499 -113.5
c78 0 139.667 8.83301 185 26.5s79.666 39.167 102.999 64.5v301h-305v182h548v-550z" />
    <glyph glyph-name="H" unicode="H" horiz-adv-x="1443" 
d="M1290 0h-243v621h-651v-621h-243v1456h243v-640h651v640h243v-1456z" />
    <glyph glyph-name="I" unicode="I" horiz-adv-x="589" 
d="M416 0h-243v1456h243v-1456z" />
    <glyph glyph-name="J" unicode="J" horiz-adv-x="1130" 
d="M737 1456l242 0.000976562v-1019c0 -140 -42.5 -251.333 -127.5 -334s-195.167 -124 -330.5 -124c-143.333 0 -257 36.667 -341 110s-124.333 180.333 -121 321l2 6h235c0 -82.667 19.833 -143.834 59.5 -183.501s94.834 -59.5 165.501 -59.5
c63.333 0 115.166 24 155.499 72s60.5 112 60.5 192v1019z" />
    <glyph glyph-name="K" unicode="K" horiz-adv-x="1304" 
d="M515 630h-119v-630h-243v1456h243v-617h95l473 617h285l3 -5l-546 -684l591 -767h-307z" />
    <glyph glyph-name="L" unicode="L" horiz-adv-x="1131" 
d="M396 194h682v-194h-925v1456h243v-1262z" />
    <glyph glyph-name="M" unicode="M" horiz-adv-x="1781" 
d="M890 336h6l421 1120h310v-1456h-243v1046l-6 1l-401 -1047h-167l-408 1067l-6 -2v-1065h-243v1456h319z" />
    <glyph glyph-name="N" unicode="N" horiz-adv-x="1443" 
d="M1290 0h-243l-645 1049l-6 -2v-1047h-243v1456h243l645 -1049l6 2v1047h243v-1456z" />
    <glyph glyph-name="O" unicode="O" horiz-adv-x="1402" 
d="M1297 597c0 -178 -55.832 -325.5 -167.499 -442.5s-256.834 -175.5 -435.501 -175.5c-174 0 -315.667 58.5 -425 175.5s-164 264.5 -164 442.5v262c0 177.333 54.5 324.666 163.5 441.999s250.833 176 425.5 176c178 0 323 -58.667 435 -176s168 -264.666 168 -441.999
v-262zM1054 861c0 121.333 -32.3311 221 -96.998 299s-152.334 117 -263.001 117c-107.333 0 -191.833 -39 -253.5 -117s-92.5 -177.667 -92.5 -299v-264c0 -122.667 31 -223.167 93 -301.5s146.333 -117.5 253 -117.5c111.333 0 199.166 39 263.499 117
s96.5 178.667 96.5 302v264z" />
    <glyph glyph-name="P" unicode="P" horiz-adv-x="1304" 
d="M396 552v-552h-243v1456h558c160.667 0 286.5 -41.5 377.5 -124.5s136.5 -192.167 136.5 -327.5c0 -136.667 -45.5 -246.167 -136.5 -328.5s-216.833 -123.5 -377.5 -123.5h-315zM396 747h315c90 0 157.667 24 203 72s68 109 68 183s-22.667 135.667 -68 185
s-113 74 -203 74h-315v-514z" />
    <glyph glyph-name="Q" unicode="Q" horiz-adv-x="1434" 
d="M1297 597c0 -74.667 -10.501 -145 -31.501 -211s-51.167 -125.333 -90.5 -178l215 -214l-162 -145l-216 213c-46 -27.333 -95.667 -48 -149 -62s-109.666 -21 -168.999 -21c-174 0 -315.667 58.5 -425 175.5s-164 264.5 -164 442.5v262
c0 177.333 54.5 324.666 163.5 441.999s250.833 176 425.5 176c178 0 323 -58.667 435 -176s168 -264.666 168 -441.999v-262zM1054 861c0 121.333 -32.3311 221 -96.998 299s-152.334 117 -263.001 117c-107.333 0 -191.833 -39 -253.5 -117s-92.5 -177.667 -92.5 -299
v-264c0 -122.667 31 -223.167 93 -301.5s146.333 -117.5 253 -117.5c111.333 0 199.166 39 263.499 117s96.5 178.667 96.5 302v264z" />
    <glyph glyph-name="R" unicode="R" horiz-adv-x="1303" 
d="M396 604l-0.000976562 -604h-243v1456h501c162 0 287.333 -36.667 376 -110s133 -178 133 -314c0 -75.333 -19.5 -140.166 -58.5 -194.499s-95.833 -97.833 -170.5 -130.5c82 -26 141.167 -68.333 177.5 -127s54.5 -131.334 54.5 -218.001v-121
c0 -42.667 5.33301 -84.334 16 -125.001s28.334 -71.667 53.001 -93v-23h-250c-26.667 22 -43.667 56.333 -51 103s-11 93.334 -11 140.001v117c0 74.667 -21.5 134 -64.5 178s-101.5 66 -175.5 66h-287zM395.999 799h245c97.333 0 168.333 18.667 213 56s67 94.333 67 171
c0 73.333 -22 130.833 -66 172.5s-111 62.5 -201 62.5h-258v-462z" />
    <glyph glyph-name="S" unicode="S" horiz-adv-x="1259" 
d="M920 374c0 60.667 -21.5 110.335 -64.5 149.002s-119.167 73.334 -228.5 104.001c-156.667 43.333 -277.5 100.166 -362.5 170.499s-127.5 162.166 -127.5 275.499c0 117.333 46.667 214 140 290s213.333 114 360 114c157.333 0 283.166 -42.167 377.499 -126.5
s139.833 -188.5 136.5 -312.5l-2 -6h-234c0 76.667 -25.5 137.667 -76.5 183s-118.833 68 -203.5 68c-82 0 -145.167 -19.333 -189.5 -58s-66.5 -88.667 -66.5 -150c0 -56 24.333 -102.167 73 -138.5s129.334 -70.833 242.001 -103.5
c152.667 -42.667 269 -100.834 349 -174.501s120 -167.834 120 -282.501c0 -120.667 -47.333 -217 -142 -289s-219 -108 -373 -108c-148 0 -277 39.333 -387 118s-163.333 189.667 -160 333l2 6h234c0 -87.333 30.167 -153.166 90.5 -197.499s133.833 -66.5 220.5 -66.5
c86 0 152.833 18.167 200.5 54.5s71.5 85.5 71.5 147.5z" />
    <glyph glyph-name="T" unicode="T" horiz-adv-x="1202" 
d="M1170 1261h-450v-1261h-243v1261h-443v195h1136v-195z" />
    <glyph glyph-name="U" unicode="U" horiz-adv-x="1396" 
d="M1265 1456v-959c0 -162 -53.167 -288.833 -159.5 -380.5s-243.5 -137.5 -411.5 -137.5c-165.333 0 -300 45.833 -404 137.5s-156 218.5 -156 380.5v959h243v-959c0 -103.333 29 -183.166 87 -239.499s134.667 -84.5 230 -84.5c98.667 0 178 28.167 238 84.5
s90 136.166 90 239.499v959h243z" />
    <glyph glyph-name="V" unicode="V" horiz-adv-x="1300" 
d="M621 395l26 -106h6l25 104l348 1063h259l-520 -1456h-231l-519 1456h259z" />
    <glyph glyph-name="W" unicode="W" horiz-adv-x="1781" 
d="M1276 406h6l214 1050h256l-346 -1456h-221l-291 1036h-6l-292 -1036h-222l-345 1456h255l216 -1049h6l277 1049h214z" />
    <glyph glyph-name="X" unicode="X" horiz-adv-x="1300" 
d="M650 918l307 538h288l-448 -722l465 -734h-292l-316 547l-316 -547h-288l458 734l-448 722h286z" />
    <glyph glyph-name="Y" unicode="Y" horiz-adv-x="1300" 
d="M648 748l351 708h271l-505 -947v-509h-242v524l-497 932h271z" />
    <glyph glyph-name="Z" unicode="Z" horiz-adv-x="1196" 
d="M374 194h739v-194h-1025v152l711 1109h-705v195h993v-146z" />
    <glyph glyph-name="bracketleft" unicode="[" horiz-adv-x="561" 
d="M540 1488h-165v-1623h165v-189h-408v2002h408v-190z" />
    <glyph glyph-name="backslash" unicode="\" horiz-adv-x="855" 
d="M21 1456h236l608 -1581h-236z" />
    <glyph glyph-name="bracketright" unicode="]" horiz-adv-x="561" 
d="M12 1678h410v-2002h-410v189h167v1623h-167v190z" />
    <glyph glyph-name="asciicircum" unicode="^" horiz-adv-x="875" 
d="M259 729h-206l299 727h171l298 -727h-205l-165 413l-12 54h-6l-12 -54z" />
    <glyph glyph-name="underscore" unicode="_" horiz-adv-x="924" 
d="M920 -191h-917v191h917v-191z" />
    <glyph glyph-name="grave" unicode="`" horiz-adv-x="660" 
d="M531 1252h-202l-260 260l2 6h276z" />
    <glyph glyph-name="a" unicode="a" horiz-adv-x="1114" 
d="M780 0c-8.66699 27.333 -15.832 54 -21.499 80s-9.5 52 -11.5 78c-32.667 -50.667 -76.334 -93.167 -131.001 -127.5s-115.667 -51.5 -183 -51.5c-112.667 0 -199.167 29 -259.5 87s-90.5 137.667 -90.5 239c0 104.667 41.333 186.167 124 244.5s199 87.5 349 87.5h189
v95c0 56.667 -16.5 101 -49.5 133s-80.833 48 -143.5 48c-55.333 0 -99.333 -13.167 -132 -39.5s-49 -60.5 -49 -102.5l-234 -1l-1 6c-4.66699 85.333 33.5 161 114.5 227s186.5 99 316.5 99c126 0 227.667 -32 305 -96s116 -156 116 -276v-481c0 -44.667 3 -87.5 9 -128.5
s15.667 -81.167 29 -120.5h-246zM483.002 174c60.667 0 115.5 15.332 164.5 45.999s81.5 65.667 97.5 105v160h-193c-70.667 0 -126 -17.5 -166 -52.5s-60 -76.167 -60 -123.5c0 -41.333 13.5 -74.166 40.5 -98.499s65.833 -36.5 116.5 -36.5z" />
    <glyph glyph-name="b" unicode="b" 
d="M1078 505c0 -158 -36.833 -285.168 -110.5 -381.501s-177.5 -144.5 -311.5 -144.5c-68 0 -127 14 -177 42s-91.667 68.667 -125 122l-29 -143h-197v1560h243v-601c33.333 46 73.333 81.333 120 106s101 37 163 37c135.333 0 239.833 -52.667 313.5 -158
s110.5 -244.666 110.5 -417.999v-21zM835 525.999c0 112.667 -19.335 203.667 -58.002 273s-100 104 -184 104c-54 0 -99.167 -12 -135.5 -36s-65.166 -57.333 -86.499 -100v-454c20.667 -43.333 49.334 -76.833 86.001 -100.5s82.667 -35.5 138 -35.5
c84 0 145 29.5 183 88.5s57 138.833 57 239.5v21z" />
    <glyph glyph-name="c" unicode="c" horiz-adv-x="1065" 
d="M569 173c55.333 0 102.167 17.334 140.5 52.001s57.5 78.667 57.5 132h220l2 -6c2.66699 -101.333 -37.5 -188.666 -120.5 -261.999s-182.833 -110 -299.5 -110c-156 0 -276.333 51.5 -361 154.5s-127 232.833 -127 389.5v35c0 156 42.333 285.667 127 389
s204.667 155 360 155c126 0 228.333 -37.833 307 -113.5s116.667 -171.834 114 -288.501l-2 -6h-220c0 59.333 -18.333 109.666 -55 150.999s-84.667 62 -144 62c-86.667 0 -149 -33.5 -187 -100.5s-57 -149.833 -57 -248.5v-35c0 -100.667 18.833 -184.167 56.5 -250.5
s100.5 -99.5 188.5 -99.5z" />
    <glyph glyph-name="d" unicode="d" 
d="M83 526c0 172.667 37 311.833 111 417.5s178 158.5 312 158.5c58.667 0 111.167 -11.833 157.5 -35.5s86.5 -57.5 120.5 -101.5v595h243v-1560h-197l-29 137c-34.667 -51.333 -76.667 -90.5 -126 -117.5s-106.333 -40.5 -171 -40.5c-132.667 0 -236 48.333 -310 145
s-111 223.667 -111 381v21zM326 504.999c0 -100 19.167 -179.667 57.5 -239s99.166 -89 182.499 -89c51.333 0 94.833 11 130.5 33s64.834 53.333 87.501 94v472c-22.667 40 -52 71.167 -88 93.5s-78.667 33.5 -128 33.5c-82.667 0 -143.667 -34.833 -183 -104.5
s-59 -160.5 -59 -272.5v-21z" />
    <glyph glyph-name="e" unicode="e" horiz-adv-x="1072" 
d="M587 -21c-158 0 -281.499 49.832 -370.499 149.499s-133.5 228.834 -133.5 387.501v40c0 158.667 44.5 289.5 133.5 392.5s203.833 154.167 344.5 153.5c145.333 0 255.333 -44.833 330 -134.5s112 -209.5 112 -359.5v-131h-669l-2 -5
c2.66699 -88.667 26 -160.667 70 -216s110.333 -83 199 -83c66 0 123.167 8 171.5 24s93.166 39 134.499 69l79 -159c-41.333 -36 -96 -66.333 -164 -91s-146.333 -37 -235 -37zM561.001 906.999c-63.333 0 -114 -22.833 -152 -68.5s-61.667 -105.167 -71 -178.5l2 -5h423
v19c0 69.333 -16.167 125.5 -48.5 168.5s-83.5 64.5 -153.5 64.5z" />
    <glyph glyph-name="f" unicode="f" horiz-adv-x="693" 
d="M207 0l-0.000976562 902.001h-165v180h165v126c0 119.333 32.5 211.333 97.5 276s156.167 97 273.5 97c23.333 0 47 -1.83301 71 -5.5s51 -8.83398 81 -15.501l-25 -188c-13.333 2.66699 -28.166 5 -44.499 7s-33.833 3 -52.5 3c-52.667 0 -92.167 -15 -118.5 -45
s-39.5 -73 -39.5 -129v-126h201v-180h-201v-902h-243z" />
    <glyph glyph-name="g" unicode="g" 
d="M90 526c0 172.667 37 311.833 111 417.5s178 158.5 312 158.5c64.667 0 121.5 -13.833 170.5 -41.5s90.5 -67.5 124.5 -119.5l24 141h202v-1082c0 -139.333 -43 -247 -129 -323s-208 -114 -366 -114c-52.667 0 -109.5 7.5 -170.5 22.5s-116.167 34.833 -165.5 59.5
l39 191c41.333 -20.667 87.5 -36.834 138.5 -48.501s103.167 -17.5 156.5 -17.5c88 0 152.333 18.833 193 56.5s61 95.5 61 173.5v111c-34 -43.333 -74.167 -76.166 -120.5 -98.499s-99.5 -33.5 -159.5 -33.5c-132.667 0 -236 48.333 -310 145s-111 223.667 -111 381v21z
M332 504.999c0 -100 19.333 -179.667 58 -239s99.667 -89 183 -89c52 0 95.833 10.833 131.5 32.5s64.5 52.834 86.5 93.501v474c-22.667 39.333 -51.834 70.166 -87.501 92.499s-78.5 33.5 -128.5 33.5c-83.333 0 -144.666 -34.833 -183.999 -104.5s-59 -160.5 -59 -272.5
v-21z" />
    <glyph glyph-name="h" unicode="h" 
d="M368 942c36 50.667 79.832 90 131.499 118s108.834 42 171.501 42c114.667 0 204.167 -36.167 268.5 -108.5s96.5 -183.833 96.5 -334.5v-659h-243v661c0 84.667 -16.5 146.167 -49.5 184.5s-82.167 57.5 -147.5 57.5c-52 0 -97 -9.16699 -135 -27.5
s-69 -43.833 -93 -76.5v-799h-243v1560h243v-618z" />
    <glyph glyph-name="i" unicode="i" horiz-adv-x="531" 
d="M387 0h-243v1082h243v-1082zM387 1347h-243v213h243v-213z" />
    <glyph glyph-name="j" unicode="j" horiz-adv-x="537" 
d="M398 1082l-0.000976562 -1145c0 -119.333 -31 -211.5 -93 -276.5s-148.333 -97.5 -259 -97.5c-24 0 -45.667 1.33301 -65 4s-39.666 7 -60.999 13l14 194c11.333 -3.33301 25.333 -6.16602 42 -8.49902s32 -3.5 46 -3.5c41.333 0 73.833 14.167 97.5 42.5
s35.5 72.5 35.5 132.5v1145h243zM391.999 1350h-243v210h243v-210z" />
    <glyph glyph-name="k" unicode="k" horiz-adv-x="1072" 
d="M461 473h-90v-473h-242v1560h242v-892h83l293 414h285l-371 -498l412 -584h-283z" />
    <glyph glyph-name="l" unicode="l" horiz-adv-x="531" 
d="M387 0h-243v1560h243v-1560z" />
    <glyph glyph-name="m" unicode="m" horiz-adv-x="1781" 
d="M350 1082l12.999 -141c35.333 51.333 79.666 91 132.999 119s115 42 185 42c70.667 0 131.334 -16 182.001 -48s88.667 -80 114 -144c33.333 60 77.333 107 132 141s118.667 51 192 51c108.667 0 194.5 -37.833 257.5 -113.5s94.5 -190.167 94.5 -343.5v-645h-243v646
c0 94.667 -15.833 161.167 -47.5 199.5s-79.167 57.5 -142.5 57.5c-52 0 -96 -14 -132 -42s-62 -65.667 -78 -113c0 -10 0.333008 -18.667 1 -26s1 -14.333 1 -21v-701h-243v646c0 91.333 -16.167 157 -48.5 197s-79.833 60 -142.5 60
c-49.333 0 -91.166 -9.5 -125.499 -28.5s-61.5 -45.833 -81.5 -80.5v-794h-243v1082h222z" />
    <glyph glyph-name="n" unicode="n" 
d="M348 1082l14 -156c35.333 55.333 79.833 98.5 133.5 129.5s114.167 46.5 181.5 46.5c112.667 0 200.5 -34.667 263.5 -104s94.5 -177.666 94.5 -324.999v-673h-243v671c0 84 -16.333 143.667 -49 179s-82 53 -148 53c-52 0 -97 -9.83301 -135 -29.5
s-68.333 -46.834 -91 -81.501v-792h-243v1082h222z" />
    <glyph glyph-name="o" unicode="o" 
d="M83 551c0 161.333 44.1689 293.5 132.502 396.5s209.166 154.5 362.499 154.5c155.333 0 277.166 -51.5 365.499 -154.5s132.5 -235.167 132.5 -396.5v-21c0 -162.667 -44.167 -295.167 -132.5 -397.5s-209.5 -153.5 -363.5 -153.5
c-154.667 0 -276.167 51.333 -364.5 154s-132.5 235 -132.5 397v21zM326.002 530c0 -106 20.668 -191.999 62.001 -257.999s105.333 -99 192 -99c84.667 0 148.167 33.167 190.5 99.5s63.5 152.166 63.5 257.499v21c0 103.333 -21.167 188.5 -63.5 255.5
s-106.5 100.5 -192.5 100.5c-84.667 0 -147.834 -33.5 -189.501 -100.5s-62.5 -152.167 -62.5 -255.5v-21z" />
    <glyph glyph-name="p" unicode="p" 
d="M1076 505c0 -157.333 -37 -284.333 -111 -381s-177 -145 -309 -145c-61.333 0 -115.666 11 -162.999 33s-88 54.333 -122 97v-525h-243v1498h205l24 -136c34.667 50.667 76.5 89.334 125.5 116.001s105.833 40 170.5 40c133.333 0 237.166 -52.833 311.499 -158.5
s111.5 -244.834 111.5 -417.501v-21zM834 526c0 110.667 -20.832 201.168 -62.499 271.501s-103.834 105.5 -186.501 105.5c-50.667 0 -93.667 -10.833 -129 -32.5s-63.666 -51.834 -84.999 -90.501v-489c21.333 -38 49.666 -67.167 84.999 -87.5s79 -30.5 131 -30.5
c82.667 0 144.5 30.5 185.5 91.5s61.5 141.167 61.5 240.5v21z" />
    <glyph glyph-name="q" unicode="q" 
d="M83 526c0 172.667 36.999 311.834 110.999 417.501s178 158.5 312 158.5c62.667 0 118 -13 166 -39s89 -63.333 123 -112l28 131h197v-1498h-243v518c-33.333 -40.667 -72.666 -71.334 -117.999 -92.001s-97 -31 -155 -31c-132.667 0 -236 48.333 -310 145
s-111 223.667 -111 381v21zM325.999 505c0 -100 19.1699 -180.333 57.5029 -241s99.166 -91 182.499 -91c49.333 0 91.166 9.83301 125.499 29.5s62.833 48.167 85.5 85.5v504c-22.667 36 -51.334 64.167 -86.001 84.5s-75.667 30.5 -123 30.5
c-82.667 0 -143.667 -35.5 -183 -106.5s-59 -162.5 -59 -274.5v-21z" />
    <glyph glyph-name="r" unicode="r" horiz-adv-x="719" 
d="M667 863l-104.002 4c-47.333 0 -86.833 -10 -118.5 -30s-56.167 -48.333 -73.5 -85v-752h-243v1082h222l16 -157c27.333 55.333 62.5 98.666 105.5 129.999s92.5 47 148.5 47c14.667 0 28.334 -1.16699 41.001 -3.5s24.334 -5.16602 35.001 -8.49902z" />
    <glyph glyph-name="s" unicode="s" horiz-adv-x="1065" 
d="M736 296c0 37.333 -15.835 68.1699 -47.502 92.5029s-91.5 46.166 -179.5 65.499c-127.333 26 -224.666 64.333 -291.999 115s-101 118.667 -101 204c0 90.667 38.333 168.167 115 232.5s177.667 96.5 303 96.5c129.333 0 233.5 -33.167 312.5 -99.5
s116.833 -146.166 113.5 -239.499l-2 -6h-233c0 44 -17.333 82.167 -52 114.5s-81 48.5 -139 48.5c-58.667 0 -103.334 -13.333 -134.001 -40s-46 -59.334 -46 -98.001c0 -36.667 14.333 -66 43 -88s87.667 -41.667 177 -59c132.667 -26.667 232.667 -65.834 300 -117.501
s101 -120.834 101 -207.501c0 -97.333 -40.167 -176.833 -120.5 -238.5s-186.166 -92.5 -317.499 -92.5c-140.667 0 -251.667 36 -333 108s-120 154.667 -116 248l2 6h226c2.66699 -62.667 25.334 -108.334 68.001 -137.001s94.667 -43 156 -43
c62 0 110.167 12.333 144.5 37s51.5 57.334 51.5 98.001z" />
    <glyph glyph-name="t" unicode="t" horiz-adv-x="701" 
d="M439 1345v-263.001h194v-180h-194v-598c0 -44.667 9.66699 -76.5 29 -95.5s45 -28.5 77 -28.5c13.333 0 26.333 1.16699 39 3.5s24.667 5.5 36 9.5l26 -178c-20.667 -11.333 -45.167 -20.166 -73.5 -26.499s-57.833 -9.5 -88.5 -9.5c-89.333 0 -159.5 26.167 -210.5 78.5
s-76.5 134.5 -76.5 246.5v598h-165v180h165v263h242z" />
    <glyph glyph-name="u" unicode="u" 
d="M803 160c-33.333 -58 -76.1689 -102.668 -128.502 -134.001s-112.833 -47 -181.5 -47c-116 0 -206.667 38.167 -272 114.5s-98 194.833 -98 355.5v633h242v-635c0 -103.333 15 -174.166 45 -212.499s76.667 -57.5 140 -57.5c58.667 0 107.834 10.5 147.501 31.5
s70.834 51.5 93.501 91.5v782h243v-1082h-209z" />
    <glyph glyph-name="v" unicode="v" horiz-adv-x="1038" 
d="M504 366l18 -88h6l19 88l215 716h251l-384 -1082h-211l-386 1082h251z" />
    <glyph glyph-name="w" unicode="w" horiz-adv-x="1530" 
d="M1081 321h6l158 761h243l-296 -1082h-199l-229 716h-6l-226 -716h-199l-296 1082h243l162 -751h6l226 751h177z" />
    <glyph glyph-name="x" unicode="x" horiz-adv-x="1038" 
d="M516 711l200 371h279l-340 -535l350 -547h-276l-209 380l-209 -380h-278l350 547l-340 535h276z" />
    <glyph glyph-name="y" unicode="y" horiz-adv-x="1038" 
d="M487 434l24 -108.001h6l237 756h266l-448 -1246c-28.667 -75.333 -69 -139.666 -121 -192.999s-125.667 -80 -221 -80c-20 0 -41.5 2 -64.5 6s-45.167 8.66699 -66.5 14l27 188c8.66699 -0.666992 21 -1.66699 37 -3s28 -2 36 -2c44 0 79.167 15 105.5 45
s47.833 64.667 64.5 104l40 98l-393 1069h265z" />
    <glyph glyph-name="z" unicode="z" horiz-adv-x="1038" 
d="M386 194h578v-194h-879v159l546 727h-535v196h842v-154z" />
    <glyph glyph-name="braceleft" unicode="{" horiz-adv-x="687" 
d="M609 -360c-130 36.667 -222.5 94.998 -277.5 174.998s-82.5 177 -82.5 291v203c0 69.333 -15.833 123.333 -47.5 162s-80.167 58 -145.5 58v178c65.333 0 113.833 19.333 145.5 58s47.5 93.334 47.5 164.001v203c0 114 27.5 210.833 82.5 290.5
s147.5 137.834 277.5 174.501l48 -140c-65.333 -22 -111.5 -61 -138.5 -117s-40.5 -125.333 -40.5 -208v-203c0 -69.333 -14.333 -130.833 -43 -184.5s-72 -95.5 -130 -125.5c58 -31.333 101.333 -73.833 130 -127.5s43 -114.5 43 -182.5v-203
c0 -82.667 13.5 -152 40.5 -208s73.167 -95 138.5 -117z" />
    <glyph glyph-name="bar" unicode="|" horiz-adv-x="514" 
d="M358 -270h-214v1726h214v-1726z" />
    <glyph glyph-name="braceright" unicode="}" horiz-adv-x="687" 
d="M27 -219c64.667 22 110.834 61.002 138.501 117.002s41.5 125.333 41.5 208v203c0 70 14.833 131.667 44.5 185s75.5 94.666 137.5 123.999c-62 28.667 -107.833 69.834 -137.5 123.501s-44.5 116.167 -44.5 187.5v203c0 82.667 -13.833 152 -41.5 208
s-73.834 95 -138.501 117l48 140c129.333 -36.667 221.666 -94.834 276.999 -174.501s83 -176.5 83 -290.5v-203c0 -70.667 15.667 -125.334 47 -164.001s80.333 -58 147 -58v-178c-66.667 0 -115.667 -19.333 -147 -58s-47 -92.667 -47 -162v-203
c0 -114 -27.667 -211 -83 -291s-147.666 -138.333 -276.999 -175z" />
    <glyph glyph-name="asciitilde" unicode="~" horiz-adv-x="1361" 
d="M1244 750c0 -100.667 -29.3311 -186.334 -87.998 -257.001s-132.334 -106 -221.001 -106c-58 0 -111.167 10.833 -159.5 32.5s-100.166 56.167 -155.499 103.5c-36.667 30.667 -69.667 53.334 -99 68.001s-59.333 22 -90 22c-40 0 -74 -17.167 -102 -51.5
s-42 -75.5 -42 -123.5l-170 22c0 100 28.667 184.167 86 252.5s131 102.5 221 102.5c57.333 0 111.166 -11.167 161.499 -33.5s102.166 -56.166 155.499 -101.499c36 -32 68.333 -55 97 -69s58.667 -21 90 -21c39.333 0 73.333 18.167 102 54.5s43 79.166 43 128.499z" />
    <glyph glyph-name="nonbreakingspace" unicode="&#xa0;" horiz-adv-x="510" 
 />
    <glyph glyph-name="exclamdown" unicode="&#xa1;" horiz-adv-x="542" 
d="M386 -374h-243v964h243v-964zM386 847h-243v235h243v-235z" />
    <glyph glyph-name="cent" unicode="&#xa2;" horiz-adv-x="1149" 
d="M569 173c55.333 0 102.166 17.3359 140.499 52.0029s57.5 78.667 57.5 132h221l2 -5c2 -83.333 -25.667 -158.166 -83 -224.499s-130.666 -110.833 -219.999 -133.5v-239h-200v230c-130.667 18 -231 76.667 -301 176s-105 220 -105 362v35
c0 141.333 35 261.666 105 360.999s170.333 158.333 301 177v222h200v-230c93.333 -22.667 168 -69.334 224 -140.001s84 -155.334 84 -254.001h-228c0 59.333 -18.333 109.666 -55 150.999s-84.667 62 -144 62c-86.667 0 -149 -33.5 -187 -100.5s-57 -149.833 -57 -248.5
v-35c0 -100.667 18.833 -184.167 56.5 -250.5s100.5 -99.5 188.5 -99.5z" />
    <glyph glyph-name="sterling" unicode="&#xa3;" horiz-adv-x="1205" 
d="M487 599l5 -112.997c0 -54.667 -7.5 -107.334 -22.5 -158.001s-36.5 -95.334 -64.5 -134.001h726l-1 -194h-986v194h10c31.333 8.66699 54.833 42.5 70.5 101.5s23.5 119.833 23.5 182.5l-5 121h-162v196h155l-9 238c0 138 38.667 246.5 116 325.5s181 118.5 311 118.5
c138 0 245 -36.167 321 -108.5s112.667 -167.833 110 -286.5l-2 -6h-235c0 70 -18.167 121.833 -54.5 155.5s-82.833 50.5 -139.5 50.5c-57.333 0 -102.333 -21.833 -135 -65.5s-49 -104.834 -49 -183.501l9 -238h389v-196h-381z" />
    <glyph glyph-name="currency" unicode="&#xa4;" horiz-adv-x="1437" 
d="M1085 107c-51.333 -40.667 -107.834 -72.0039 -169.501 -94.0039s-125.834 -33 -192.501 -33c-67.333 0 -131.666 10.833 -192.999 32.5s-117 52.834 -167 93.501l-129 -132l-141 144l135 137c-32.667 50.667 -57.5 105.834 -74.5 165.501s-25.5 122.167 -25.5 187.5
c0 67.333 9.33301 131.833 28 193.5s45.667 118.834 81 171.501l-144 147l141 144l142 -145c49.333 36.667 103.333 65 162 85s120.334 30 185.001 30c64 0 125.667 -10.167 185 -30.5s114 -49.166 164 -86.499l145 148l142 -145l-148 -151c34 -52 60.333 -108.5 79 -169.5
s28 -124.833 28 -191.5c0 -64.667 -8.5 -126.5 -25.5 -185.5s-41.167 -113.5 -72.5 -163.5l139 -141l-142 -145zM312.999 607.996c0 -123.333 39.833 -228 119.5 -314s176.5 -129 290.5 -129c113.333 0 209.833 43 289.5 129s119.5 190.667 119.5 314
c0 122.667 -39.833 226.667 -119.5 312s-176.167 128 -289.5 128c-114 0 -210.833 -42.667 -290.5 -128s-119.5 -189.333 -119.5 -312z" />
    <glyph glyph-name="yen" unicode="&#xa5;" horiz-adv-x="1248" 
d="M620 816l323 640h271l-397 -714h276v-147h-355v-143h355v-146h-355v-306h-243v306h-357v146h357v143h-357v147h287l-399 714h272z" />
    <glyph glyph-name="brokenbar" unicode="&#xa6;" horiz-adv-x="508" 
d="M136 -270v795h229v-795h-229zM365 698h-229v758h229v-758z" />
    <glyph glyph-name="section" unicode="&#xa7;" horiz-adv-x="1272" 
d="M1164 455c0 -62 -14.834 -115.998 -44.501 -161.998s-71.834 -83 -126.501 -111c44.667 -33.333 78.334 -73 101.001 -119s34 -101.333 34 -166c0 -116.667 -45.5 -208 -136.5 -274s-213.5 -99 -367.5 -99c-150.667 0 -277 33.667 -379 101
s-151.333 173.666 -148 318.999l2 6l233 1c0 -81.333 28.333 -140.333 85 -177s125.667 -55 207 -55s145.333 16.5 192 49.5s70 75.167 70 126.5s-22.333 92 -67 122s-129.334 63.667 -254.001 101c-161.333 42.667 -280.166 95 -356.499 157s-114.5 151 -114.5 267
c0 60 14.5 113.333 43.5 160s70.833 84.667 125.5 114c-44.667 33.333 -78 73.166 -100 119.499s-33 101.833 -33 166.5c0 112.667 45.833 203.334 137.5 272.001s214.167 103 367.5 103c158.667 0 282.667 -37.167 372 -111.5s132.333 -178.5 129 -312.5l-2 -6h-234
c0 67.333 -23.333 123.333 -70 168s-111.667 67 -195 67c-86.667 0 -152 -16.833 -196 -50.5s-66 -76.167 -66 -127.5c0 -57.333 20.333 -100.333 61 -129s126.334 -60.334 257.001 -95.001c162.667 -44 282.167 -96.833 358.5 -158.5s114.5 -150.5 114.5 -266.5z
M600.999 673.002c-28 6.66699 -54.9971 14.168 -80.9971 22.501s-51.333 17.166 -76 26.499c-36.667 -14 -63.834 -35.167 -81.501 -63.5s-26.5 -61.833 -26.5 -100.5c0 -59.333 20.667 -104.166 62 -134.499s126.666 -63.833 255.999 -100.5l88 -26.5
c23.333 -7 45.666 -14.167 66.999 -21.5c36.667 14.667 65 36.167 85 64.5s30 61.5 30 99.5c0 53.333 -22.667 96.166 -68 128.499s-130.333 67.5 -255 105.5z" />
    <glyph glyph-name="dieresis" unicode="&#xa8;" horiz-adv-x="1054" 
d="M889 1252h-242v204h242v-204zM405 1252h-241v204h241v-204z" />
    <glyph glyph-name="copyright" unicode="&#xa9;" horiz-adv-x="1604" 
d="M1110 596l2.00098 -5.99902c2.66699 -100.667 -25.333 -177.167 -84 -229.5s-140.334 -78.5 -245.001 -78.5c-106.667 0 -191.5 35.333 -254.5 106s-94.5 164.334 -94.5 281.001v119c0 115.333 31.5 208.666 94.5 279.999s147.833 107 254.5 107
c104.667 0 186.5 -26.5 245.5 -79.5s87.167 -129.167 84.5 -228.5l-2 -6h-148c0 62.667 -15 108.167 -45 136.5s-75 42.5 -135 42.5c-62.667 0 -110.834 -23 -144.501 -69s-50.5 -106.667 -50.5 -182v-120c0 -76.667 16.833 -137.834 50.5 -183.501
s81.834 -68.5 144.501 -68.5c60 0 104.833 13.833 134.5 41.5s44.5 73.5 44.5 137.5h148zM209.001 729.001c0 -176 57.168 -324.167 171.501 -444.5s253.166 -180.5 416.499 -180.5c162.667 0 301.167 60.167 415.5 180.5s171.5 268.5 171.5 444.5
c0 175.333 -57.167 322.833 -171.5 442.5s-252.833 179.5 -415.5 179.5c-164 0 -303 -59.833 -417 -179.5s-171 -267.167 -171 -442.5zM87.002 729.001c0 210 69 387 207 531s305.667 216 503 216c196.667 0 364 -72 502 -216s207 -321 207 -531
c0 -210.667 -69.167 -388.334 -207.5 -533.001s-305.5 -217 -501.5 -217c-197.333 0 -365 72.333 -503 217s-207 322.334 -207 533.001z" />
    <glyph glyph-name="ordfeminine" unicode="&#xaa;" horiz-adv-x="913" 
d="M608 706c-5.33301 14 -9.66699 28.8301 -13 44.4971s-6 32.167 -8 49.5c-22 -31.333 -51.5 -57.166 -88.5 -77.499s-81.5 -30.5 -133.5 -30.5c-79.333 0 -140.666 20.333 -183.999 61s-65 96.334 -65 167.001c0 74 28.167 131 84.5 171s138.5 60 246.5 60h137v51
c0 41.333 -9.83301 72.833 -29.5 94.5s-48.5 32.5 -86.5 32.5c-44 0 -78 -8.66699 -102 -26s-36 -41.666 -36 -72.999l-165 13l-1 6c-4 65.333 22.333 119.666 79 162.999s131.667 65 225 65c89.333 0 160.166 -23.667 212.499 -71s78.5 -115.666 78.5 -204.999v-314
c0 -34 2 -65.667 6 -95s10.667 -58 20 -86h-177zM407.999 835.997c34 0 68.834 9.66797 104.501 29.001s59.5 40.666 71.5 63.999v105h-136c-49.333 0 -87.833 -10.667 -115.5 -32s-41.5 -47.333 -41.5 -78c0 -28.667 9.66699 -50.5 29 -65.5s48.666 -22.5 87.999 -22.5z
" />
    <glyph glyph-name="guillemotleft" unicode="&#xab;" horiz-adv-x="994" 
d="M305 515l247 -399h-167l-288 390v19l288 390h167zM640 515l247 -399h-167l-288 390v19l288 390h167z" />
    <glyph glyph-name="logicalnot" unicode="&#xac;" horiz-adv-x="1133" 
d="M962 374h-200v260h-635v171h835v-431z" />
    <glyph glyph-name="uni00AD" unicode="&#xad;" horiz-adv-x="910" 
d="M748 521h-590v196h590v-196z" />
    <glyph glyph-name="registered" unicode="&#xae;" horiz-adv-x="1604" 
d="M87 729c0 210 69 387 207 531s305.667 216 503 216c196.667 0 364 -72 502 -216s207 -321 207 -531c0 -210.667 -69.167 -388.334 -207.5 -533.001s-305.5 -217 -501.5 -217c-197.333 0 -365 72.333 -503 217s-207 322.334 -207 533.001zM209 729
c0 -176 57.168 -324.167 171.501 -444.5s253.166 -180.5 416.499 -180.5c162.667 0 301.167 60.167 415.5 180.5s171.5 268.5 171.5 444.5c0 175.333 -57.167 322.833 -171.5 442.5s-252.833 179.5 -415.5 179.5c-164 0 -303 -59.833 -417 -179.5s-171 -267.167 -171 -442.5
zM653.001 653v-337h-151v850h281c100.667 0 180 -22.167 238 -66.5s87 -108.833 87 -193.5c0 -39.333 -10.167 -74 -30.5 -104s-50.166 -55.333 -89.499 -76c41.333 -18.667 71.166 -46 89.499 -82s27.5 -79 27.5 -129v-56c0 -27.333 1.16699 -51.833 3.5 -73.5
s6.83301 -39.5 13.5 -53.5v-16h-155c-6 14 -9.66699 34.5 -11 61.5s-2 54.5 -2 82.5v54c0 47.333 -11.167 82.333 -33.5 105s-58.833 34 -109.5 34h-158zM653.001 787h143.001c45.333 0 83.666 10.167 114.999 30.5s47 48.833 47 85.5c0 48 -13 81.667 -39 101
s-71.333 29 -136 29h-130v-246z" />
    <glyph glyph-name="macron" unicode="&#xaf;" horiz-adv-x="987" 
d="M862 1298h-727v158h727v-158z" />
    <glyph glyph-name="macron" unicode="&#x2c9;" horiz-adv-x="987" 
d="M862 1298h-727v158h727v-158z" />
    <glyph glyph-name="degree" unicode="&#xb0;" horiz-adv-x="778" 
d="M127 1208c0 73.333 25.833 136.5 77.5 189.5s113.834 79.5 186.501 79.5c71.333 0 132.5 -26.5 183.5 -79.5s76.5 -116.167 76.5 -189.5s-25.5 -135.666 -76.5 -186.999s-112.167 -77 -183.5 -77c-72.667 0 -134.834 25.667 -186.501 77s-77.5 113.666 -77.5 186.999z
M266 1208c0 -35.333 12.167 -64.833 36.5 -88.5s53.833 -35.5 88.5 -35.5c34 0 62.833 11.667 86.5 35s35.5 53 35.5 89s-11.833 66.333 -35.5 91s-52.5 37 -86.5 37c-34.667 0 -64.167 -12.333 -88.5 -37s-36.5 -55 -36.5 -91z" />
    <glyph glyph-name="plusminus" unicode="&#xb1;" horiz-adv-x="1099" 
d="M668 906h343v-199h-343v-395h-215v395h-358v199h358v384h215v-384zM961 -23h-835v196h835v-196z" />
    <glyph glyph-name="twosuperior" unicode="&#xb2;" horiz-adv-x="865" 
d="M725 667l-607.001 0.000976562v145l305 256c42.667 36 70.667 65.667 84 89s20 48.666 20 75.999c0 29.333 -8.5 53.333 -25.5 72s-43.5 28 -79.5 28c-40.667 0 -71.667 -10 -93 -30s-32 -46 -32 -78h-181l-2 6c-4 68.667 22.667 127.167 80 175.5s134.333 72.5 231 72.5
c92.667 0 164.834 -21.667 216.501 -65s77.5 -104 77.5 -182c0 -54 -16.167 -100.667 -48.5 -140s-88.5 -94 -168.5 -164l-129 -110l2 -6h350v-145z" />
    <glyph glyph-name="threesuperior" unicode="&#xb3;" horiz-adv-x="867" 
d="M417 1139c43.333 0 75.1689 8.83496 95.502 26.502s30.5 42.5 30.5 74.5c0 26 -10.833 47.833 -32.5 65.5s-53.167 26.5 -94.5 26.5c-35.333 0 -63.5 -7.33301 -84.5 -22s-31.5 -33.334 -31.5 -56.001h-181l-2 6c-4 65.333 22.667 118 80 158s129.333 60 216 60
c99.333 0 177.666 -19.833 234.999 -59.5s86 -96.167 86 -169.5c0 -36.667 -11.833 -70.167 -35.5 -100.5s-55.834 -53.833 -96.501 -70.5c46.667 -16 82.5 -39.833 107.5 -71.5s37.5 -70.167 37.5 -115.5c0 -74.667 -30 -132.667 -90 -174s-139.667 -62 -239 -62
c-90 0 -165.833 20.167 -227.5 60.5s-90.5 97.833 -86.5 172.5l2 6h181c0 -28.667 11.5 -51.5 34.5 -68.5s54.833 -25.5 95.5 -25.5c42.667 0 76.667 8.66699 102 26s38 41 38 71c0 37.333 -11.833 65.166 -35.5 83.499s-58.5 27.5 -104.5 27.5h-123v131h123z" />
    <glyph glyph-name="acute" unicode="&#xb4;" horiz-adv-x="689" 
d="M315 1518h275l2 -6l-273 -260h-195z" />
    <glyph glyph-name="mu" unicode="&#xb5;" horiz-adv-x="1211" 
d="M388 1082v-620c0 -111.333 16.667 -187 50 -227s82.333 -60 147 -60c58 0 105.5 10.167 142.5 30.5s65.167 50.5 84.5 90.5v786h243v-1082h-223l-7 86c-30 -35.333 -64.833 -62 -104.5 -80s-84.5 -27 -134.5 -27c-40.667 0 -77.5 4.5 -110.5 13.5
s-62.167 22.833 -87.5 41.5v-450h-242v1498h242z" />
    <glyph glyph-name="paragraph" unicode="&#xb6;" horiz-adv-x="1040" 
d="M637 0v520.001h-83c-155.333 0 -276.166 43.167 -362.499 129.5s-129.5 199.166 -129.5 338.499c0 138 43.167 250.5 129.5 337.5s207.166 130.5 362.499 130.5h326v-1456h-243z" />
    <glyph glyph-name="periodcentered" unicode="&#xb7;" horiz-adv-x="578" 
d="M402 594h-242v240h242v-240z" />
    <glyph glyph-name="cedilla" unicode="&#xb8;" horiz-adv-x="528" 
d="M318 3l-11 -54.002c42.667 -7.33301 78.334 -24.666 107.001 -51.999s43 -67.666 43 -120.999c0 -68 -28.333 -122.167 -85 -162.5s-137.334 -60.5 -242.001 -60.5l-7 137c41.333 0 74.5 7.33301 99.5 22s37.5 37 37.5 67c0 29.333 -11.5 50 -34.5 62
s-61.833 19.667 -116.5 23l32 139h177z" />
    <glyph glyph-name="onesuperior" unicode="&#xb9;" horiz-adv-x="565" 
d="M406 665h-192v639h-127v150l319 23v-812z" />
    <glyph glyph-name="ordmasculine" unicode="&#xba;" horiz-adv-x="935" 
d="M119 1142c0 98.667 31.334 179.167 94.001 241.5s146.667 93.5 252 93.5s189.5 -31.167 252.5 -93.5s94.5 -142.833 94.5 -241.5v-117c0 -99.333 -31.333 -179.833 -94 -241.5s-146.334 -92.5 -251.001 -92.5c-106 0 -190.5 30.833 -253.5 92.5
s-94.5 142.167 -94.5 241.5v117zM294.001 1025c0 -56.667 14.667 -102.167 44 -136.5s72.333 -51.5 129 -51.5c54.667 0 96.667 17.167 126 51.5s44 79.833 44 136.5v117c0 55.333 -14.833 100.333 -44.5 135s-72.167 52 -127.5 52c-56 0 -98.5 -17.333 -127.5 -52
s-43.5 -79.667 -43.5 -135v-117z" />
    <glyph glyph-name="guillemotright" unicode="&#xbb;" horiz-adv-x="994" 
d="M353 550l-247 400h167l288 -390v-19l-288 -390h-167zM699 550l-247 400h167l288 -390v-19l-288 -390h-167z" />
    <glyph glyph-name="onequarter" unicode="&#xbc;" horiz-adv-x="1548" 
d="M495 664h-192v639h-127v150l319 23v-812zM450 117l-125 72l711 1138l125 -72zM1389 290h114v-145h-114v-145h-191v145h-413l-10 116l422 540h192v-511zM977 295l3 -5h218v277l-6 2l-12 -20z" />
    <glyph glyph-name="onehalf" unicode="&#xbd;" horiz-adv-x="1638" 
d="M463 117l-125 72l711 1138l125 -72zM495 664h-192v639h-127v150l319 23v-812zM1536 0l-607.001 0.000976562v145l305 256c42.667 36 70.667 65.667 84 89s20 48.666 20 75.999c0 29.333 -8.5 53.333 -25.5 72s-43.5 28 -79.5 28c-40.667 0 -71.667 -10 -93 -30
s-32 -46 -32 -78h-181l-2 6c-4 68.667 22.667 127.167 80 175.5s134.333 72.5 231 72.5c92.667 0 164.834 -21.667 216.501 -65s77.5 -104 77.5 -182c0 -54 -16.167 -100.667 -48.5 -140s-88.5 -94 -168.5 -164l-129 -110l2 -6h350v-145z" />
    <glyph glyph-name="threequarters" unicode="&#xbe;" horiz-adv-x="1753" 
d="M633 117l-125 72l711 1138l125 -72zM1578 290h114v-145h-114v-145h-191v145h-413l-10 116l422 540h192v-511zM1166 295l3 -5h218v277l-6 2l-12 -20zM433 1140c43.333 0 75.1689 8.83496 95.502 26.502s30.5 42.5 30.5 74.5c0 26 -10.833 47.833 -32.5 65.5
s-53.167 26.5 -94.5 26.5c-35.333 0 -63.5 -7.33301 -84.5 -22s-31.5 -33.334 -31.5 -56.001h-181l-2 6c-4 65.333 22.667 118 80 158s129.333 60 216 60c99.333 0 177.666 -19.833 234.999 -59.5s86 -96.167 86 -169.5c0 -36.667 -11.833 -70.167 -35.5 -100.5
s-55.834 -53.833 -96.501 -70.5c46.667 -16 82.5 -39.833 107.5 -71.5s37.5 -70.167 37.5 -115.5c0 -74.667 -30 -132.667 -90 -174s-139.667 -62 -239 -62c-90 0 -165.833 20.167 -227.5 60.5s-90.5 97.833 -86.5 172.5l2 6h181c0 -28.667 11.5 -51.5 34.5 -68.5
s54.833 -25.5 95.5 -25.5c42.667 0 76.667 8.66699 102 26s38 41 38 71c0 37.333 -11.833 65.166 -35.5 83.499s-58.5 27.5 -104.5 27.5h-123v131h123z" />
    <glyph glyph-name="questiondown" unicode="&#xbf;" horiz-adv-x="1025" 
d="M684 669c-1.33301 -96 -12.499 -164.33 -33.499 -204.997s-68.167 -91.667 -141.5 -153c-53.333 -52.667 -95 -101.834 -125 -147.501s-45 -96.167 -45 -151.5c0 -64.667 17.333 -114.834 52 -150.501s85 -53.5 151 -53.5c54 0 100.333 15.333 139 46
s58.667 75.667 60 135h234l3 -6c0.666992 -118.667 -39.833 -211.167 -121.5 -277.5s-186.5 -99.5 -314.5 -99.5c-140.667 0 -250.167 35.667 -328.5 107s-117.5 169.666 -117.5 294.999c0 84.667 24.333 163.167 73 235.5s110.667 138.5 186 198.5
c37.333 32.667 61.166 64.167 71.499 94.5s15.5 74.5 15.5 132.5h242zM438.001 1082h248v-233h-248v233z" />
    <glyph glyph-name="Agrave" unicode="&#xc0;" horiz-adv-x="1300" 
d="M911 340h-516l-112 -340h-251l508 1456h231l502 -1456h-251zM462 543h383l-187 574h-6zM761 1600h-202l-260 260l2 6h276z" />
    <glyph glyph-name="Aacute" unicode="&#xc1;" horiz-adv-x="1300" 
d="M911 340h-516l-112 -340h-251l508 1456h231l502 -1456h-251zM462 543h383l-187 574h-6zM728 1865h275l2 -6l-273 -260h-195z" />
    <glyph glyph-name="Acircumflex" unicode="&#xc2;" horiz-adv-x="1300" 
d="M911 340h-516l-112 -340h-251l508 1456h231l502 -1456h-251zM462 543h383l-187 574h-6zM989 1621v-24h-195l-143 139l-142 -139h-193v26l264 240h143z" />
    <glyph glyph-name="Atilde" unicode="&#xc3;" horiz-adv-x="1300" 
d="M911 340h-516l-112 -340h-251l508 1456h231l502 -1456h-251zM462 543h383l-187 574h-6zM1012 1852c0 -63.333 -20.001 -117.333 -60.001 -162s-90 -67 -150 -67c-47.333 0 -98.5 14.833 -153.5 44.5s-99.5 44.5 -133.5 44.5c-26 0 -48 -10.833 -66 -32.5
s-27 -47.5 -27 -77.5l-131 35c0 62.667 19.833 117.167 59.5 163.5s89.5 69.5 149.5 69.5c37.333 0 85.833 -14.833 145.5 -44.5s106.834 -44.5 141.501 -44.5c25.333 0 47.333 10.667 66 32s28 47.333 28 78z" />
    <glyph glyph-name="Adieresis" unicode="&#xc4;" horiz-adv-x="1300" 
d="M911 340h-516l-112 -340h-251l508 1456h231l502 -1456h-251zM462 543h383l-187 574h-6zM1014 1601h-242v204h242v-204zM530 1601h-241v204h241v-204z" />
    <glyph glyph-name="Aring" unicode="&#xc5;" horiz-adv-x="1300" 
d="M911 340h-516l-112 -340h-251l508 1456h231l502 -1456h-251zM462 543h383l-187 574h-6zM470 1740c0 48.667 17.667 89.5 53 122.5s78.333 49.5 129 49.5c49.333 0 91.333 -16.5 126 -49.5s52 -73.833 52 -122.5c0 -49.333 -17.167 -89.5 -51.5 -120.5
s-76.5 -46.5 -126.5 -46.5c-51.333 0 -94.5 15.667 -129.5 47s-52.5 71.333 -52.5 120zM578 1740c0 -20.667 7.16699 -37.834 21.5 -51.501s31.833 -20.5 52.5 -20.5c19.333 0 35.833 6.83301 49.5 20.5s20.5 30.834 20.5 51.501c0 21.333 -6.66699 39.333 -20 54
s-30 22 -50 22c-21.333 0 -39 -7.33301 -53 -22s-21 -32.667 -21 -54z" />
    <glyph glyph-name="AE" unicode="&#xc6;" horiz-adv-x="1976" 
d="M1902 0h-897l-15 340h-503l-184 -340h-290l835 1456h993v-197h-647l17 -408h549v-197h-541l20 -458h663v-196zM603 555h378l-27 638l-5 1z" />
    <glyph glyph-name="Ccedilla" unicode="&#xc7;" horiz-adv-x="1300" 
d="M1217 476l2.00195 -6.00098c2.66699 -146.667 -45 -265.167 -143 -355.5s-230.333 -135.5 -397 -135.5c-169.333 0 -306.666 57.167 -411.999 171.5s-158 260.5 -158 438.5v277c0 177.333 52 323.5 156 438.5s239.667 172.5 407 172.5
c171.333 0 306.166 -43.667 404.499 -131s146.166 -207 143.499 -359l-2 -6h-235c0 97.333 -26.333 171.833 -79 223.5s-130 77.5 -232 77.5c-98.667 0 -176.834 -39.167 -234.501 -117.5s-86.5 -177.166 -86.5 -296.499v-279c0 -120.667 29.333 -220.167 88 -298.5
s138.667 -117.5 240 -117.5c99.333 0 174.833 26 226.5 78s77.5 127 77.5 225h234zM766.002 -2.00098l-11 -54.002c42.667 -7.33301 78.334 -24.666 107.001 -51.999s43 -67.666 43 -120.999c0 -68 -28.333 -122.167 -85 -162.5s-137.334 -60.5 -242.001 -60.5l-7 137
c41.333 0 74.5 7.33301 99.5 22s37.5 37 37.5 67c0 29.333 -11.5 50 -34.5 62s-61.833 19.667 -116.5 23l32 139h177z" />
    <glyph glyph-name="Egrave" unicode="&#xc8;" horiz-adv-x="1134" 
d="M966 655h-570v-461h672v-194h-915v1456h908v-195h-665v-411h570v-195zM720 1600h-202l-260 260l2 6h276z" />
    <glyph glyph-name="Eacute" unicode="&#xc9;" horiz-adv-x="1134" 
d="M966 655h-570v-461h672v-194h-915v1456h908v-195h-665v-411h570v-195zM687 1865h275l2 -6l-273 -260h-195z" />
    <glyph glyph-name="Ecircumflex" unicode="&#xca;" horiz-adv-x="1134" 
d="M966 655h-570v-461h672v-194h-915v1456h908v-195h-665v-411h570v-195zM948 1621v-24h-195l-143 139l-142 -139h-193v26l264 240h143z" />
    <glyph glyph-name="Edieresis" unicode="&#xcb;" horiz-adv-x="1134" 
d="M966 655h-570v-461h672v-194h-915v1456h908v-195h-665v-411h570v-195zM973 1601h-242v204h242v-204zM489 1601h-241v204h241v-204z" />
    <glyph glyph-name="Igrave" unicode="&#xcc;" horiz-adv-x="589" 
d="M416 0h-243v1456h243v-1456zM405 1600h-202l-260 260l2 6h276z" />
    <glyph glyph-name="Iacute" unicode="&#xcd;" horiz-adv-x="589" 
d="M416 0h-243v1456h243v-1456zM371 1865h275l2 -6l-273 -260h-195z" />
    <glyph glyph-name="Icircumflex" unicode="&#xce;" horiz-adv-x="589" 
d="M416 0h-243v1456h243v-1456zM633 1621v-24h-195l-143 139l-142 -139h-193v26l264 240h143z" />
    <glyph glyph-name="Idieresis" unicode="&#xcf;" horiz-adv-x="589" 
d="M416 0h-243v1456h243v-1456zM658 1601h-242v204h242v-204zM174 1601h-241v204h241v-204z" />
    <glyph glyph-name="Eth" unicode="&#xd0;" horiz-adv-x="1372" 
d="M153 0v656.999h-154v170h154v629h481c184.667 0 334.834 -57.667 450.501 -173s173.5 -263.666 173.5 -444.999v-221c0 -182 -57.833 -330.333 -173.5 -445s-265.834 -172 -450.501 -172h-481zM654 656.999h-258v-463h238c116.667 0 209.334 39.5 278.001 118.5
s103 180.5 103 304.5v223c0 122.667 -34.333 223.5 -103 302.5s-161.334 118.5 -278.001 118.5h-238v-434h258v-170z" />
    <glyph glyph-name="Ntilde" unicode="&#xd1;" horiz-adv-x="1443" 
d="M1290 0h-243l-645 1049l-6 -2v-1047h-243v1456h243l645 -1049l6 2v1047h243v-1456zM1081 1852c0 -63.333 -20.001 -117.333 -60.001 -162s-90 -67 -150 -67c-47.333 0 -98.5 14.833 -153.5 44.5s-99.5 44.5 -133.5 44.5c-26 0 -48 -10.833 -66 -32.5s-27 -47.5 -27 -77.5
l-131 35c0 62.667 19.833 117.167 59.5 163.5s89.5 69.5 149.5 69.5c37.333 0 85.833 -14.833 145.5 -44.5s106.834 -44.5 141.501 -44.5c25.333 0 47.333 10.667 66 32s28 47.333 28 78z" />
    <glyph glyph-name="Ograve" unicode="&#xd2;" horiz-adv-x="1402" 
d="M1297 597c0 -178 -55.832 -325.5 -167.499 -442.5s-256.834 -175.5 -435.501 -175.5c-174 0 -315.667 58.5 -425 175.5s-164 264.5 -164 442.5v262c0 177.333 54.5 324.666 163.5 441.999s250.833 176 425.5 176c178 0 323 -58.667 435 -176s168 -264.666 168 -441.999
v-262zM1054 861c0 121.333 -32.3311 221 -96.998 299s-152.334 117 -263.001 117c-107.333 0 -191.833 -39 -253.5 -117s-92.5 -177.667 -92.5 -299v-264c0 -122.667 31 -223.167 93 -301.5s146.333 -117.5 253 -117.5c111.333 0 199.166 39 263.499 117
s96.5 178.667 96.5 302v264zM811.003 1621h-202l-260 260l2 6h276z" />
    <glyph glyph-name="Oacute" unicode="&#xd3;" horiz-adv-x="1402" 
d="M1297 597c0 -178 -55.832 -325.5 -167.499 -442.5s-256.834 -175.5 -435.501 -175.5c-174 0 -315.667 58.5 -425 175.5s-164 264.5 -164 442.5v262c0 177.333 54.5 324.666 163.5 441.999s250.833 176 425.5 176c178 0 323 -58.667 435 -176s168 -264.666 168 -441.999
v-262zM1054 861c0 121.333 -32.3311 221 -96.998 299s-152.334 117 -263.001 117c-107.333 0 -191.833 -39 -253.5 -117s-92.5 -177.667 -92.5 -299v-264c0 -122.667 31 -223.167 93 -301.5s146.333 -117.5 253 -117.5c111.333 0 199.166 39 263.499 117
s96.5 178.667 96.5 302v264zM778.003 1886h275l2 -6l-273 -260h-195z" />
    <glyph glyph-name="Ocircumflex" unicode="&#xd4;" horiz-adv-x="1402" 
d="M1297 597c0 -178 -55.832 -325.5 -167.499 -442.5s-256.834 -175.5 -435.501 -175.5c-174 0 -315.667 58.5 -425 175.5s-164 264.5 -164 442.5v262c0 177.333 54.5 324.666 163.5 441.999s250.833 176 425.5 176c178 0 323 -58.667 435 -176s168 -264.666 168 -441.999
v-262zM1054 861c0 121.333 -32.3311 221 -96.998 299s-152.334 117 -263.001 117c-107.333 0 -191.833 -39 -253.5 -117s-92.5 -177.667 -92.5 -299v-264c0 -122.667 31 -223.167 93 -301.5s146.333 -117.5 253 -117.5c111.333 0 199.166 39 263.499 117
s96.5 178.667 96.5 302v264zM1039 1642v-24h-195l-143 139l-142 -139h-193v26l264 240h143z" />
    <glyph glyph-name="Otilde" unicode="&#xd5;" horiz-adv-x="1402" 
d="M1297 597c0 -178 -55.832 -325.5 -167.499 -442.5s-256.834 -175.5 -435.501 -175.5c-174 0 -315.667 58.5 -425 175.5s-164 264.5 -164 442.5v262c0 177.333 54.5 324.666 163.5 441.999s250.833 176 425.5 176c178 0 323 -58.667 435 -176s168 -264.666 168 -441.999
v-262zM1054 861c0 121.333 -32.3311 221 -96.998 299s-152.334 117 -263.001 117c-107.333 0 -191.833 -39 -253.5 -117s-92.5 -177.667 -92.5 -299v-264c0 -122.667 31 -223.167 93 -301.5s146.333 -117.5 253 -117.5c111.333 0 199.166 39 263.499 117
s96.5 178.667 96.5 302v264zM1062 1873c0 -63.333 -20.001 -117.333 -60.001 -162s-90 -67 -150 -67c-47.333 0 -98.5 14.833 -153.5 44.5s-99.5 44.5 -133.5 44.5c-26 0 -48 -10.833 -66 -32.5s-27 -47.5 -27 -77.5l-131 35c0 62.667 19.833 117.167 59.5 163.5
s89.5 69.5 149.5 69.5c37.333 0 85.833 -14.833 145.5 -44.5s106.834 -44.5 141.501 -44.5c25.333 0 47.333 10.667 66 32s28 47.333 28 78z" />
    <glyph glyph-name="Odieresis" unicode="&#xd6;" horiz-adv-x="1402" 
d="M1297 597c0 -178 -55.832 -325.5 -167.499 -442.5s-256.834 -175.5 -435.501 -175.5c-174 0 -315.667 58.5 -425 175.5s-164 264.5 -164 442.5v262c0 177.333 54.5 324.666 163.5 441.999s250.833 176 425.5 176c178 0 323 -58.667 435 -176s168 -264.666 168 -441.999
v-262zM1054 861c0 121.333 -32.3311 221 -96.998 299s-152.334 117 -263.001 117c-107.333 0 -191.833 -39 -253.5 -117s-92.5 -177.667 -92.5 -299v-264c0 -122.667 31 -223.167 93 -301.5s146.333 -117.5 253 -117.5c111.333 0 199.166 39 263.499 117
s96.5 178.667 96.5 302v264zM1064 1622h-242v204h242v-204zM580.003 1622h-241v204h241v-204z" />
    <glyph glyph-name="multiply" unicode="&#xd7;" horiz-adv-x="1092" 
d="M77 364l316 322l-316 322l148 150l315 -322l316 322l148 -150l-316 -322l316 -322l-148 -150l-316 321l-315 -321z" />
    <glyph glyph-name="Oslash" unicode="&#xd8;" horiz-adv-x="1403" 
d="M1297 597c0 -178 -55.835 -325.499 -167.502 -442.499s-256.834 -175.5 -435.501 -175.5c-55.333 0 -107.666 6.16699 -156.999 18.5s-95 30.5 -137 54.5l-86 -147h-148l131 222c-61.333 56 -108.666 124.5 -141.999 205.5s-50 169.167 -50 264.5v262
c0 177.333 54.5 324.666 163.5 441.999s250.833 176 425.5 176c64 0 124.5 -8.33301 181.5 -25s109.5 -40.667 157.5 -72l81 138h148l-130 -220c52.667 -56 93.334 -121.667 122.001 -197s43 -156 43 -242v-262zM347.998 597.001c0 -51.333 5.66797 -99.333 17.001 -144
s27.666 -83 48.999 -115l6 -1l504 857c-30 26.667 -64.5 47.167 -103.5 61.5s-81.167 21.5 -126.5 21.5c-107.333 0 -191.833 -39 -253.5 -117s-92.5 -177.667 -92.5 -299v-264zM1054 861.001c0 41.333 -3.99805 80.332 -11.998 116.999s-19 69.334 -33 98.001l-6 1
l-496 -843c25.333 -18.667 53.666 -32.667 84.999 -42s65.333 -14 102 -14c111.333 0 199.166 39 263.499 117s96.5 178.667 96.5 302v264z" />
    <glyph glyph-name="Ugrave" unicode="&#xd9;" horiz-adv-x="1396" 
d="M1265 1456v-959c0 -162 -53.167 -288.833 -159.5 -380.5s-243.5 -137.5 -411.5 -137.5c-165.333 0 -300 45.833 -404 137.5s-156 218.5 -156 380.5v959h243v-959c0 -103.333 29 -183.166 87 -239.499s134.667 -84.5 230 -84.5c98.667 0 178 28.167 238 84.5
s90 136.166 90 239.499v959h243zM810 1600h-202l-260 260l2 6h276z" />
    <glyph glyph-name="Uacute" unicode="&#xda;" horiz-adv-x="1396" 
d="M1265 1456v-959c0 -162 -53.167 -288.833 -159.5 -380.5s-243.5 -137.5 -411.5 -137.5c-165.333 0 -300 45.833 -404 137.5s-156 218.5 -156 380.5v959h243v-959c0 -103.333 29 -183.166 87 -239.499s134.667 -84.5 230 -84.5c98.667 0 178 28.167 238 84.5
s90 136.166 90 239.499v959h243zM777 1865h275l2 -6l-273 -260h-195z" />
    <glyph glyph-name="Ucircumflex" unicode="&#xdb;" horiz-adv-x="1396" 
d="M1265 1456v-959c0 -162 -53.167 -288.833 -159.5 -380.5s-243.5 -137.5 -411.5 -137.5c-165.333 0 -300 45.833 -404 137.5s-156 218.5 -156 380.5v959h243v-959c0 -103.333 29 -183.166 87 -239.499s134.667 -84.5 230 -84.5c98.667 0 178 28.167 238 84.5
s90 136.166 90 239.499v959h243zM1038 1621v-24h-195l-143 139l-142 -139h-193v26l264 240h143z" />
    <glyph glyph-name="Udieresis" unicode="&#xdc;" horiz-adv-x="1396" 
d="M1265 1456v-959c0 -162 -53.167 -288.833 -159.5 -380.5s-243.5 -137.5 -411.5 -137.5c-165.333 0 -300 45.833 -404 137.5s-156 218.5 -156 380.5v959h243v-959c0 -103.333 29 -183.166 87 -239.499s134.667 -84.5 230 -84.5c98.667 0 178 28.167 238 84.5
s90 136.166 90 239.499v959h243zM1063 1601h-242v204h242v-204zM579 1601h-241v204h241v-204z" />
    <glyph glyph-name="Yacute" unicode="&#xdd;" horiz-adv-x="1300" 
d="M648 748l351 708h271l-505 -947v-509h-242v524l-497 932h271zM728 1865h275l2 -6l-273 -260h-195z" />
    <glyph glyph-name="Thorn" unicode="&#xde;" horiz-adv-x="1226" 
d="M391 1456v-279.999h246c161.333 0 287.166 -40.5 377.499 -121.5s135.5 -186.5 135.5 -316.5c0 -130.667 -45.167 -236.334 -135.5 -317.001s-216.166 -121 -377.499 -121h-246v-300h-243v1456h243zM391 981.001v-486h246c90 0 157.5 23.167 202.5 69.5
s67.5 103.5 67.5 171.5c0 69.333 -22.5 127.5 -67.5 174.5s-112.5 70.5 -202.5 70.5h-246z" />
    <glyph glyph-name="germandbls" unicode="&#xdf;" horiz-adv-x="1255" 
d="M378 0l-242.001 0.00195312v1093c0 149.333 41 265.666 123 348.999s190.333 125 325 125c113.333 0 206.5 -30.5 279.5 -91.5s109.5 -149.167 109.5 -264.5c0 -75.333 -19.667 -147.5 -59 -216.5s-59 -124.167 -59 -165.5c0 -45.333 54 -115.333 162 -210
s162 -188 162 -280c0 -120 -36.333 -210 -109 -270s-174.667 -90 -306 -90c-54.667 0 -110.167 5.66699 -166.5 17s-97.166 26.333 -122.499 45l49 197c27.333 -16.667 61.5 -31.667 102.5 -45s82.167 -20 123.5 -20c62 0 108.667 13.833 140 41.5s47 65.167 47 112.5
c0 50.667 -54.167 122.167 -162.5 214.5s-162.5 186.833 -162.5 283.5c0 56.667 21 120 63 190s63 130 63 180c0 53.333 -15.833 96.166 -47.5 128.499s-68.5 48.5 -110.5 48.5c-60.667 0 -109.5 -24.667 -146.5 -74s-55.5 -118.333 -55.5 -207v-1091z" />
    <glyph glyph-name="agrave" unicode="&#xe0;" horiz-adv-x="1114" 
d="M780 0c-8.66699 27.333 -15.832 54 -21.499 80s-9.5 52 -11.5 78c-32.667 -50.667 -76.334 -93.167 -131.001 -127.5s-115.667 -51.5 -183 -51.5c-112.667 0 -199.167 29 -259.5 87s-90.5 137.667 -90.5 239c0 104.667 41.333 186.167 124 244.5s199 87.5 349 87.5h189
v95c0 56.667 -16.5 101 -49.5 133s-80.833 48 -143.5 48c-55.333 0 -99.333 -13.167 -132 -39.5s-49 -60.5 -49 -102.5l-234 -1l-1 6c-4.66699 85.333 33.5 161 114.5 227s186.5 99 316.5 99c126 0 227.667 -32 305 -96s116 -156 116 -276v-481c0 -44.667 3 -87.5 9 -128.5
s15.667 -81.167 29 -120.5h-246zM483.002 174c60.667 0 115.5 15.332 164.5 45.999s81.5 65.667 97.5 105v160h-193c-70.667 0 -126 -17.5 -166 -52.5s-60 -76.167 -60 -123.5c0 -41.333 13.5 -74.166 40.5 -98.499s65.833 -36.5 116.5 -36.5zM661.002 1278h-202l-260 260
l2 6h276z" />
    <glyph glyph-name="aacute" unicode="&#xe1;" horiz-adv-x="1114" 
d="M780 0c-8.66699 27.333 -15.832 54 -21.499 80s-9.5 52 -11.5 78c-32.667 -50.667 -76.334 -93.167 -131.001 -127.5s-115.667 -51.5 -183 -51.5c-112.667 0 -199.167 29 -259.5 87s-90.5 137.667 -90.5 239c0 104.667 41.333 186.167 124 244.5s199 87.5 349 87.5h189
v95c0 56.667 -16.5 101 -49.5 133s-80.833 48 -143.5 48c-55.333 0 -99.333 -13.167 -132 -39.5s-49 -60.5 -49 -102.5l-234 -1l-1 6c-4.66699 85.333 33.5 161 114.5 227s186.5 99 316.5 99c126 0 227.667 -32 305 -96s116 -156 116 -276v-481c0 -44.667 3 -87.5 9 -128.5
s15.667 -81.167 29 -120.5h-246zM483.002 174c60.667 0 115.5 15.332 164.5 45.999s81.5 65.667 97.5 105v160h-193c-70.667 0 -126 -17.5 -166 -52.5s-60 -76.167 -60 -123.5c0 -41.333 13.5 -74.166 40.5 -98.499s65.833 -36.5 116.5 -36.5zM628.002 1543h275l2 -6
l-273 -260h-195z" />
    <glyph glyph-name="acircumflex" unicode="&#xe2;" horiz-adv-x="1114" 
d="M780 0c-8.66699 27.333 -15.832 54 -21.499 80s-9.5 52 -11.5 78c-32.667 -50.667 -76.334 -93.167 -131.001 -127.5s-115.667 -51.5 -183 -51.5c-112.667 0 -199.167 29 -259.5 87s-90.5 137.667 -90.5 239c0 104.667 41.333 186.167 124 244.5s199 87.5 349 87.5h189
v95c0 56.667 -16.5 101 -49.5 133s-80.833 48 -143.5 48c-55.333 0 -99.333 -13.167 -132 -39.5s-49 -60.5 -49 -102.5l-234 -1l-1 6c-4.66699 85.333 33.5 161 114.5 227s186.5 99 316.5 99c126 0 227.667 -32 305 -96s116 -156 116 -276v-481c0 -44.667 3 -87.5 9 -128.5
s15.667 -81.167 29 -120.5h-246zM483.002 174c60.667 0 115.5 15.332 164.5 45.999s81.5 65.667 97.5 105v160h-193c-70.667 0 -126 -17.5 -166 -52.5s-60 -76.167 -60 -123.5c0 -41.333 13.5 -74.166 40.5 -98.499s65.833 -36.5 116.5 -36.5zM889.002 1299v-24h-195
l-143 139l-142 -139h-193v26l264 240h143z" />
    <glyph glyph-name="atilde" unicode="&#xe3;" horiz-adv-x="1114" 
d="M780 0c-8.66699 27.333 -15.832 54 -21.499 80s-9.5 52 -11.5 78c-32.667 -50.667 -76.334 -93.167 -131.001 -127.5s-115.667 -51.5 -183 -51.5c-112.667 0 -199.167 29 -259.5 87s-90.5 137.667 -90.5 239c0 104.667 41.333 186.167 124 244.5s199 87.5 349 87.5h189
v95c0 56.667 -16.5 101 -49.5 133s-80.833 48 -143.5 48c-55.333 0 -99.333 -13.167 -132 -39.5s-49 -60.5 -49 -102.5l-234 -1l-1 6c-4.66699 85.333 33.5 161 114.5 227s186.5 99 316.5 99c126 0 227.667 -32 305 -96s116 -156 116 -276v-481c0 -44.667 3 -87.5 9 -128.5
s15.667 -81.167 29 -120.5h-246zM483.002 174c60.667 0 115.5 15.332 164.5 45.999s81.5 65.667 97.5 105v160h-193c-70.667 0 -126 -17.5 -166 -52.5s-60 -76.167 -60 -123.5c0 -41.333 13.5 -74.166 40.5 -98.499s65.833 -36.5 116.5 -36.5zM912.002 1530
c0 -63.333 -20.001 -117.333 -60.001 -162s-90 -67 -150 -67c-47.333 0 -98.5 14.833 -153.5 44.5s-99.5 44.5 -133.5 44.5c-26 0 -48 -10.833 -66 -32.5s-27 -47.5 -27 -77.5l-131 35c0 62.667 19.833 117.167 59.5 163.5s89.5 69.5 149.5 69.5
c37.333 0 85.833 -14.833 145.5 -44.5s106.834 -44.5 141.501 -44.5c25.333 0 47.333 10.667 66 32s28 47.333 28 78z" />
    <glyph glyph-name="adieresis" unicode="&#xe4;" horiz-adv-x="1114" 
d="M780 0c-8.66699 27.333 -15.832 54 -21.499 80s-9.5 52 -11.5 78c-32.667 -50.667 -76.334 -93.167 -131.001 -127.5s-115.667 -51.5 -183 -51.5c-112.667 0 -199.167 29 -259.5 87s-90.5 137.667 -90.5 239c0 104.667 41.333 186.167 124 244.5s199 87.5 349 87.5h189
v95c0 56.667 -16.5 101 -49.5 133s-80.833 48 -143.5 48c-55.333 0 -99.333 -13.167 -132 -39.5s-49 -60.5 -49 -102.5l-234 -1l-1 6c-4.66699 85.333 33.5 161 114.5 227s186.5 99 316.5 99c126 0 227.667 -32 305 -96s116 -156 116 -276v-481c0 -44.667 3 -87.5 9 -128.5
s15.667 -81.167 29 -120.5h-246zM483.002 174c60.667 0 115.5 15.332 164.5 45.999s81.5 65.667 97.5 105v160h-193c-70.667 0 -126 -17.5 -166 -52.5s-60 -76.167 -60 -123.5c0 -41.333 13.5 -74.166 40.5 -98.499s65.833 -36.5 116.5 -36.5zM914.002 1279h-242v204h242
v-204zM430.002 1279h-241v204h241v-204z" />
    <glyph glyph-name="aring" unicode="&#xe5;" horiz-adv-x="1114" 
d="M780 0c-8.66699 27.333 -15.832 54 -21.499 80s-9.5 52 -11.5 78c-32.667 -50.667 -76.334 -93.167 -131.001 -127.5s-115.667 -51.5 -183 -51.5c-112.667 0 -199.167 29 -259.5 87s-90.5 137.667 -90.5 239c0 104.667 41.333 186.167 124 244.5s199 87.5 349 87.5h189
v95c0 56.667 -16.5 101 -49.5 133s-80.833 48 -143.5 48c-55.333 0 -99.333 -13.167 -132 -39.5s-49 -60.5 -49 -102.5l-234 -1l-1 6c-4.66699 85.333 33.5 161 114.5 227s186.5 99 316.5 99c126 0 227.667 -32 305 -96s116 -156 116 -276v-481c0 -44.667 3 -87.5 9 -128.5
s15.667 -81.167 29 -120.5h-246zM483.002 174c60.667 0 115.5 15.332 164.5 45.999s81.5 65.667 97.5 105v160h-193c-70.667 0 -126 -17.5 -166 -52.5s-60 -76.167 -60 -123.5c0 -41.333 13.5 -74.166 40.5 -98.499s65.833 -36.5 116.5 -36.5zM370.002 1418
c0 48.667 17.667 89.5 53 122.5s78.333 49.5 129 49.5c49.333 0 91.333 -16.5 126 -49.5s52 -73.833 52 -122.5c0 -49.333 -17.167 -89.5 -51.5 -120.5s-76.5 -46.5 -126.5 -46.5c-51.333 0 -94.5 15.667 -129.5 47s-52.5 71.333 -52.5 120zM478.002 1418
c0 -20.667 7.16699 -37.834 21.5 -51.501s31.833 -20.5 52.5 -20.5c19.333 0 35.833 6.83301 49.5 20.5s20.5 30.834 20.5 51.501c0 21.333 -6.66699 39.333 -20 54s-30 22 -50 22c-21.333 0 -39 -7.33301 -53 -22s-21 -32.667 -21 -54z" />
    <glyph glyph-name="ae" unicode="&#xe6;" horiz-adv-x="1780" 
d="M1286 -21c-88 0 -166.169 14.833 -234.502 44.5s-124.5 72.167 -168.5 127.5c-39.333 -49.333 -94.666 -90.333 -165.999 -123s-156.666 -49 -255.999 -49c-120 0 -212.833 29.833 -278.5 89.5s-98.5 140.834 -98.5 243.501c0 105.333 40.167 186.666 120.5 243.999
s197.5 86 351.5 86h206v71c0 60.667 -15.5 108.167 -46.5 142.5s-75.167 51.5 -132.5 51.5c-62 0 -110.833 -15 -146.5 -45s-53.5 -66.667 -53.5 -110l-233 18l-2 6c-4 94 34.333 171.833 115 233.5s188 92.5 322 92.5c72 0 136.333 -11.167 193 -33.5
s103.667 -54.833 141 -97.5c42 42.667 91 75.167 147 97.5s117.333 33.5 184 33.5c142.667 0 253.334 -43.667 332.001 -131s118 -207 118 -359v-141h-680l-3 -6c2.66699 -87.333 27.334 -157.833 74.001 -211.5s116.667 -80.5 210 -80.5
c65.333 0 118.666 7.66699 159.999 23s89.666 38.333 144.999 69l72 -165c-38 -30.667 -90.5 -58.5 -157.5 -83.5s-145.167 -37.5 -234.5 -37.5zM507.998 164c44.667 0 91.334 12.166 140.001 36.499s86.667 52.833 114 85.5v189h-204
c-72.667 0 -129.334 -16.333 -170.001 -49s-61 -72 -61 -118c0 -43.333 15.167 -78.166 45.5 -104.499s75.5 -39.5 135.5 -39.5zM1250 906.999c-69.333 0 -123.333 -23.833 -162 -71.5s-61.334 -110.5 -68.001 -188.5l2 -5h438v30c0 70 -17.167 126.667 -51.5 170
s-87.166 65 -158.499 65z" />
    <glyph glyph-name="ccedilla" unicode="&#xe7;" horiz-adv-x="1065" 
d="M569 173c55.333 0 102.167 17.334 140.5 52.001s57.5 78.667 57.5 132h220l2 -6c2.66699 -101.333 -37.5 -188.666 -120.5 -261.999s-182.833 -110 -299.5 -110c-156 0 -276.333 51.5 -361 154.5s-127 232.833 -127 389.5v35c0 156 42.333 285.667 127 389
s204.667 155 360 155c126 0 228.333 -37.833 307 -113.5s116.667 -171.834 114 -288.501l-2 -6h-220c0 59.333 -18.333 109.666 -55 150.999s-84.667 62 -144 62c-86.667 0 -149 -33.5 -187 -100.5s-57 -149.833 -57 -248.5v-35c0 -100.667 18.833 -184.167 56.5 -250.5
s100.5 -99.5 188.5 -99.5zM643.001 -1.99902l-11 -54.002c42.667 -7.33301 78.334 -24.666 107.001 -51.999s43 -67.666 43 -120.999c0 -68 -28.333 -122.167 -85 -162.5s-137.334 -60.5 -242.001 -60.5l-7 137c41.333 0 74.5 7.33301 99.5 22s37.5 37 37.5 67
c0 29.333 -11.5 50 -34.5 62s-61.833 19.667 -116.5 23l32 139h177z" />
    <glyph glyph-name="egrave" unicode="&#xe8;" horiz-adv-x="1072" 
d="M587 -21c-158 0 -281.499 49.832 -370.499 149.499s-133.5 228.834 -133.5 387.501v40c0 158.667 44.5 289.5 133.5 392.5s203.833 154.167 344.5 153.5c145.333 0 255.333 -44.833 330 -134.5s112 -209.5 112 -359.5v-131h-669l-2 -5
c2.66699 -88.667 26 -160.667 70 -216s110.333 -83 199 -83c66 0 123.167 8 171.5 24s93.166 39 134.499 69l79 -159c-41.333 -36 -96 -66.333 -164 -91s-146.333 -37 -235 -37zM561.001 906.999c-63.333 0 -114 -22.833 -152 -68.5s-61.667 -105.167 -71 -178.5l2 -5h423
v19c0 69.333 -16.167 125.5 -48.5 168.5s-83.5 64.5 -153.5 64.5zM649.001 1279h-202l-260 260l2 6h276z" />
    <glyph glyph-name="eacute" unicode="&#xe9;" horiz-adv-x="1072" 
d="M587 -21c-158 0 -281.499 49.832 -370.499 149.499s-133.5 228.834 -133.5 387.501v40c0 158.667 44.5 289.5 133.5 392.5s203.833 154.167 344.5 153.5c145.333 0 255.333 -44.833 330 -134.5s112 -209.5 112 -359.5v-131h-669l-2 -5
c2.66699 -88.667 26 -160.667 70 -216s110.333 -83 199 -83c66 0 123.167 8 171.5 24s93.166 39 134.499 69l79 -159c-41.333 -36 -96 -66.333 -164 -91s-146.333 -37 -235 -37zM561.001 906.999c-63.333 0 -114 -22.833 -152 -68.5s-61.667 -105.167 -71 -178.5l2 -5h423
v19c0 69.333 -16.167 125.5 -48.5 168.5s-83.5 64.5 -153.5 64.5zM616.001 1544h275l2 -6l-273 -260h-195z" />
    <glyph glyph-name="ecircumflex" unicode="&#xea;" horiz-adv-x="1072" 
d="M587 -21c-158 0 -281.499 49.832 -370.499 149.499s-133.5 228.834 -133.5 387.501v40c0 158.667 44.5 289.5 133.5 392.5s203.833 154.167 344.5 153.5c145.333 0 255.333 -44.833 330 -134.5s112 -209.5 112 -359.5v-131h-669l-2 -5
c2.66699 -88.667 26 -160.667 70 -216s110.333 -83 199 -83c66 0 123.167 8 171.5 24s93.166 39 134.499 69l79 -159c-41.333 -36 -96 -66.333 -164 -91s-146.333 -37 -235 -37zM561.001 906.999c-63.333 0 -114 -22.833 -152 -68.5s-61.667 -105.167 -71 -178.5l2 -5h423
v19c0 69.333 -16.167 125.5 -48.5 168.5s-83.5 64.5 -153.5 64.5zM877.001 1300v-24h-195l-143 139l-142 -139h-193v26l264 240h143z" />
    <glyph glyph-name="edieresis" unicode="&#xeb;" horiz-adv-x="1072" 
d="M587 -21c-158 0 -281.499 49.832 -370.499 149.499s-133.5 228.834 -133.5 387.501v40c0 158.667 44.5 289.5 133.5 392.5s203.833 154.167 344.5 153.5c145.333 0 255.333 -44.833 330 -134.5s112 -209.5 112 -359.5v-131h-669l-2 -5
c2.66699 -88.667 26 -160.667 70 -216s110.333 -83 199 -83c66 0 123.167 8 171.5 24s93.166 39 134.499 69l79 -159c-41.333 -36 -96 -66.333 -164 -91s-146.333 -37 -235 -37zM561.001 906.999c-63.333 0 -114 -22.833 -152 -68.5s-61.667 -105.167 -71 -178.5l2 -5h423
v19c0 69.333 -16.167 125.5 -48.5 168.5s-83.5 64.5 -153.5 64.5zM902.001 1280h-242v204h242v-204zM418.001 1280h-241v204h241v-204z" />
    <glyph glyph-name="igrave" unicode="&#xec;" horiz-adv-x="538" 
d="M386 0h-243v1082h243v-1082zM376 1257h-202l-260 260l2 6h276z" />
    <glyph glyph-name="iacute" unicode="&#xed;" horiz-adv-x="538" 
d="M386 0h-243v1082h243v-1082zM342 1522h275l2 -6l-273 -260h-195z" />
    <glyph glyph-name="icircumflex" unicode="&#xee;" horiz-adv-x="538" 
d="M386 0h-243v1082h243v-1082zM604 1278v-24h-195l-143 139l-142 -139h-193v26l264 240h143z" />
    <glyph glyph-name="idieresis" unicode="&#xef;" horiz-adv-x="538" 
d="M386 0h-243v1082h243v-1082zM629 1258h-242v204h242v-204zM145 1258h-241v204h241v-204z" />
    <glyph glyph-name="eth" unicode="&#xf0;" horiz-adv-x="1210" 
d="M897 1292c65.333 -70 115.833 -151.001 151.5 -243.001s53.5 -192.333 53.5 -301v-207c0 -165.333 -50 -300.333 -150 -405s-225 -157 -375 -157c-151.333 0 -275.333 46.833 -372 140.5s-145 209.834 -145 348.501c0 150.667 45.5 272.5 136.5 365.5
s210.5 139.5 358.5 139.5c56.667 0 110.167 -10.5 160.5 -31.5s92.833 -48.833 127.5 -83.5l4 5c-8 62.667 -25.667 120.167 -53 172.5s-62.333 98.5 -105 138.5l-268 -150l-78 109l219 123v6c-22 11.333 -45.833 22 -71.5 32s-51.5 19 -77.5 27l75 196
c56 -12.667 109.333 -30.167 160 -52.5s98 -48.833 142 -79.5l207 116l78 -109zM581 172.999c83.333 0 150.499 34.667 201.499 104s76.5 157.333 76.5 264v132c-23.333 32 -59.166 58.667 -107.499 80s-106.833 32 -175.5 32c-84 0 -150.5 -30 -199.5 -90
s-73.5 -135.667 -73.5 -227c0 -80.667 25.167 -150 75.5 -208s117.833 -87 202.5 -87z" />
    <glyph glyph-name="ntilde" unicode="&#xf1;" 
d="M348 1082l14 -156c35.333 55.333 79.833 98.5 133.5 129.5s114.167 46.5 181.5 46.5c112.667 0 200.5 -34.667 263.5 -104s94.5 -177.666 94.5 -324.999v-673h-243v671c0 84 -16.333 143.667 -49 179s-82 53 -148 53c-52 0 -97 -9.83301 -135 -29.5
s-68.333 -46.834 -91 -81.501v-792h-243v1082h222zM938 1530c0 -63.333 -20.001 -117.333 -60.001 -162s-90 -67 -150 -67c-47.333 0 -98.5 14.833 -153.5 44.5s-99.5 44.5 -133.5 44.5c-26 0 -48 -10.833 -66 -32.5s-27 -47.5 -27 -77.5l-131 35
c0 62.667 19.833 117.167 59.5 163.5s89.5 69.5 149.5 69.5c37.333 0 85.833 -14.833 145.5 -44.5s106.834 -44.5 141.501 -44.5c25.333 0 47.333 10.667 66 32s28 47.333 28 78z" />
    <glyph glyph-name="ograve" unicode="&#xf2;" 
d="M83 551c0 161.333 44.1689 293.5 132.502 396.5s209.166 154.5 362.499 154.5c155.333 0 277.166 -51.5 365.499 -154.5s132.5 -235.167 132.5 -396.5v-21c0 -162.667 -44.167 -295.167 -132.5 -397.5s-209.5 -153.5 -363.5 -153.5
c-154.667 0 -276.167 51.333 -364.5 154s-132.5 235 -132.5 397v21zM326.002 530c0 -106 20.668 -191.999 62.001 -257.999s105.333 -99 192 -99c84.667 0 148.167 33.167 190.5 99.5s63.5 152.166 63.5 257.499v21c0 103.333 -21.167 188.5 -63.5 255.5
s-106.5 100.5 -192.5 100.5c-84.667 0 -147.834 -33.5 -189.501 -100.5s-62.5 -152.167 -62.5 -255.5v-21zM689.003 1278h-202l-260 260l2 6h276z" />
    <glyph glyph-name="oacute" unicode="&#xf3;" 
d="M83 551c0 161.333 44.1689 293.5 132.502 396.5s209.166 154.5 362.499 154.5c155.333 0 277.166 -51.5 365.499 -154.5s132.5 -235.167 132.5 -396.5v-21c0 -162.667 -44.167 -295.167 -132.5 -397.5s-209.5 -153.5 -363.5 -153.5
c-154.667 0 -276.167 51.333 -364.5 154s-132.5 235 -132.5 397v21zM326.002 530c0 -106 20.668 -191.999 62.001 -257.999s105.333 -99 192 -99c84.667 0 148.167 33.167 190.5 99.5s63.5 152.166 63.5 257.499v21c0 103.333 -21.167 188.5 -63.5 255.5
s-106.5 100.5 -192.5 100.5c-84.667 0 -147.834 -33.5 -189.501 -100.5s-62.5 -152.167 -62.5 -255.5v-21zM656.003 1543h275l2 -6l-273 -260h-195z" />
    <glyph glyph-name="ocircumflex" unicode="&#xf4;" 
d="M83 551c0 161.333 44.1689 293.5 132.502 396.5s209.166 154.5 362.499 154.5c155.333 0 277.166 -51.5 365.499 -154.5s132.5 -235.167 132.5 -396.5v-21c0 -162.667 -44.167 -295.167 -132.5 -397.5s-209.5 -153.5 -363.5 -153.5
c-154.667 0 -276.167 51.333 -364.5 154s-132.5 235 -132.5 397v21zM326.002 530c0 -106 20.668 -191.999 62.001 -257.999s105.333 -99 192 -99c84.667 0 148.167 33.167 190.5 99.5s63.5 152.166 63.5 257.499v21c0 103.333 -21.167 188.5 -63.5 255.5
s-106.5 100.5 -192.5 100.5c-84.667 0 -147.834 -33.5 -189.501 -100.5s-62.5 -152.167 -62.5 -255.5v-21zM917.003 1299v-24h-195l-143 139l-142 -139h-193v26l264 240h143z" />
    <glyph glyph-name="otilde" unicode="&#xf5;" 
d="M83 551c0 161.333 44.1689 293.5 132.502 396.5s209.166 154.5 362.499 154.5c155.333 0 277.166 -51.5 365.499 -154.5s132.5 -235.167 132.5 -396.5v-21c0 -162.667 -44.167 -295.167 -132.5 -397.5s-209.5 -153.5 -363.5 -153.5
c-154.667 0 -276.167 51.333 -364.5 154s-132.5 235 -132.5 397v21zM326.002 530c0 -106 20.668 -191.999 62.001 -257.999s105.333 -99 192 -99c84.667 0 148.167 33.167 190.5 99.5s63.5 152.166 63.5 257.499v21c0 103.333 -21.167 188.5 -63.5 255.5
s-106.5 100.5 -192.5 100.5c-84.667 0 -147.834 -33.5 -189.501 -100.5s-62.5 -152.167 -62.5 -255.5v-21zM940.003 1530c0 -63.333 -20.001 -117.333 -60.001 -162s-90 -67 -150 -67c-47.333 0 -98.5 14.833 -153.5 44.5s-99.5 44.5 -133.5 44.5
c-26 0 -48 -10.833 -66 -32.5s-27 -47.5 -27 -77.5l-131 35c0 62.667 19.833 117.167 59.5 163.5s89.5 69.5 149.5 69.5c37.333 0 85.833 -14.833 145.5 -44.5s106.834 -44.5 141.501 -44.5c25.333 0 47.333 10.667 66 32s28 47.333 28 78z" />
    <glyph glyph-name="odieresis" unicode="&#xf6;" 
d="M83 551c0 161.333 44.1689 293.5 132.502 396.5s209.166 154.5 362.499 154.5c155.333 0 277.166 -51.5 365.499 -154.5s132.5 -235.167 132.5 -396.5v-21c0 -162.667 -44.167 -295.167 -132.5 -397.5s-209.5 -153.5 -363.5 -153.5
c-154.667 0 -276.167 51.333 -364.5 154s-132.5 235 -132.5 397v21zM326.002 530c0 -106 20.668 -191.999 62.001 -257.999s105.333 -99 192 -99c84.667 0 148.167 33.167 190.5 99.5s63.5 152.166 63.5 257.499v21c0 103.333 -21.167 188.5 -63.5 255.5
s-106.5 100.5 -192.5 100.5c-84.667 0 -147.834 -33.5 -189.501 -100.5s-62.5 -152.167 -62.5 -255.5v-21zM942.003 1279h-242v204h242v-204zM458.003 1279h-241v204h241v-204z" />
    <glyph glyph-name="divide" unicode="&#xf7;" horiz-adv-x="1169" 
d="M1079 582h-1012v212h1012v-212zM696 985h-243v221h243v-221zM696 170h-243v221h243v-221z" />
    <glyph glyph-name="oslash" unicode="&#xf8;" horiz-adv-x="1161" 
d="M83 551c0 161.333 44.167 293.499 132.5 396.499s209.166 154.5 362.499 154.5c35.333 0 69.5 -3.16699 102.5 -9.5s64.5 -15.166 94.5 -26.499l72 146h144l-104 -211c60.667 -49.333 107.334 -112.833 140.001 -190.5s49 -164.167 49 -259.5v-21
c0 -162.667 -44.167 -295.167 -132.5 -397.5s-209.5 -153.5 -363.5 -153.5c-32 0 -63 2.5 -93 7.5s-59 12.167 -87 21.5l-72 -146h-144l102 207c-66 47.333 -116.333 111 -151 191s-52 170 -52 270v21zM326 529.999c0 -52 4.83398 -99.3311 14.501 -141.998
s24.5 -77.334 44.5 -104.001l6 -1l294 600c-16 7.33301 -32.833 13.166 -50.5 17.499s-36.5 6.5 -56.5 6.5c-84.667 0 -147.834 -33.5 -189.501 -100.5s-62.5 -152.167 -62.5 -255.5v-21zM834.001 551.001c0 45.333 -4.33203 87.6689 -12.999 127.002s-21 72.666 -37 99.999
l-6 1l-289 -590c13.333 -5.33301 27.666 -9.33301 42.999 -12s31.333 -4 48 -4c84.667 0 148.167 33.167 190.5 99.5s63.5 152.166 63.5 257.499v21z" />
    <glyph glyph-name="ugrave" unicode="&#xf9;" 
d="M803 160c-33.333 -58 -76.1689 -102.668 -128.502 -134.001s-112.833 -47 -181.5 -47c-116 0 -206.667 38.167 -272 114.5s-98 194.833 -98 355.5v633h242v-635c0 -103.333 15 -174.166 45 -212.499s76.667 -57.5 140 -57.5c58.667 0 107.834 10.5 147.501 31.5
s70.834 51.5 93.501 91.5v782h243v-1082h-209zM687.997 1257h-202l-260 260l2 6h276z" />
    <glyph glyph-name="uacute" unicode="&#xfa;" 
d="M803 160c-33.333 -58 -76.1689 -102.668 -128.502 -134.001s-112.833 -47 -181.5 -47c-116 0 -206.667 38.167 -272 114.5s-98 194.833 -98 355.5v633h242v-635c0 -103.333 15 -174.166 45 -212.499s76.667 -57.5 140 -57.5c58.667 0 107.834 10.5 147.501 31.5
s70.834 51.5 93.501 91.5v782h243v-1082h-209zM654.997 1522h275l2 -6l-273 -260h-195z" />
    <glyph glyph-name="ucircumflex" unicode="&#xfb;" 
d="M803 160c-33.333 -58 -76.1689 -102.668 -128.502 -134.001s-112.833 -47 -181.5 -47c-116 0 -206.667 38.167 -272 114.5s-98 194.833 -98 355.5v633h242v-635c0 -103.333 15 -174.166 45 -212.499s76.667 -57.5 140 -57.5c58.667 0 107.834 10.5 147.501 31.5
s70.834 51.5 93.501 91.5v782h243v-1082h-209zM915.997 1278v-24h-195l-143 139l-142 -139h-193v26l264 240h143z" />
    <glyph glyph-name="udieresis" unicode="&#xfc;" 
d="M803 160c-33.333 -58 -76.1689 -102.668 -128.502 -134.001s-112.833 -47 -181.5 -47c-116 0 -206.667 38.167 -272 114.5s-98 194.833 -98 355.5v633h242v-635c0 -103.333 15 -174.166 45 -212.499s76.667 -57.5 140 -57.5c58.667 0 107.834 10.5 147.501 31.5
s70.834 51.5 93.501 91.5v782h243v-1082h-209zM940.997 1258h-242v204h242v-204zM456.997 1258h-241v204h241v-204z" />
    <glyph glyph-name="yacute" unicode="&#xfd;" horiz-adv-x="1038" 
d="M487 434l24 -108.001h6l237 756h266l-448 -1246c-28.667 -75.333 -69 -139.666 -121 -192.999s-125.667 -80 -221 -80c-20 0 -41.5 2 -64.5 6s-45.167 8.66699 -66.5 14l27 188c8.66699 -0.666992 21 -1.66699 37 -3s28 -2 36 -2c44 0 79.167 15 105.5 45
s47.833 64.667 64.5 104l40 98l-393 1069h265zM595 1522h275l2 -6l-273 -260h-195z" />
    <glyph glyph-name="thorn" unicode="&#xfe;" horiz-adv-x="1175" 
d="M1086 505c0 -157.333 -37 -284.332 -111 -380.999s-177 -145 -309 -145c-61.333 0 -115.666 11 -162.999 33s-88 54.333 -122 97v-525h-243v1976h243v-595c33.333 44 73.5 77.833 120.5 101.5s100.833 35.5 161.5 35.5c133.333 0 237.166 -52.833 311.499 -158.5
s111.5 -244.834 111.5 -417.501v-21zM844 526.001c0 110.667 -20.832 201.168 -62.499 271.501s-103.834 105.5 -186.501 105.5c-50.667 0 -93.667 -10.833 -129 -32.5s-63.666 -51.834 -84.999 -90.501v-489c21.333 -38 49.666 -67.167 84.999 -87.5s79 -30.5 131 -30.5
c82.667 0 144.5 30.5 185.5 91.5s61.5 141.167 61.5 240.5v21z" />
    <glyph glyph-name="ydieresis" unicode="&#xff;" horiz-adv-x="1038" 
d="M487 434l24 -108.001h6l237 756h266l-448 -1246c-28.667 -75.333 -69 -139.666 -121 -192.999s-125.667 -80 -221 -80c-20 0 -41.5 2 -64.5 6s-45.167 8.66699 -66.5 14l27 188c8.66699 -0.666992 21 -1.66699 37 -3s28 -2 36 -2c44 0 79.167 15 105.5 45
s47.833 64.667 64.5 104l40 98l-393 1069h265zM882 1258h-242v204h242v-204zM398 1258h-241v204h241v-204z" />
    <glyph glyph-name="Amacron" unicode="&#x100;" horiz-adv-x="1300" 
d="M911 340h-516l-112 -340h-251l508 1456h231l502 -1456h-251zM462 543h383l-187 574h-6zM1018 1624h-727v158h727v-158z" />
    <glyph glyph-name="amacron" unicode="&#x101;" horiz-adv-x="1114" 
d="M780 0c-8.66699 27.333 -15.832 54 -21.499 80s-9.5 52 -11.5 78c-32.667 -50.667 -76.334 -93.167 -131.001 -127.5s-115.667 -51.5 -183 -51.5c-112.667 0 -199.167 29 -259.5 87s-90.5 137.667 -90.5 239c0 104.667 41.333 186.167 124 244.5s199 87.5 349 87.5h189
v95c0 56.667 -16.5 101 -49.5 133s-80.833 48 -143.5 48c-55.333 0 -99.333 -13.167 -132 -39.5s-49 -60.5 -49 -102.5l-234 -1l-1 6c-4.66699 85.333 33.5 161 114.5 227s186.5 99 316.5 99c126 0 227.667 -32 305 -96s116 -156 116 -276v-481c0 -44.667 3 -87.5 9 -128.5
s15.667 -81.167 29 -120.5h-246zM483.002 174c60.667 0 115.5 15.332 164.5 45.999s81.5 65.667 97.5 105v160h-193c-70.667 0 -126 -17.5 -166 -52.5s-60 -76.167 -60 -123.5c0 -41.333 13.5 -74.166 40.5 -98.499s65.833 -36.5 116.5 -36.5zM918.002 1302h-727v158h727
v-158z" />
    <glyph glyph-name="Abreve" unicode="&#x102;" horiz-adv-x="1300" 
d="M911 340h-516l-112 -340h-251l508 1456h231l502 -1456h-251zM462 543h383l-187 574h-6zM966 1884l3 -6c2.66699 -82 -25 -148.667 -83 -200s-136 -77 -234 -77c-98.667 0 -177 25.667 -235 77s-85.333 118 -82 200l3 6h180c0 -38.667 10.833 -70.334 32.5 -95.001
s55.5 -37 101.5 -37c44.667 0 78 12.333 100 37s33 56.334 33 95.001h181z" />
    <glyph glyph-name="abreve" unicode="&#x103;" horiz-adv-x="1114" 
d="M780 0c-8.66699 27.333 -15.832 54 -21.499 80s-9.5 52 -11.5 78c-32.667 -50.667 -76.334 -93.167 -131.001 -127.5s-115.667 -51.5 -183 -51.5c-112.667 0 -199.167 29 -259.5 87s-90.5 137.667 -90.5 239c0 104.667 41.333 186.167 124 244.5s199 87.5 349 87.5h189
v95c0 56.667 -16.5 101 -49.5 133s-80.833 48 -143.5 48c-55.333 0 -99.333 -13.167 -132 -39.5s-49 -60.5 -49 -102.5l-234 -1l-1 6c-4.66699 85.333 33.5 161 114.5 227s186.5 99 316.5 99c126 0 227.667 -32 305 -96s116 -156 116 -276v-481c0 -44.667 3 -87.5 9 -128.5
s15.667 -81.167 29 -120.5h-246zM483.002 174c60.667 0 115.5 15.332 164.5 45.999s81.5 65.667 97.5 105v160h-193c-70.667 0 -126 -17.5 -166 -52.5s-60 -76.167 -60 -123.5c0 -41.333 13.5 -74.166 40.5 -98.499s65.833 -36.5 116.5 -36.5zM866.002 1562l3 -6
c2.66699 -82 -25 -148.667 -83 -200s-136 -77 -234 -77c-98.667 0 -177 25.667 -235 77s-85.333 118 -82 200l3 6h180c0 -38.667 10.833 -70.334 32.5 -95.001s55.5 -37 101.5 -37c44.667 0 78 12.333 100 37s33 56.334 33 95.001h181z" />
    <glyph glyph-name="Aogonek" unicode="&#x104;" horiz-adv-x="1300" 
d="M911 340h-516l-112 -340h-251l508 1456h231l502 -1456h-251zM462 543h383l-187 574h-6zM1220 0c-41.333 -34 -72.834 -65.167 -94.501 -93.5s-32.5 -59.5 -32.5 -93.5c0 -22.667 6.5 -41.667 19.5 -57s36.833 -23 71.5 -23c18 0 33.833 2 47.5 6
s29.834 9.66699 48.501 17l35 -142c-24 -12.667 -50.667 -23.167 -80 -31.5s-64.333 -12.5 -105 -12.5c-67.333 0 -122.833 18.833 -166.5 56.5s-65.5 90.167 -65.5 157.5c0 52.667 18.167 102.667 54.5 150s92.5 89.333 168.5 126z" />
    <glyph glyph-name="aogonek" unicode="&#x105;" horiz-adv-x="1114" 
d="M780 0c-8.66699 27.333 -15.832 54 -21.499 80s-9.5 52 -11.5 78c-32.667 -50.667 -76.334 -93.167 -131.001 -127.5s-115.667 -51.5 -183 -51.5c-112.667 0 -199.167 29 -259.5 87s-90.5 137.667 -90.5 239c0 104.667 41.333 186.167 124 244.5s199 87.5 349 87.5h189
v95c0 56.667 -16.5 101 -49.5 133s-80.833 48 -143.5 48c-55.333 0 -99.333 -13.167 -132 -39.5s-49 -60.5 -49 -102.5l-234 -1l-1 6c-4.66699 85.333 33.5 161 114.5 227s186.5 99 316.5 99c126 0 227.667 -32 305 -96s116 -156 116 -276v-481c0 -44.667 3 -87.5 9 -128.5
s15.667 -81.167 29 -120.5h-246zM483.002 174c60.667 0 115.5 15.332 164.5 45.999s81.5 65.667 97.5 105v160h-193c-70.667 0 -126 -17.5 -166 -52.5s-60 -76.167 -60 -123.5c0 -41.333 13.5 -74.166 40.5 -98.499s65.833 -36.5 116.5 -36.5zM973.002 -0.000976562
c-41.333 -34 -72.834 -65.167 -94.501 -93.5s-32.5 -59.5 -32.5 -93.5c0 -22.667 6.5 -41.667 19.5 -57s36.833 -23 71.5 -23c18 0 33.833 2 47.5 6s29.834 9.66699 48.501 17l35 -142c-24 -12.667 -50.667 -23.167 -80 -31.5s-64.333 -12.5 -105 -12.5
c-67.333 0 -122.833 18.833 -166.5 56.5s-65.5 90.167 -65.5 157.5c0 52.667 18.167 102.667 54.5 150s92.5 89.333 168.5 126z" />
    <glyph glyph-name="Cacute" unicode="&#x106;" horiz-adv-x="1300" 
d="M1217 476l2.00195 -6.00098c2.66699 -146.667 -45 -265.167 -143 -355.5s-230.333 -135.5 -397 -135.5c-169.333 0 -306.666 57.167 -411.999 171.5s-158 260.5 -158 438.5v277c0 177.333 52 323.5 156 438.5s239.667 172.5 407 172.5
c171.333 0 306.166 -43.667 404.499 -131s146.166 -207 143.499 -359l-2 -6h-235c0 97.333 -26.333 171.833 -79 223.5s-130 77.5 -232 77.5c-98.667 0 -176.834 -39.167 -234.501 -117.5s-86.5 -177.166 -86.5 -296.499v-279c0 -120.667 29.333 -220.167 88 -298.5
s138.667 -117.5 240 -117.5c99.333 0 174.833 26 226.5 78s77.5 127 77.5 225h234zM755.002 1886h275l2 -6l-273 -260h-195z" />
    <glyph glyph-name="cacute" unicode="&#x107;" horiz-adv-x="1065" 
d="M569 173c55.333 0 102.167 17.334 140.5 52.001s57.5 78.667 57.5 132h220l2 -6c2.66699 -101.333 -37.5 -188.666 -120.5 -261.999s-182.833 -110 -299.5 -110c-156 0 -276.333 51.5 -361 154.5s-127 232.833 -127 389.5v35c0 156 42.333 285.667 127 389
s204.667 155 360 155c126 0 228.333 -37.833 307 -113.5s116.667 -171.834 114 -288.501l-2 -6h-220c0 59.333 -18.333 109.666 -55 150.999s-84.667 62 -144 62c-86.667 0 -149 -33.5 -187 -100.5s-57 -149.833 -57 -248.5v-35c0 -100.667 18.833 -184.167 56.5 -250.5
s100.5 -99.5 188.5 -99.5zM618.001 1543h275l2 -6l-273 -260h-195z" />
    <glyph glyph-name="Ccircumflex" unicode="&#x108;" horiz-adv-x="1300" 
d="M1217 476l2.00195 -6.00098c2.66699 -146.667 -45 -265.167 -143 -355.5s-230.333 -135.5 -397 -135.5c-169.333 0 -306.666 57.167 -411.999 171.5s-158 260.5 -158 438.5v277c0 177.333 52 323.5 156 438.5s239.667 172.5 407 172.5
c171.333 0 306.166 -43.667 404.499 -131s146.166 -207 143.499 -359l-2 -6h-235c0 97.333 -26.333 171.833 -79 223.5s-130 77.5 -232 77.5c-98.667 0 -176.834 -39.167 -234.501 -117.5s-86.5 -177.166 -86.5 -296.499v-279c0 -120.667 29.333 -220.167 88 -298.5
s138.667 -117.5 240 -117.5c99.333 0 174.833 26 226.5 78s77.5 127 77.5 225h234zM1016 1642v-24h-195l-143 139l-142 -139h-193v26l264 240h143z" />
    <glyph glyph-name="ccircumflex" unicode="&#x109;" horiz-adv-x="1065" 
d="M569 173c55.333 0 102.167 17.334 140.5 52.001s57.5 78.667 57.5 132h220l2 -6c2.66699 -101.333 -37.5 -188.666 -120.5 -261.999s-182.833 -110 -299.5 -110c-156 0 -276.333 51.5 -361 154.5s-127 232.833 -127 389.5v35c0 156 42.333 285.667 127 389
s204.667 155 360 155c126 0 228.333 -37.833 307 -113.5s116.667 -171.834 114 -288.501l-2 -6h-220c0 59.333 -18.333 109.666 -55 150.999s-84.667 62 -144 62c-86.667 0 -149 -33.5 -187 -100.5s-57 -149.833 -57 -248.5v-35c0 -100.667 18.833 -184.167 56.5 -250.5
s100.5 -99.5 188.5 -99.5zM879.001 1299v-24h-195l-143 139l-142 -139h-193v26l264 240h143z" />
    <glyph glyph-name="uni010A" unicode="&#x10a;" horiz-adv-x="1300" 
d="M1217 476l2.00195 -6.00098c2.66699 -146.667 -45 -265.167 -143 -355.5s-230.333 -135.5 -397 -135.5c-169.333 0 -306.666 57.167 -411.999 171.5s-158 260.5 -158 438.5v277c0 177.333 52 323.5 156 438.5s239.667 172.5 407 172.5
c171.333 0 306.166 -43.667 404.499 -131s146.166 -207 143.499 -359l-2 -6h-235c0 97.333 -26.333 171.833 -79 223.5s-130 77.5 -232 77.5c-98.667 0 -176.834 -39.167 -234.501 -117.5s-86.5 -177.166 -86.5 -296.499v-279c0 -120.667 29.333 -220.167 88 -298.5
s138.667 -117.5 240 -117.5c99.333 0 174.833 26 226.5 78s77.5 127 77.5 225h234zM813.002 1623h-270v223h270v-223z" />
    <glyph glyph-name="uni010B" unicode="&#x10b;" horiz-adv-x="1065" 
d="M569 173c55.333 0 102.167 17.334 140.5 52.001s57.5 78.667 57.5 132h220l2 -6c2.66699 -101.333 -37.5 -188.666 -120.5 -261.999s-182.833 -110 -299.5 -110c-156 0 -276.333 51.5 -361 154.5s-127 232.833 -127 389.5v35c0 156 42.333 285.667 127 389
s204.667 155 360 155c126 0 228.333 -37.833 307 -113.5s116.667 -171.834 114 -288.501l-2 -6h-220c0 59.333 -18.333 109.666 -55 150.999s-84.667 62 -144 62c-86.667 0 -149 -33.5 -187 -100.5s-57 -149.833 -57 -248.5v-35c0 -100.667 18.833 -184.167 56.5 -250.5
s100.5 -99.5 188.5 -99.5zM676.001 1280h-270v223h270v-223z" />
    <glyph glyph-name="Ccaron" unicode="&#x10c;" horiz-adv-x="1300" 
d="M1217 476l2.00195 -6.00098c2.66699 -146.667 -45 -265.167 -143 -355.5s-230.333 -135.5 -397 -135.5c-169.333 0 -306.666 57.167 -411.999 171.5s-158 260.5 -158 438.5v277c0 177.333 52 323.5 156 438.5s239.667 172.5 407 172.5
c171.333 0 306.166 -43.667 404.499 -131s146.166 -207 143.499 -359l-2 -6h-235c0 97.333 -26.333 171.833 -79 223.5s-130 77.5 -232 77.5c-98.667 0 -176.834 -39.167 -234.501 -117.5s-86.5 -177.166 -86.5 -296.499v-279c0 -120.667 29.333 -220.167 88 -298.5
s138.667 -117.5 240 -117.5c99.333 0 174.833 26 226.5 78s77.5 127 77.5 225h234zM677.002 1755l132 136h215v-17l-268 -252h-157l-267 250v19h213z" />
    <glyph glyph-name="ccaron" unicode="&#x10d;" horiz-adv-x="1065" 
d="M569 173c55.333 0 102.167 17.334 140.5 52.001s57.5 78.667 57.5 132h220l2 -6c2.66699 -101.333 -37.5 -188.666 -120.5 -261.999s-182.833 -110 -299.5 -110c-156 0 -276.333 51.5 -361 154.5s-127 232.833 -127 389.5v35c0 156 42.333 285.667 127 389
s204.667 155 360 155c126 0 228.333 -37.833 307 -113.5s116.667 -171.834 114 -288.501l-2 -6h-220c0 59.333 -18.333 109.666 -55 150.999s-84.667 62 -144 62c-86.667 0 -149 -33.5 -187 -100.5s-57 -149.833 -57 -248.5v-35c0 -100.667 18.833 -184.167 56.5 -250.5
s100.5 -99.5 188.5 -99.5zM540.001 1412l132 136h215v-17l-268 -252h-157l-267 250v19h213z" />
    <glyph glyph-name="Dcaron" unicode="&#x10e;" horiz-adv-x="1372" 
d="M153 0v1456h481c184.667 0 334.834 -57.667 450.501 -173s173.5 -263.666 173.5 -444.999v-221c0 -182 -57.833 -330.333 -173.5 -445s-265.834 -172 -450.501 -172h-481zM396 1261v-1067h238c116.667 0 209.334 39.5 278.001 118.5s103 180.5 103 304.5v223
c0 122.667 -34.333 223.5 -103 302.5s-161.334 118.5 -278.001 118.5h-238zM600 1734l132 136h215v-17l-268 -252h-157l-267 250v19h213z" />
    <glyph glyph-name="dcaron" unicode="&#x10f;" 
d="M83 526c0 172.667 37 311.833 111 417.5s178 158.5 312 158.5c58.667 0 111.167 -11.833 157.5 -35.5s86.5 -57.5 120.5 -101.5v595h243v-1560h-197l-29 137c-34.667 -51.333 -76.667 -90.5 -126 -117.5s-106.333 -40.5 -171 -40.5c-132.667 0 -236 48.333 -310 145
s-111 223.667 -111 381v21zM326 504.999c0 -100 19.167 -179.667 57.5 -239s99.166 -89 182.499 -89c51.333 0 94.833 11 130.5 33s64.834 53.333 87.501 94v472c-22.667 40 -52 71.167 -88 93.5s-78.667 33.5 -128 33.5c-82.667 0 -143.667 -34.833 -183 -104.5
s-59 -160.5 -59 -272.5v-21zM1338 1408l-126 -238h-110l61 248v142h175v-152z" />
    <glyph glyph-name="Dcroat" unicode="&#x110;" horiz-adv-x="1372" 
d="M153 0v656.999h-154v170h154v629h481c184.667 0 334.834 -57.667 450.501 -173s173.5 -263.666 173.5 -444.999v-221c0 -182 -57.833 -330.333 -173.5 -445s-265.834 -172 -450.501 -172h-481zM654 656.999h-258v-463h238c116.667 0 209.334 39.5 278.001 118.5
s103 180.5 103 304.5v223c0 122.667 -34.333 223.5 -103 302.5s-161.334 118.5 -278.001 118.5h-238v-434h258v-170z" />
    <glyph glyph-name="dcroat" unicode="&#x111;" 
d="M1199 1225l-172 -0.000976562v-1225h-197l-29 137c-34.667 -51.333 -76.667 -90.5 -126 -117.5s-106.333 -40.5 -171 -40.5c-132.667 0 -236 48.333 -310 145s-111 223.667 -111 381v21c0 172.667 37 311.834 111 417.501s178 158.5 312 158.5
c58.667 0 111.167 -11.833 157.5 -35.5s86.5 -57.5 120.5 -101.5v260h-240v170h240v165h243v-165h172v-170zM326 504.999c0 -100 19.167 -179.667 57.5 -239s99.166 -89 182.499 -89c51.333 0 94.833 11 130.5 33s64.834 53.333 87.501 94v472
c-22.667 40 -52 71.167 -88 93.5s-78.667 33.5 -128 33.5c-82.667 0 -143.667 -34.833 -183 -104.5s-59 -160.5 -59 -272.5v-21z" />
    <glyph glyph-name="Emacron" unicode="&#x112;" horiz-adv-x="1134" 
d="M966 655h-570v-461h672v-194h-915v1456h908v-195h-665v-411h570v-195zM977 1624h-727v158h727v-158z" />
    <glyph glyph-name="emacron" unicode="&#x113;" horiz-adv-x="1072" 
d="M587 -21c-158 0 -281.499 49.832 -370.499 149.499s-133.5 228.834 -133.5 387.501v40c0 158.667 44.5 289.5 133.5 392.5s203.833 154.167 344.5 153.5c145.333 0 255.333 -44.833 330 -134.5s112 -209.5 112 -359.5v-131h-669l-2 -5
c2.66699 -88.667 26 -160.667 70 -216s110.333 -83 199 -83c66 0 123.167 8 171.5 24s93.166 39 134.499 69l79 -159c-41.333 -36 -96 -66.333 -164 -91s-146.333 -37 -235 -37zM561.001 906.999c-63.333 0 -114 -22.833 -152 -68.5s-61.667 -105.167 -71 -178.5l2 -5h423
v19c0 69.333 -16.167 125.5 -48.5 168.5s-83.5 64.5 -153.5 64.5zM906.001 1303h-727v158h727v-158z" />
    <glyph glyph-name="Ebreve" unicode="&#x114;" horiz-adv-x="1134" 
d="M966 655h-570v-461h672v-194h-915v1456h908v-195h-665v-411h570v-195zM925 1884l3 -6c2.66699 -82 -25 -148.667 -83 -200s-136 -77 -234 -77c-98.667 0 -177 25.667 -235 77s-85.333 118 -82 200l3 6h180c0 -38.667 10.833 -70.334 32.5 -95.001s55.5 -37 101.5 -37
c44.667 0 78 12.333 100 37s33 56.334 33 95.001h181z" />
    <glyph glyph-name="ebreve" unicode="&#x115;" horiz-adv-x="1072" 
d="M587 -21c-158 0 -281.499 49.832 -370.499 149.499s-133.5 228.834 -133.5 387.501v40c0 158.667 44.5 289.5 133.5 392.5s203.833 154.167 344.5 153.5c145.333 0 255.333 -44.833 330 -134.5s112 -209.5 112 -359.5v-131h-669l-2 -5
c2.66699 -88.667 26 -160.667 70 -216s110.333 -83 199 -83c66 0 123.167 8 171.5 24s93.166 39 134.499 69l79 -159c-41.333 -36 -96 -66.333 -164 -91s-146.333 -37 -235 -37zM561.001 906.999c-63.333 0 -114 -22.833 -152 -68.5s-61.667 -105.167 -71 -178.5l2 -5h423
v19c0 69.333 -16.167 125.5 -48.5 168.5s-83.5 64.5 -153.5 64.5zM854.001 1563l3 -6c2.66699 -82 -25 -148.667 -83 -200s-136 -77 -234 -77c-98.667 0 -177 25.667 -235 77s-85.333 118 -82 200l3 6h180c0 -38.667 10.833 -70.334 32.5 -95.001s55.5 -37 101.5 -37
c44.667 0 78 12.333 100 37s33 56.334 33 95.001h181z" />
    <glyph glyph-name="Edotaccent" unicode="&#x116;" horiz-adv-x="1134" 
d="M966 655h-570v-461h672v-194h-915v1456h908v-195h-665v-411h570v-195zM745 1602h-270v223h270v-223z" />
    <glyph glyph-name="edotaccent" unicode="&#x117;" horiz-adv-x="1072" 
d="M587 -21c-158 0 -281.499 49.832 -370.499 149.499s-133.5 228.834 -133.5 387.501v40c0 158.667 44.5 289.5 133.5 392.5s203.833 154.167 344.5 153.5c145.333 0 255.333 -44.833 330 -134.5s112 -209.5 112 -359.5v-131h-669l-2 -5
c2.66699 -88.667 26 -160.667 70 -216s110.333 -83 199 -83c66 0 123.167 8 171.5 24s93.166 39 134.499 69l79 -159c-41.333 -36 -96 -66.333 -164 -91s-146.333 -37 -235 -37zM561.001 906.999c-63.333 0 -114 -22.833 -152 -68.5s-61.667 -105.167 -71 -178.5l2 -5h423
v19c0 69.333 -16.167 125.5 -48.5 168.5s-83.5 64.5 -153.5 64.5zM674.001 1281h-270v223h270v-223z" />
    <glyph glyph-name="Eogonek" unicode="&#x118;" horiz-adv-x="1134" 
d="M966 655h-570v-461h672v-194h-915v1456h908v-195h-665v-411h570v-195zM680 0c-41.333 -34 -72.834 -65.167 -94.501 -93.5s-32.5 -59.5 -32.5 -93.5c0 -22.667 6.5 -41.667 19.5 -57s36.833 -23 71.5 -23c18 0 33.833 2 47.5 6s29.834 9.66699 48.501 17l35 -142
c-24 -12.667 -50.667 -23.167 -80 -31.5s-64.333 -12.5 -105 -12.5c-67.333 0 -122.833 18.833 -166.5 56.5s-65.5 90.167 -65.5 157.5c0 52.667 18.167 102.667 54.5 150s92.5 89.333 168.5 126z" />
    <glyph glyph-name="eogonek" unicode="&#x119;" horiz-adv-x="1072" 
d="M587 -21c-158 0 -281.499 49.832 -370.499 149.499s-133.5 228.834 -133.5 387.501v40c0 158.667 44.5 289.5 133.5 392.5s203.833 154.167 344.5 153.5c145.333 0 255.333 -44.833 330 -134.5s112 -209.5 112 -359.5v-131h-669l-2 -5
c2.66699 -88.667 26 -160.667 70 -216s110.333 -83 199 -83c66 0 123.167 8 171.5 24s93.166 39 134.499 69l79 -159c-41.333 -36 -96 -66.333 -164 -91s-146.333 -37 -235 -37zM561.001 906.999c-63.333 0 -114 -22.833 -152 -68.5s-61.667 -105.167 -71 -178.5l2 -5h423
v19c0 69.333 -16.167 125.5 -48.5 168.5s-83.5 64.5 -153.5 64.5zM880.001 50.999c-41.333 -34 -72.834 -65.167 -94.501 -93.5s-32.5 -59.5 -32.5 -93.5c0 -22.667 6.5 -41.667 19.5 -57s36.833 -23 71.5 -23c18 0 33.833 2 47.5 6s29.834 9.66699 48.501 17l35 -142
c-24 -12.667 -50.667 -23.167 -80 -31.5s-64.333 -12.5 -105 -12.5c-67.333 0 -122.833 18.833 -166.5 56.5s-65.5 90.167 -65.5 157.5c0 52.667 18.167 102.667 54.5 150s92.5 89.333 168.5 126z" />
    <glyph glyph-name="Ecaron" unicode="&#x11a;" horiz-adv-x="1134" 
d="M966 655h-570v-461h672v-194h-915v1456h908v-195h-665v-411h570v-195zM609 1734l132 136h215v-17l-268 -252h-157l-267 250v19h213z" />
    <glyph glyph-name="ecaron" unicode="&#x11b;" horiz-adv-x="1072" 
d="M587 -21c-158 0 -281.499 49.832 -370.499 149.499s-133.5 228.834 -133.5 387.501v40c0 158.667 44.5 289.5 133.5 392.5s203.833 154.167 344.5 153.5c145.333 0 255.333 -44.833 330 -134.5s112 -209.5 112 -359.5v-131h-669l-2 -5
c2.66699 -88.667 26 -160.667 70 -216s110.333 -83 199 -83c66 0 123.167 8 171.5 24s93.166 39 134.499 69l79 -159c-41.333 -36 -96 -66.333 -164 -91s-146.333 -37 -235 -37zM561.001 906.999c-63.333 0 -114 -22.833 -152 -68.5s-61.667 -105.167 -71 -178.5l2 -5h423
v19c0 69.333 -16.167 125.5 -48.5 168.5s-83.5 64.5 -153.5 64.5zM538.001 1413l132 136h215v-17l-268 -252h-157l-267 250v19h213z" />
    <glyph glyph-name="Gcircumflex" unicode="&#x11c;" horiz-adv-x="1376" 
d="M1232 197c-40 -56.667 -103.829 -107.168 -191.496 -151.501s-200.834 -66.5 -339.501 -66.5c-172 0 -313.5 55.5 -424.5 166.5s-166.5 254.5 -166.5 430.5v304c0 176 53.667 319.5 161 430.5s245.333 166.5 414 166.5c169.333 0 301.333 -42.667 396 -128
s140.667 -196.666 138 -333.999l-3 -6h-231c0 82 -25.5 148 -76.5 198s-124.167 75 -219.5 75c-100.667 0 -181.834 -37.667 -243.501 -113s-92.5 -171 -92.5 -287v-306c0 -117.333 32.167 -213.833 96.5 -289.5s148.166 -113.5 251.499 -113.5
c78 0 139.667 8.83301 185 26.5s79.666 39.167 102.999 64.5v301h-305v182h548v-550zM1009 1642v-24h-195l-143 139l-142 -139h-193v26l264 240h143z" />
    <glyph glyph-name="gcircumflex" unicode="&#x11d;" 
d="M90 526c0 172.667 37 311.833 111 417.5s178 158.5 312 158.5c64.667 0 121.5 -13.833 170.5 -41.5s90.5 -67.5 124.5 -119.5l24 141h202v-1082c0 -139.333 -43 -247 -129 -323s-208 -114 -366 -114c-52.667 0 -109.5 7.5 -170.5 22.5s-116.167 34.833 -165.5 59.5
l39 191c41.333 -20.667 87.5 -36.834 138.5 -48.501s103.167 -17.5 156.5 -17.5c88 0 152.333 18.833 193 56.5s61 95.5 61 173.5v111c-34 -43.333 -74.167 -76.166 -120.5 -98.499s-99.5 -33.5 -159.5 -33.5c-132.667 0 -236 48.333 -310 145s-111 223.667 -111 381v21z
M332 504.999c0 -100 19.333 -179.667 58 -239s99.667 -89 183 -89c52 0 95.833 10.833 131.5 32.5s64.5 52.834 86.5 93.501v474c-22.667 39.333 -51.834 70.166 -87.501 92.499s-78.5 33.5 -128.5 33.5c-83.333 0 -144.666 -34.833 -183.999 -104.5s-59 -160.5 -59 -272.5
v-21zM900 1299v-24h-195l-143 139l-142 -139h-193v26l264 240h143z" />
    <glyph glyph-name="Gbreve" unicode="&#x11e;" horiz-adv-x="1376" 
d="M1232 197c-40 -56.667 -103.829 -107.168 -191.496 -151.501s-200.834 -66.5 -339.501 -66.5c-172 0 -313.5 55.5 -424.5 166.5s-166.5 254.5 -166.5 430.5v304c0 176 53.667 319.5 161 430.5s245.333 166.5 414 166.5c169.333 0 301.333 -42.667 396 -128
s140.667 -196.666 138 -333.999l-3 -6h-231c0 82 -25.5 148 -76.5 198s-124.167 75 -219.5 75c-100.667 0 -181.834 -37.667 -243.501 -113s-92.5 -171 -92.5 -287v-306c0 -117.333 32.167 -213.833 96.5 -289.5s148.166 -113.5 251.499 -113.5
c78 0 139.667 8.83301 185 26.5s79.666 39.167 102.999 64.5v301h-305v182h548v-550zM986.004 1905l3 -6c2.66699 -82 -25 -148.667 -83 -200s-136 -77 -234 -77c-98.667 0 -177 25.667 -235 77s-85.333 118 -82 200l3 6h180c0 -38.667 10.833 -70.334 32.5 -95.001
s55.5 -37 101.5 -37c44.667 0 78 12.333 100 37s33 56.334 33 95.001h181z" />
    <glyph glyph-name="gbreve" unicode="&#x11f;" 
d="M90 526c0 172.667 37 311.833 111 417.5s178 158.5 312 158.5c64.667 0 121.5 -13.833 170.5 -41.5s90.5 -67.5 124.5 -119.5l24 141h202v-1082c0 -139.333 -43 -247 -129 -323s-208 -114 -366 -114c-52.667 0 -109.5 7.5 -170.5 22.5s-116.167 34.833 -165.5 59.5
l39 191c41.333 -20.667 87.5 -36.834 138.5 -48.501s103.167 -17.5 156.5 -17.5c88 0 152.333 18.833 193 56.5s61 95.5 61 173.5v111c-34 -43.333 -74.167 -76.166 -120.5 -98.499s-99.5 -33.5 -159.5 -33.5c-132.667 0 -236 48.333 -310 145s-111 223.667 -111 381v21z
M332 504.999c0 -100 19.333 -179.667 58 -239s99.667 -89 183 -89c52 0 95.833 10.833 131.5 32.5s64.5 52.834 86.5 93.501v474c-22.667 39.333 -51.834 70.166 -87.501 92.499s-78.5 33.5 -128.5 33.5c-83.333 0 -144.666 -34.833 -183.999 -104.5s-59 -160.5 -59 -272.5
v-21zM877 1562l3 -6c2.66699 -82 -25 -148.667 -83 -200s-136 -77 -234 -77c-98.667 0 -177 25.667 -235 77s-85.333 118 -82 200l3 6h180c0 -38.667 10.833 -70.334 32.5 -95.001s55.5 -37 101.5 -37c44.667 0 78 12.333 100 37s33 56.334 33 95.001h181z" />
    <glyph glyph-name="uni0120" unicode="&#x120;" horiz-adv-x="1376" 
d="M1232 197c-40 -56.667 -103.829 -107.168 -191.496 -151.501s-200.834 -66.5 -339.501 -66.5c-172 0 -313.5 55.5 -424.5 166.5s-166.5 254.5 -166.5 430.5v304c0 176 53.667 319.5 161 430.5s245.333 166.5 414 166.5c169.333 0 301.333 -42.667 396 -128
s140.667 -196.666 138 -333.999l-3 -6h-231c0 82 -25.5 148 -76.5 198s-124.167 75 -219.5 75c-100.667 0 -181.834 -37.667 -243.501 -113s-92.5 -171 -92.5 -287v-306c0 -117.333 32.167 -213.833 96.5 -289.5s148.166 -113.5 251.499 -113.5
c78 0 139.667 8.83301 185 26.5s79.666 39.167 102.999 64.5v301h-305v182h548v-550zM806.004 1623h-270v223h270v-223z" />
    <glyph glyph-name="uni0121" unicode="&#x121;" 
d="M90 526c0 172.667 37 311.833 111 417.5s178 158.5 312 158.5c64.667 0 121.5 -13.833 170.5 -41.5s90.5 -67.5 124.5 -119.5l24 141h202v-1082c0 -139.333 -43 -247 -129 -323s-208 -114 -366 -114c-52.667 0 -109.5 7.5 -170.5 22.5s-116.167 34.833 -165.5 59.5
l39 191c41.333 -20.667 87.5 -36.834 138.5 -48.501s103.167 -17.5 156.5 -17.5c88 0 152.333 18.833 193 56.5s61 95.5 61 173.5v111c-34 -43.333 -74.167 -76.166 -120.5 -98.499s-99.5 -33.5 -159.5 -33.5c-132.667 0 -236 48.333 -310 145s-111 223.667 -111 381v21z
M332 504.999c0 -100 19.333 -179.667 58 -239s99.667 -89 183 -89c52 0 95.833 10.833 131.5 32.5s64.5 52.834 86.5 93.501v474c-22.667 39.333 -51.834 70.166 -87.501 92.499s-78.5 33.5 -128.5 33.5c-83.333 0 -144.666 -34.833 -183.999 -104.5s-59 -160.5 -59 -272.5
v-21zM697 1280h-270v223h270v-223z" />
    <glyph glyph-name="Gcommaaccent" unicode="&#x122;" horiz-adv-x="1376" 
d="M1232 197c-40 -56.667 -103.829 -107.168 -191.496 -151.501s-200.834 -66.5 -339.501 -66.5c-172 0 -313.5 55.5 -424.5 166.5s-166.5 254.5 -166.5 430.5v304c0 176 53.667 319.5 161 430.5s245.333 166.5 414 166.5c169.333 0 301.333 -42.667 396 -128
s140.667 -196.666 138 -333.999l-3 -6h-231c0 82 -25.5 148 -76.5 198s-124.167 75 -219.5 75c-100.667 0 -181.834 -37.667 -243.501 -113s-92.5 -171 -92.5 -287v-306c0 -117.333 32.167 -213.833 96.5 -289.5s148.166 -113.5 251.499 -113.5
c78 0 139.667 8.83301 185 26.5s79.666 39.167 102.999 64.5v301h-305v182h548v-550zM758.004 -263.001l-126 -238h-110l61 248v142h175v-152z" />
    <glyph glyph-name="gcommaaccent" unicode="&#x123;" 
d="M90 526c0 172.667 37 311.833 111 417.5s178 158.5 312 158.5c64.667 0 121.5 -13.833 170.5 -41.5s90.5 -67.5 124.5 -119.5l24 141h202v-1082c0 -139.333 -43 -247 -129 -323s-208 -114 -366 -114c-52.667 0 -109.5 7.5 -170.5 22.5s-116.167 34.833 -165.5 59.5
l39 191c41.333 -20.667 87.5 -36.834 138.5 -48.501s103.167 -17.5 156.5 -17.5c88 0 152.333 18.833 193 56.5s61 95.5 61 173.5v111c-34 -43.333 -74.167 -76.166 -120.5 -98.499s-99.5 -33.5 -159.5 -33.5c-132.667 0 -236 48.333 -310 145s-111 223.667 -111 381v21z
M332 504.999c0 -100 19.333 -179.667 58 -239s99.667 -89 183 -89c52 0 95.833 10.833 131.5 32.5s64.5 52.834 86.5 93.501v474c-22.667 39.333 -51.834 70.166 -87.501 92.499s-78.5 33.5 -128.5 33.5c-83.333 0 -144.666 -34.833 -183.999 -104.5s-59 -160.5 -59 -272.5
v-21zM447 1419l119 255h126l-27 -265v-154h-218v164z" />
    <glyph glyph-name="Hcircumflex" unicode="&#x124;" horiz-adv-x="1443" 
d="M1290 0h-243v621h-651v-621h-243v1456h243v-640h651v640h243v-1456zM1053 1621v-24h-195l-143 139l-142 -139h-193v26l264 240h143z" />
    <glyph glyph-name="hcircumflex" unicode="&#x125;" 
d="M368 942c36 50.667 79.832 90 131.499 118s108.834 42 171.501 42c114.667 0 204.167 -36.167 268.5 -108.5s96.5 -183.833 96.5 -334.5v-659h-243v661c0 84.667 -16.5 146.167 -49.5 184.5s-82.167 57.5 -147.5 57.5c-52 0 -97 -9.16699 -135 -27.5
s-69 -43.833 -93 -76.5v-799h-243v1560h243v-618zM850.999 1621v-24h-195l-143 139l-142 -139h-193v26l264 240h143z" />
    <glyph glyph-name="Hbar" unicode="&#x126;" horiz-adv-x="1442" 
d="M1298 1188h132v-162h-132v-1026h-243v621h-651v-621h-243v1026h-137v162h137v268h243v-268h651v268h243v-268zM404 816h651v210h-651v-210z" />
    <glyph glyph-name="hbar" unicode="&#x127;" 
d="M632 1223h-264.001v-281c36 50.667 79.833 90 131.5 118s108.834 42 171.501 42c114.667 0 204.167 -36.167 268.5 -108.5s96.5 -183.833 96.5 -334.5v-659h-243v661c0 84.667 -16.5 146.167 -49.5 184.5s-82.167 57.5 -147.5 57.5c-52 0 -97 -9.16699 -135 -27.5
s-69 -43.833 -93 -76.5v-799h-243v1223h-148v170h148v167h243v-167h264v-170z" />
    <glyph glyph-name="Itilde" unicode="&#x128;" horiz-adv-x="589" 
d="M416 0h-243v1456h243v-1456zM656 1852c0 -63.333 -20.001 -117.333 -60.001 -162s-90 -67 -150 -67c-47.333 0 -98.5 14.833 -153.5 44.5s-99.5 44.5 -133.5 44.5c-26 0 -48 -10.833 -66 -32.5s-27 -47.5 -27 -77.5l-131 35c0 62.667 19.833 117.167 59.5 163.5
s89.5 69.5 149.5 69.5c37.333 0 85.833 -14.833 145.5 -44.5s106.834 -44.5 141.501 -44.5c25.333 0 47.333 10.667 66 32s28 47.333 28 78z" />
    <glyph glyph-name="itilde" unicode="&#x129;" horiz-adv-x="538" 
d="M386 0h-243v1082h243v-1082zM627 1509c0 -63.333 -20.001 -117.333 -60.001 -162s-90 -67 -150 -67c-47.333 0 -98.5 14.833 -153.5 44.5s-99.5 44.5 -133.5 44.5c-26 0 -48 -10.833 -66 -32.5s-27 -47.5 -27 -77.5l-131 35c0 62.667 19.833 117.167 59.5 163.5
s89.5 69.5 149.5 69.5c37.333 0 85.833 -14.833 145.5 -44.5s106.834 -44.5 141.501 -44.5c25.333 0 47.333 10.667 66 32s28 47.333 28 78z" />
    <glyph glyph-name="Imacron" unicode="&#x12a;" horiz-adv-x="589" 
d="M416 0h-243v1456h243v-1456zM662 1624h-727v158h727v-158z" />
    <glyph glyph-name="imacron" unicode="&#x12b;" horiz-adv-x="538" 
d="M386 0h-243v1082h243v-1082zM633 1282h-727v158h727v-158z" />
    <glyph glyph-name="Ibreve" unicode="&#x12c;" horiz-adv-x="589" 
d="M416 0h-243v1456h243v-1456zM610 1884l3 -6c2.66699 -82 -25 -148.667 -83 -200s-136 -77 -234 -77c-98.667 0 -177 25.667 -235 77s-85.333 118 -82 200l3 6h180c0 -38.667 10.833 -70.334 32.5 -95.001s55.5 -37 101.5 -37c44.667 0 78 12.333 100 37
s33 56.334 33 95.001h181z" />
    <glyph glyph-name="ibreve" unicode="&#x12d;" horiz-adv-x="538" 
d="M386 0h-243v1082h243v-1082zM581 1541l3 -6c2.66699 -82 -25 -148.667 -83 -200s-136 -77 -234 -77c-98.667 0 -177 25.667 -235 77s-85.333 118 -82 200l3 6h180c0 -38.667 10.833 -70.334 32.5 -95.001s55.5 -37 101.5 -37c44.667 0 78 12.333 100 37
s33 56.334 33 95.001h181z" />
    <glyph glyph-name="Iogonek" unicode="&#x12e;" horiz-adv-x="589" 
d="M416 0h-243v1456h243v-1456zM364 0c-41.333 -34 -72.834 -65.167 -94.501 -93.5s-32.5 -59.5 -32.5 -93.5c0 -22.667 6.5 -41.667 19.5 -57s36.833 -23 71.5 -23c18 0 33.833 2 47.5 6s29.834 9.66699 48.501 17l35 -142c-24 -12.667 -50.667 -23.167 -80 -31.5
s-64.333 -12.5 -105 -12.5c-67.333 0 -122.833 18.833 -166.5 56.5s-65.5 90.167 -65.5 157.5c0 52.667 18.167 102.667 54.5 150s92.5 89.333 168.5 126z" />
    <glyph glyph-name="iogonek" unicode="&#x12f;" horiz-adv-x="531" 
d="M387 0h-243v1082h243v-1082zM387 1347h-243v213h243v-213zM335 0c-41.333 -34 -72.834 -65.167 -94.501 -93.5s-32.5 -59.5 -32.5 -93.5c0 -22.667 6.5 -41.667 19.5 -57s36.833 -23 71.5 -23c18 0 33.833 2 47.5 6s29.834 9.66699 48.501 17l35 -142
c-24 -12.667 -50.667 -23.167 -80 -31.5s-64.333 -12.5 -105 -12.5c-67.333 0 -122.833 18.833 -166.5 56.5s-65.5 90.167 -65.5 157.5c0 52.667 18.167 102.667 54.5 150s92.5 89.333 168.5 126z" />
    <glyph glyph-name="Idotaccent" unicode="&#x130;" horiz-adv-x="589" 
d="M416 0h-243v1456h243v-1456zM429 1602h-270v223h270v-223z" />
    <glyph glyph-name="dotlessi" unicode="&#x131;" horiz-adv-x="538" 
d="M386 0h-243v1082h243v-1082z" />
    <glyph glyph-name="IJ" unicode="&#x132;" horiz-adv-x="1719" 
d="M416 0h-243v1456h243v-1456zM1326 1456l242 0.000976562v-1019c0 -140 -42.5 -251.333 -127.5 -334s-195.167 -124 -330.5 -124c-143.333 0 -257 36.667 -341 110s-124.333 180.333 -121 321l2 6h235c0 -82.667 19.833 -143.834 59.5 -183.501
s94.834 -59.5 165.501 -59.5c63.333 0 115.166 24 155.499 72s60.5 112 60.5 192v1019z" />
    <glyph glyph-name="ij" unicode="&#x133;" horiz-adv-x="1068" 
d="M387 0h-243v1082h243v-1082zM387 1347h-243v213h243v-213zM929 1082l-0.000976562 -1145c0 -119.333 -31 -211.5 -93 -276.5s-148.333 -97.5 -259 -97.5c-24 0 -45.667 1.33301 -65 4s-39.666 7 -60.999 13l14 194c11.333 -3.33301 25.333 -6.16602 42 -8.49902
s32 -3.5 46 -3.5c41.333 0 73.833 14.167 97.5 42.5s35.5 72.5 35.5 132.5v1145h243zM922.999 1350h-243v210h243v-210z" />
    <glyph glyph-name="Jcircumflex" unicode="&#x134;" horiz-adv-x="1130" 
d="M737 1456l242 0.000976562v-1019c0 -140 -42.5 -251.333 -127.5 -334s-195.167 -124 -330.5 -124c-143.333 0 -257 36.667 -341 110s-124.333 180.333 -121 321l2 6h235c0 -82.667 19.833 -143.834 59.5 -183.501s94.834 -59.5 165.501 -59.5
c63.333 0 115.166 24 155.499 72s60.5 112 60.5 192v1019zM1183 1613v-24h-195l-143 139l-142 -139h-193v26l264 240h143z" />
    <glyph glyph-name="jcircumflex" unicode="&#x135;" horiz-adv-x="550" 
d="M403 1082v-1145c0 -119.333 -31 -211.5 -93 -276.5s-148.333 -97.5 -259 -97.5c-24 0 -45.667 1.33301 -65 4s-39.666 7 -60.999 13l15 191c11.333 -3.33301 26.666 -6.33301 45.999 -9s36.333 -4 51 -4c38.667 0 69 15.833 91 47.5s33 75.5 33 131.5v1145h242zM612 1265
v-24h-195l-143 139l-142 -139h-193v26l264 240h143z" />
    <glyph glyph-name="Kcommaaccent" unicode="&#x136;" horiz-adv-x="1304" 
d="M515 630h-119v-630h-243v1456h243v-617h95l473 617h285l3 -5l-546 -684l591 -767h-307zM713 -249l-126 -238h-110l61 248v142h175v-152z" />
    <glyph glyph-name="kcommaaccent" unicode="&#x137;" horiz-adv-x="1072" 
d="M461 473h-90v-473h-242v1560h242v-892h83l293 414h285l-371 -498l412 -584h-283zM628 -247l-126 -238h-110l61 248v142h175v-152z" />
    <glyph glyph-name="kgreenlandic" unicode="&#x138;" horiz-adv-x="1176" 
d="M495 428h-111v-428h-242v1082h242v-432h85l336 432h293l3 -5l-416 -513l446 -564h-309z" />
    <glyph glyph-name="Lacute" unicode="&#x139;" horiz-adv-x="1131" 
d="M396 194h682v-194h-925v1456h243v-1262zM350 1824h275l2 -6l-273 -260h-195z" />
    <glyph glyph-name="lacute" unicode="&#x13a;" horiz-adv-x="531" 
d="M387 0h-243v1560h243v-1560zM342 1885h275l2 -6l-273 -260h-195z" />
    <glyph glyph-name="Lcommaaccent" unicode="&#x13b;" horiz-adv-x="1131" 
d="M396 194h682v-194h-925v1456h243v-1262zM691 -247l-126 -238h-110l61 248v142h175v-152z" />
    <glyph glyph-name="lcommaaccent" unicode="&#x13c;" horiz-adv-x="531" 
d="M387 0h-243v1560h243v-1560zM344 -247l-126 -238h-110l61 248v142h175v-152z" />
    <glyph glyph-name="Lcaron" unicode="&#x13d;" horiz-adv-x="1131" 
d="M396 194h682v-194h-925v1456h243v-1262zM827 1306l-126 -238h-110l61 248v142h175v-152z" />
    <glyph glyph-name="lcaron" unicode="&#x13e;" horiz-adv-x="531" 
d="M387 0h-243v1560h243v-1560zM724 1408l-126 -238h-110l61 248v142h175v-152z" />
    <glyph glyph-name="Ldot" unicode="&#x13f;" horiz-adv-x="1131" 
d="M396 194h682v-194h-925v1456h243v-1262zM871 683h-270v223h270v-223z" />
    <glyph glyph-name="ldot" unicode="&#x140;" horiz-adv-x="531" 
d="M387 0h-243v1560h243v-1560zM667 646h-270v223h270v-223z" />
    <glyph glyph-name="Lslash" unicode="&#x141;" horiz-adv-x="1060" 
d="M389 865l256 78v-184l-256 -78v-487h682v-194h-925v608l-119 -36v184l119 36v664h243v-591z" />
    <glyph glyph-name="lslash" unicode="&#x142;" horiz-adv-x="575" 
d="M407 891l145 52v-184l-145 -52v-707h-243v621l-137 -49v184l137 49v755h243v-669z" />
    <glyph glyph-name="Nacute" unicode="&#x143;" horiz-adv-x="1443" 
d="M1290 0h-243l-645 1049l-6 -2v-1047h-243v1456h243l645 -1049l6 2v1047h243v-1456zM797 1865h275l2 -6l-273 -260h-195z" />
    <glyph glyph-name="nacute" unicode="&#x144;" 
d="M348 1082l14 -156c35.333 55.333 79.833 98.5 133.5 129.5s114.167 46.5 181.5 46.5c112.667 0 200.5 -34.667 263.5 -104s94.5 -177.666 94.5 -324.999v-673h-243v671c0 84 -16.333 143.667 -49 179s-82 53 -148 53c-52 0 -97 -9.83301 -135 -29.5
s-68.333 -46.834 -91 -81.501v-792h-243v1082h222zM654 1543h275l2 -6l-273 -260h-195z" />
    <glyph glyph-name="Ncommaaccent" unicode="&#x145;" horiz-adv-x="1443" 
d="M1290 0h-243l-645 1049l-6 -2v-1047h-243v1456h243l645 -1049l6 2v1047h243v-1456zM799 -247l-126 -238h-110l61 248v142h175v-152z" />
    <glyph glyph-name="ncommaaccent" unicode="&#x146;" 
d="M348 1082l14 -156c35.333 55.333 79.833 98.5 133.5 129.5s114.167 46.5 181.5 46.5c112.667 0 200.5 -34.667 263.5 -104s94.5 -177.666 94.5 -324.999v-673h-243v671c0 84 -16.333 143.667 -49 179s-82 53 -148 53c-52 0 -97 -9.83301 -135 -29.5
s-68.333 -46.834 -91 -81.501v-792h-243v1082h222zM656 -247l-126 -238h-110l61 248v142h175v-152z" />
    <glyph glyph-name="Ncaron" unicode="&#x147;" horiz-adv-x="1443" 
d="M1290 0h-243l-645 1049l-6 -2v-1047h-243v1456h243l645 -1049l6 2v1047h243v-1456zM719 1734l132 136h215v-17l-268 -252h-157l-267 250v19h213z" />
    <glyph glyph-name="ncaron" unicode="&#x148;" 
d="M348 1082l14 -156c35.333 55.333 79.833 98.5 133.5 129.5s114.167 46.5 181.5 46.5c112.667 0 200.5 -34.667 263.5 -104s94.5 -177.666 94.5 -324.999v-673h-243v671c0 84 -16.333 143.667 -49 179s-82 53 -148 53c-52 0 -97 -9.83301 -135 -29.5
s-68.333 -46.834 -91 -81.501v-792h-243v1082h222zM576 1412l132 136h215v-17l-268 -252h-157l-267 250v19h213z" />
    <glyph glyph-name="napostrophe" unicode="&#x149;" 
d="M348 1082l14 -156c35.333 55.333 79.833 98.5 133.5 129.5s114.167 46.5 181.5 46.5c112.667 0 200.5 -34.667 263.5 -104s94.5 -177.666 94.5 -324.999v-673h-243v671c0 84 -16.333 143.667 -49 179s-82 53 -148 53c-52 0 -97 -9.83301 -135 -29.5
s-68.333 -46.834 -91 -81.501v-792h-243v1082h222zM205 1408l-126 -238h-110l61 248v142h175v-152z" />
    <glyph glyph-name="Eng" unicode="&#x14a;" horiz-adv-x="1426" 
d="M1284 1456l0.000976562 -1519c0 -119.333 -31.167 -211.5 -93.5 -276.5s-148.833 -97.5 -259.5 -97.5c-24 0 -45.833 1.33301 -65.5 4s-40.167 7 -61.5 13l14 191c11.333 -3.33301 27.166 -6.33301 47.499 -9s37.5 -4 51.5 -4c39.333 0 69.833 15.833 91.5 47.5
s32.5 75.5 32.5 131.5v63l-645 1049l-6 -2v-1047h-243v1456h243l645 -1049l6 2v1047h243z" />
    <glyph glyph-name="eng" unicode="&#x14b;" 
d="M348 1082l13.001 -150.002c36 54 80.5 95.833 133.5 125.5s112.167 44.5 177.5 44.5c112.667 0 200.5 -34.667 263.5 -104s94.5 -177.666 94.5 -324.999v-736c0 -119.333 -31.167 -211.5 -93.5 -276.5s-148.833 -97.5 -259.5 -97.5c-24 0 -45.833 1.33301 -65.5 4
s-40.167 7 -61.5 13l14 198c11.333 -3.33301 27 -6.16602 47 -8.49902s37.333 -3.5 52 -3.5c39.333 0 69.833 14.5 91.5 43.5s32.5 71.5 32.5 127.5v734c0 84 -16.333 143.667 -49 179s-82.334 53 -149.001 53c-50 0 -93.333 -9 -130 -27s-66.667 -43.333 -90 -76v-800h-243
v1082h222z" />
    <glyph glyph-name="Omacron" unicode="&#x14c;" horiz-adv-x="1402" 
d="M1297 597c0 -178 -55.832 -325.5 -167.499 -442.5s-256.834 -175.5 -435.501 -175.5c-174 0 -315.667 58.5 -425 175.5s-164 264.5 -164 442.5v262c0 177.333 54.5 324.666 163.5 441.999s250.833 176 425.5 176c178 0 323 -58.667 435 -176s168 -264.666 168 -441.999
v-262zM1054 861c0 121.333 -32.3311 221 -96.998 299s-152.334 117 -263.001 117c-107.333 0 -191.833 -39 -253.5 -117s-92.5 -177.667 -92.5 -299v-264c0 -122.667 31 -223.167 93 -301.5s146.333 -117.5 253 -117.5c111.333 0 199.166 39 263.499 117
s96.5 178.667 96.5 302v264zM1068 1645h-727v158h727v-158z" />
    <glyph glyph-name="omacron" unicode="&#x14d;" 
d="M83 551c0 161.333 44.1689 293.5 132.502 396.5s209.166 154.5 362.499 154.5c155.333 0 277.166 -51.5 365.499 -154.5s132.5 -235.167 132.5 -396.5v-21c0 -162.667 -44.167 -295.167 -132.5 -397.5s-209.5 -153.5 -363.5 -153.5
c-154.667 0 -276.167 51.333 -364.5 154s-132.5 235 -132.5 397v21zM326.002 530c0 -106 20.668 -191.999 62.001 -257.999s105.333 -99 192 -99c84.667 0 148.167 33.167 190.5 99.5s63.5 152.166 63.5 257.499v21c0 103.333 -21.167 188.5 -63.5 255.5
s-106.5 100.5 -192.5 100.5c-84.667 0 -147.834 -33.5 -189.501 -100.5s-62.5 -152.167 -62.5 -255.5v-21zM946.003 1302h-727v158h727v-158z" />
    <glyph glyph-name="Obreve" unicode="&#x14e;" horiz-adv-x="1402" 
d="M1297 597c0 -178 -55.832 -325.5 -167.499 -442.5s-256.834 -175.5 -435.501 -175.5c-174 0 -315.667 58.5 -425 175.5s-164 264.5 -164 442.5v262c0 177.333 54.5 324.666 163.5 441.999s250.833 176 425.5 176c178 0 323 -58.667 435 -176s168 -264.666 168 -441.999
v-262zM1054 861c0 121.333 -32.3311 221 -96.998 299s-152.334 117 -263.001 117c-107.333 0 -191.833 -39 -253.5 -117s-92.5 -177.667 -92.5 -299v-264c0 -122.667 31 -223.167 93 -301.5s146.333 -117.5 253 -117.5c111.333 0 199.166 39 263.499 117
s96.5 178.667 96.5 302v264zM1016 1905l3 -6c2.66699 -82 -25 -148.667 -83 -200s-136 -77 -234 -77c-98.667 0 -177 25.667 -235 77s-85.333 118 -82 200l3 6h180c0 -38.667 10.833 -70.334 32.5 -95.001s55.5 -37 101.5 -37c44.667 0 78 12.333 100 37
s33 56.334 33 95.001h181z" />
    <glyph glyph-name="obreve" unicode="&#x14f;" 
d="M83 551c0 161.333 44.1689 293.5 132.502 396.5s209.166 154.5 362.499 154.5c155.333 0 277.166 -51.5 365.499 -154.5s132.5 -235.167 132.5 -396.5v-21c0 -162.667 -44.167 -295.167 -132.5 -397.5s-209.5 -153.5 -363.5 -153.5
c-154.667 0 -276.167 51.333 -364.5 154s-132.5 235 -132.5 397v21zM326.002 530c0 -106 20.668 -191.999 62.001 -257.999s105.333 -99 192 -99c84.667 0 148.167 33.167 190.5 99.5s63.5 152.166 63.5 257.499v21c0 103.333 -21.167 188.5 -63.5 255.5
s-106.5 100.5 -192.5 100.5c-84.667 0 -147.834 -33.5 -189.501 -100.5s-62.5 -152.167 -62.5 -255.5v-21zM894.003 1562l3 -6c2.66699 -82 -25 -148.667 -83 -200s-136 -77 -234 -77c-98.667 0 -177 25.667 -235 77s-85.333 118 -82 200l3 6h180
c0 -38.667 10.833 -70.334 32.5 -95.001s55.5 -37 101.5 -37c44.667 0 78 12.333 100 37s33 56.334 33 95.001h181z" />
    <glyph glyph-name="Ohungarumlaut" unicode="&#x150;" horiz-adv-x="1402" 
d="M1297 597c0 -178 -55.832 -325.5 -167.499 -442.5s-256.834 -175.5 -435.501 -175.5c-174 0 -315.667 58.5 -425 175.5s-164 264.5 -164 442.5v262c0 177.333 54.5 324.666 163.5 441.999s250.833 176 425.5 176c178 0 323 -58.667 435 -176s168 -264.666 168 -441.999
v-262zM1054 861c0 121.333 -32.3311 221 -96.998 299s-152.334 117 -263.001 117c-107.333 0 -191.833 -39 -253.5 -117s-92.5 -177.667 -92.5 -299v-264c0 -122.667 31 -223.167 93 -301.5s146.333 -117.5 253 -117.5c111.333 0 199.166 39 263.499 117
s96.5 178.667 96.5 302v264zM976.003 1888h254l2 -6l-293 -260h-201l-2 5zM620.003 1888h243l2 -5l-240 -261h-195z" />
    <glyph glyph-name="ohungarumlaut" unicode="&#x151;" 
d="M83 551c0 161.333 44.1689 293.5 132.502 396.5s209.166 154.5 362.499 154.5c155.333 0 277.166 -51.5 365.499 -154.5s132.5 -235.167 132.5 -396.5v-21c0 -162.667 -44.167 -295.167 -132.5 -397.5s-209.5 -153.5 -363.5 -153.5
c-154.667 0 -276.167 51.333 -364.5 154s-132.5 235 -132.5 397v21zM326.002 530c0 -106 20.668 -191.999 62.001 -257.999s105.333 -99 192 -99c84.667 0 148.167 33.167 190.5 99.5s63.5 152.166 63.5 257.499v21c0 103.333 -21.167 188.5 -63.5 255.5
s-106.5 100.5 -192.5 100.5c-84.667 0 -147.834 -33.5 -189.501 -100.5s-62.5 -152.167 -62.5 -255.5v-21zM854.003 1545h254l2 -6l-293 -260h-201l-2 5zM498.003 1545h243l2 -5l-240 -261h-195z" />
    <glyph glyph-name="OE" unicode="&#x152;" horiz-adv-x="1972" 
d="M1803 0l-832.001 0.000976562c-61.333 -6.66699 -113.5 -11.834 -156.5 -15.501s-86.833 -5.5 -131.5 -5.5c-173.333 0 -313.666 55.167 -420.999 165.5s-161 254.166 -161 431.499v304c0 176.667 53.5 320.334 160.5 431.001s246.833 166 419.5 166
c46 0 92.667 -2 140 -6s97.333 -9 150 -15h825v-195h-665v-411h570v-195h-570v-461h672v-194zM682.999 174.001c34.667 0 69.1689 1.16699 103.502 3.5s68.166 5.83301 101.499 10.5v1079c-34.667 4.66699 -69.334 8.33398 -104.001 11.001s-69 4 -103 4
c-106 0 -188.833 -34.167 -248.5 -102.5s-89.5 -167.5 -89.5 -297.5v-306c0 -130.667 30 -230.334 90 -299.001s143.333 -103 250 -103z" />
    <glyph glyph-name="oe" unicode="&#x153;" horiz-adv-x="1851" 
d="M1367 -21c-88 0 -165.667 16 -233 48s-122.666 77.333 -165.999 136c-43.333 -58.667 -97.833 -104 -163.5 -136s-140.5 -48 -224.5 -48c-154.667 0 -276.167 51.333 -364.5 154s-132.5 235 -132.5 397v21c0 161.333 44.167 293.5 132.5 396.5
s209.166 154.5 362.499 154.5c84.667 0 160.167 -16.333 226.5 -49s121.5 -78.667 165.5 -138c42.667 59.333 95.834 105.333 159.501 138s134.167 49 211.5 49c145.333 0 255.333 -44.833 330 -134.5s112 -209.5 112 -359.5v-131h-669l-2 -5
c2.66699 -88.667 26 -160.667 70 -216s110.333 -83 199 -83c66 0 123.167 8 171.5 24s93.166 39 134.499 69l79 -159c-41.333 -36 -96 -66.333 -164 -91s-146.333 -37 -235 -37zM326 530c0 -106 20.668 -191.999 62.001 -257.999s105.333 -99 192 -99
c84.667 0 148.167 33.167 190.5 99.5s63.5 152.166 63.5 257.499v21c0 103.333 -21.167 188.5 -63.5 255.5s-106.5 100.5 -192.5 100.5c-84.667 0 -147.834 -33.5 -189.501 -100.5s-62.5 -152.167 -62.5 -255.5v-21zM1341 907.001c-63.333 0 -114 -22.833 -152 -68.5
s-61.667 -105.167 -71 -178.5l2 -5h423v19c0 69.333 -16.167 125.5 -48.5 168.5s-83.5 64.5 -153.5 64.5z" />
    <glyph glyph-name="Racute" unicode="&#x154;" horiz-adv-x="1303" 
d="M396 604l-0.000976562 -604h-243v1456h501c162 0 287.333 -36.667 376 -110s133 -178 133 -314c0 -75.333 -19.5 -140.166 -58.5 -194.499s-95.833 -97.833 -170.5 -130.5c82 -26 141.167 -68.333 177.5 -127s54.5 -131.334 54.5 -218.001v-121
c0 -42.667 5.33301 -84.334 16 -125.001s28.334 -71.667 53.001 -93v-23h-250c-26.667 22 -43.667 56.333 -51 103s-11 93.334 -11 140.001v117c0 74.667 -21.5 134 -64.5 178s-101.5 66 -175.5 66h-287zM395.999 799h245c97.333 0 168.333 18.667 213 56s67 94.333 67 171
c0 73.333 -22 130.833 -66 172.5s-111 62.5 -201 62.5h-258v-462zM695.999 1865h275l2 -6l-273 -260h-195z" />
    <glyph glyph-name="racute" unicode="&#x155;" horiz-adv-x="719" 
d="M667 863l-104.002 4c-47.333 0 -86.833 -10 -118.5 -30s-56.167 -48.333 -73.5 -85v-752h-243v1082h222l16 -157c27.333 55.333 62.5 98.666 105.5 129.999s92.5 47 148.5 47c14.667 0 28.334 -1.16699 41.001 -3.5s24.334 -5.16602 35.001 -8.49902zM488.998 1543h275
l2 -6l-273 -260h-195z" />
    <glyph glyph-name="Rcommaaccent" unicode="&#x156;" horiz-adv-x="1303" 
d="M396 604l-0.000976562 -604h-243v1456h501c162 0 287.333 -36.667 376 -110s133 -178 133 -314c0 -75.333 -19.5 -140.166 -58.5 -194.499s-95.833 -97.833 -170.5 -130.5c82 -26 141.167 -68.333 177.5 -127s54.5 -131.334 54.5 -218.001v-121
c0 -42.667 5.33301 -84.334 16 -125.001s28.334 -71.667 53.001 -93v-23h-250c-26.667 22 -43.667 56.333 -51 103s-11 93.334 -11 140.001v117c0 74.667 -21.5 134 -64.5 178s-101.5 66 -175.5 66h-287zM395.999 799h245c97.333 0 168.333 18.667 213 56s67 94.333 67 171
c0 73.333 -22 130.833 -66 172.5s-111 62.5 -201 62.5h-258v-462zM697.999 -247l-126 -238h-110l61 248v142h175v-152z" />
    <glyph glyph-name="rcommaaccent" unicode="&#x157;" horiz-adv-x="719" 
d="M667 863l-104.002 4c-47.333 0 -86.833 -10 -118.5 -30s-56.167 -48.333 -73.5 -85v-752h-243v1082h222l16 -157c27.333 55.333 62.5 98.666 105.5 129.999s92.5 47 148.5 47c14.667 0 28.334 -1.16699 41.001 -3.5s24.334 -5.16602 35.001 -8.49902zM341.998 -247
l-126 -238h-110l61 248v142h175v-152z" />
    <glyph glyph-name="Rcaron" unicode="&#x158;" horiz-adv-x="1303" 
d="M396 604l-0.000976562 -604h-243v1456h501c162 0 287.333 -36.667 376 -110s133 -178 133 -314c0 -75.333 -19.5 -140.166 -58.5 -194.499s-95.833 -97.833 -170.5 -130.5c82 -26 141.167 -68.333 177.5 -127s54.5 -131.334 54.5 -218.001v-121
c0 -42.667 5.33301 -84.334 16 -125.001s28.334 -71.667 53.001 -93v-23h-250c-26.667 22 -43.667 56.333 -51 103s-11 93.334 -11 140.001v117c0 74.667 -21.5 134 -64.5 178s-101.5 66 -175.5 66h-287zM395.999 799h245c97.333 0 168.333 18.667 213 56s67 94.333 67 171
c0 73.333 -22 130.833 -66 172.5s-111 62.5 -201 62.5h-258v-462zM617.999 1734l132 136h215v-17l-268 -252h-157l-267 250v19h213z" />
    <glyph glyph-name="rcaron" unicode="&#x159;" horiz-adv-x="719" 
d="M667 863l-104.002 4c-47.333 0 -86.833 -10 -118.5 -30s-56.167 -48.333 -73.5 -85v-752h-243v1082h222l16 -157c27.333 55.333 62.5 98.666 105.5 129.999s92.5 47 148.5 47c14.667 0 28.334 -1.16699 41.001 -3.5s24.334 -5.16602 35.001 -8.49902zM411.998 1412
l132 136h215v-17l-268 -252h-157l-267 250v19h213z" />
    <glyph glyph-name="Sacute" unicode="&#x15a;" horiz-adv-x="1259" 
d="M920 374c0 60.667 -21.5 110.335 -64.5 149.002s-119.167 73.334 -228.5 104.001c-156.667 43.333 -277.5 100.166 -362.5 170.499s-127.5 162.166 -127.5 275.499c0 117.333 46.667 214 140 290s213.333 114 360 114c157.333 0 283.166 -42.167 377.499 -126.5
s139.833 -188.5 136.5 -312.5l-2 -6h-234c0 76.667 -25.5 137.667 -76.5 183s-118.833 68 -203.5 68c-82 0 -145.167 -19.333 -189.5 -58s-66.5 -88.667 -66.5 -150c0 -56 24.333 -102.167 73 -138.5s129.334 -70.833 242.001 -103.5
c152.667 -42.667 269 -100.834 349 -174.501s120 -167.834 120 -282.501c0 -120.667 -47.333 -217 -142 -289s-219 -108 -373 -108c-148 0 -277 39.333 -387 118s-163.333 189.667 -160 333l2 6h234c0 -87.333 30.167 -153.166 90.5 -197.499s133.833 -66.5 220.5 -66.5
c86 0 152.833 18.167 200.5 54.5s71.5 85.5 71.5 147.5zM705 1886h275l2 -6l-273 -260h-195z" />
    <glyph glyph-name="sacute" unicode="&#x15b;" horiz-adv-x="1065" 
d="M736 296c0 37.333 -15.835 68.1699 -47.502 92.5029s-91.5 46.166 -179.5 65.499c-127.333 26 -224.666 64.333 -291.999 115s-101 118.667 -101 204c0 90.667 38.333 168.167 115 232.5s177.667 96.5 303 96.5c129.333 0 233.5 -33.167 312.5 -99.5
s116.833 -146.166 113.5 -239.499l-2 -6h-233c0 44 -17.333 82.167 -52 114.5s-81 48.5 -139 48.5c-58.667 0 -103.334 -13.333 -134.001 -40s-46 -59.334 -46 -98.001c0 -36.667 14.333 -66 43 -88s87.667 -41.667 177 -59c132.667 -26.667 232.667 -65.834 300 -117.501
s101 -120.834 101 -207.501c0 -97.333 -40.167 -176.833 -120.5 -238.5s-186.166 -92.5 -317.499 -92.5c-140.667 0 -251.667 36 -333 108s-120 154.667 -116 248l2 6h226c2.66699 -62.667 25.334 -108.334 68.001 -137.001s94.667 -43 156 -43
c62 0 110.167 12.333 144.5 37s51.5 57.334 51.5 98.001zM604.998 1543h275l2 -6l-273 -260h-195z" />
    <glyph glyph-name="Scircumflex" unicode="&#x15c;" horiz-adv-x="1259" 
d="M920 374c0 60.667 -21.5 110.335 -64.5 149.002s-119.167 73.334 -228.5 104.001c-156.667 43.333 -277.5 100.166 -362.5 170.499s-127.5 162.166 -127.5 275.499c0 117.333 46.667 214 140 290s213.333 114 360 114c157.333 0 283.166 -42.167 377.499 -126.5
s139.833 -188.5 136.5 -312.5l-2 -6h-234c0 76.667 -25.5 137.667 -76.5 183s-118.833 68 -203.5 68c-82 0 -145.167 -19.333 -189.5 -58s-66.5 -88.667 -66.5 -150c0 -56 24.333 -102.167 73 -138.5s129.334 -70.833 242.001 -103.5
c152.667 -42.667 269 -100.834 349 -174.501s120 -167.834 120 -282.501c0 -120.667 -47.333 -217 -142 -289s-219 -108 -373 -108c-148 0 -277 39.333 -387 118s-163.333 189.667 -160 333l2 6h234c0 -87.333 30.167 -153.166 90.5 -197.499s133.833 -66.5 220.5 -66.5
c86 0 152.833 18.167 200.5 54.5s71.5 85.5 71.5 147.5zM966 1642v-24h-195l-143 139l-142 -139h-193v26l264 240h143z" />
    <glyph glyph-name="scircumflex" unicode="&#x15d;" horiz-adv-x="1065" 
d="M736 296c0 37.333 -15.835 68.1699 -47.502 92.5029s-91.5 46.166 -179.5 65.499c-127.333 26 -224.666 64.333 -291.999 115s-101 118.667 -101 204c0 90.667 38.333 168.167 115 232.5s177.667 96.5 303 96.5c129.333 0 233.5 -33.167 312.5 -99.5
s116.833 -146.166 113.5 -239.499l-2 -6h-233c0 44 -17.333 82.167 -52 114.5s-81 48.5 -139 48.5c-58.667 0 -103.334 -13.333 -134.001 -40s-46 -59.334 -46 -98.001c0 -36.667 14.333 -66 43 -88s87.667 -41.667 177 -59c132.667 -26.667 232.667 -65.834 300 -117.501
s101 -120.834 101 -207.501c0 -97.333 -40.167 -176.833 -120.5 -238.5s-186.166 -92.5 -317.499 -92.5c-140.667 0 -251.667 36 -333 108s-120 154.667 -116 248l2 6h226c2.66699 -62.667 25.334 -108.334 68.001 -137.001s94.667 -43 156 -43
c62 0 110.167 12.333 144.5 37s51.5 57.334 51.5 98.001zM865.998 1299v-24h-195l-143 139l-142 -139h-193v26l264 240h143z" />
    <glyph glyph-name="Scedilla" unicode="&#x15e;" horiz-adv-x="1259" 
d="M920 374c0 60.667 -21.5 110.335 -64.5 149.002s-119.167 73.334 -228.5 104.001c-156.667 43.333 -277.5 100.166 -362.5 170.499s-127.5 162.166 -127.5 275.499c0 117.333 46.667 214 140 290s213.333 114 360 114c157.333 0 283.166 -42.167 377.499 -126.5
s139.833 -188.5 136.5 -312.5l-2 -6h-234c0 76.667 -25.5 137.667 -76.5 183s-118.833 68 -203.5 68c-82 0 -145.167 -19.333 -189.5 -58s-66.5 -88.667 -66.5 -150c0 -56 24.333 -102.167 73 -138.5s129.334 -70.833 242.001 -103.5
c152.667 -42.667 269 -100.834 349 -174.501s120 -167.834 120 -282.501c0 -120.667 -47.333 -217 -142 -289s-219 -108 -373 -108c-148 0 -277 39.333 -387 118s-163.333 189.667 -160 333l2 6h234c0 -87.333 30.167 -153.166 90.5 -197.499s133.833 -66.5 220.5 -66.5
c86 0 152.833 18.167 200.5 54.5s71.5 85.5 71.5 147.5zM721 -5.99902l-11 -54.002c42.667 -7.33301 78.334 -24.666 107.001 -51.999s43 -67.666 43 -120.999c0 -68 -28.333 -122.167 -85 -162.5s-137.334 -60.5 -242.001 -60.5l-7 137c41.333 0 74.5 7.33301 99.5 22
s37.5 37 37.5 67c0 29.333 -11.5 50 -34.5 62s-61.833 19.667 -116.5 23l32 139h177z" />
    <glyph glyph-name="scedilla" unicode="&#x15f;" horiz-adv-x="1065" 
d="M736 296c0 37.333 -15.835 68.1699 -47.502 92.5029s-91.5 46.166 -179.5 65.499c-127.333 26 -224.666 64.333 -291.999 115s-101 118.667 -101 204c0 90.667 38.333 168.167 115 232.5s177.667 96.5 303 96.5c129.333 0 233.5 -33.167 312.5 -99.5
s116.833 -146.166 113.5 -239.499l-2 -6h-233c0 44 -17.333 82.167 -52 114.5s-81 48.5 -139 48.5c-58.667 0 -103.334 -13.333 -134.001 -40s-46 -59.334 -46 -98.001c0 -36.667 14.333 -66 43 -88s87.667 -41.667 177 -59c132.667 -26.667 232.667 -65.834 300 -117.501
s101 -120.834 101 -207.501c0 -97.333 -40.167 -176.833 -120.5 -238.5s-186.166 -92.5 -317.499 -92.5c-140.667 0 -251.667 36 -333 108s-120 154.667 -116 248l2 6h226c2.66699 -62.667 25.334 -108.334 68.001 -137.001s94.667 -43 156 -43
c62 0 110.167 12.333 144.5 37s51.5 57.334 51.5 98.001zM620.998 -5.99609l-11 -54.002c42.667 -7.33301 78.334 -24.666 107.001 -51.999s43 -67.666 43 -120.999c0 -68 -28.333 -122.167 -85 -162.5s-137.334 -60.5 -242.001 -60.5l-7 137c41.333 0 74.5 7.33301 99.5 22
s37.5 37 37.5 67c0 29.333 -11.5 50 -34.5 62s-61.833 19.667 -116.5 23l32 139h177z" />
    <glyph glyph-name="Scaron" unicode="&#x160;" horiz-adv-x="1259" 
d="M920 374c0 60.667 -21.5 110.335 -64.5 149.002s-119.167 73.334 -228.5 104.001c-156.667 43.333 -277.5 100.166 -362.5 170.499s-127.5 162.166 -127.5 275.499c0 117.333 46.667 214 140 290s213.333 114 360 114c157.333 0 283.166 -42.167 377.499 -126.5
s139.833 -188.5 136.5 -312.5l-2 -6h-234c0 76.667 -25.5 137.667 -76.5 183s-118.833 68 -203.5 68c-82 0 -145.167 -19.333 -189.5 -58s-66.5 -88.667 -66.5 -150c0 -56 24.333 -102.167 73 -138.5s129.334 -70.833 242.001 -103.5
c152.667 -42.667 269 -100.834 349 -174.501s120 -167.834 120 -282.501c0 -120.667 -47.333 -217 -142 -289s-219 -108 -373 -108c-148 0 -277 39.333 -387 118s-163.333 189.667 -160 333l2 6h234c0 -87.333 30.167 -153.166 90.5 -197.499s133.833 -66.5 220.5 -66.5
c86 0 152.833 18.167 200.5 54.5s71.5 85.5 71.5 147.5zM627 1755l132 136h215v-17l-268 -252h-157l-267 250v19h213z" />
    <glyph glyph-name="scaron" unicode="&#x161;" horiz-adv-x="1065" 
d="M736 296c0 37.333 -15.835 68.1699 -47.502 92.5029s-91.5 46.166 -179.5 65.499c-127.333 26 -224.666 64.333 -291.999 115s-101 118.667 -101 204c0 90.667 38.333 168.167 115 232.5s177.667 96.5 303 96.5c129.333 0 233.5 -33.167 312.5 -99.5
s116.833 -146.166 113.5 -239.499l-2 -6h-233c0 44 -17.333 82.167 -52 114.5s-81 48.5 -139 48.5c-58.667 0 -103.334 -13.333 -134.001 -40s-46 -59.334 -46 -98.001c0 -36.667 14.333 -66 43 -88s87.667 -41.667 177 -59c132.667 -26.667 232.667 -65.834 300 -117.501
s101 -120.834 101 -207.501c0 -97.333 -40.167 -176.833 -120.5 -238.5s-186.166 -92.5 -317.499 -92.5c-140.667 0 -251.667 36 -333 108s-120 154.667 -116 248l2 6h226c2.66699 -62.667 25.334 -108.334 68.001 -137.001s94.667 -43 156 -43
c62 0 110.167 12.333 144.5 37s51.5 57.334 51.5 98.001zM526.998 1412l132 136h215v-17l-268 -252h-157l-267 250v19h213z" />
    <glyph glyph-name="Tcommaaccent" unicode="&#x162;" horiz-adv-x="1202" 
d="M1170 1261h-450v-1261h-243v1261h-443v195h1136v-195zM681 -247l-126 -238h-110l61 248v142h175v-152z" />
    <glyph glyph-name="tcommaaccent" unicode="&#x163;" horiz-adv-x="701" 
d="M439 1345v-263.001h194v-180h-194v-598c0 -44.667 9.66699 -76.5 29 -95.5s45 -28.5 77 -28.5c13.333 0 26.333 1.16699 39 3.5s24.667 5.5 36 9.5l26 -178c-20.667 -11.333 -45.167 -20.166 -73.5 -26.499s-57.833 -9.5 -88.5 -9.5c-89.333 0 -159.5 26.167 -210.5 78.5
s-76.5 134.5 -76.5 246.5v598h-165v180h165v263h242zM533 -257.001l-126 -238h-110l61 248v142h175v-152z" />
    <glyph glyph-name="Tcaron" unicode="&#x164;" horiz-adv-x="1202" 
d="M1170 1261h-450v-1261h-243v1261h-443v195h1136v-195zM601 1734l132 136h215v-17l-268 -252h-157l-267 250v19h213z" />
    <glyph glyph-name="tcaron" unicode="&#x165;" horiz-adv-x="701" 
d="M439 1345v-263.001h194v-180h-194v-598c0 -44.667 9.66699 -76.5 29 -95.5s45 -28.5 77 -28.5c13.333 0 26.333 1.16699 39 3.5s24.667 5.5 36 9.5l26 -178c-20.667 -11.333 -45.167 -20.166 -73.5 -26.499s-57.833 -9.5 -88.5 -9.5c-89.333 0 -159.5 26.167 -210.5 78.5
s-76.5 134.5 -76.5 246.5v598h-165v180h165v263h242zM809 1438l-126 -238h-110l61 248v142h175v-152z" />
    <glyph glyph-name="Tbar" unicode="&#x166;" horiz-adv-x="1202" 
d="M928 786h-208v-786h-243v786h-204v170h204v305h-443v195h1136v-195h-450v-305h208v-170z" />
    <glyph glyph-name="tbar" unicode="&#x167;" horiz-adv-x="701" 
d="M439 1345v-263.001h194v-180h-194v-165h213v-170h-213v-263c0 -44.667 9.66699 -76.5 29 -95.5s45 -28.5 77 -28.5c13.333 0 26.333 1.16699 39 3.5s24.667 5.5 36 9.5l26 -178c-20.667 -11.333 -45.167 -20.166 -73.5 -26.499s-57.833 -9.5 -88.5 -9.5
c-89.333 0 -159.5 26.167 -210.5 78.5s-76.5 134.5 -76.5 246.5v263h-200v170h200v165h-165v180h165v263h242z" />
    <glyph glyph-name="Utilde" unicode="&#x168;" horiz-adv-x="1396" 
d="M1265 1456v-959c0 -162 -53.167 -288.833 -159.5 -380.5s-243.5 -137.5 -411.5 -137.5c-165.333 0 -300 45.833 -404 137.5s-156 218.5 -156 380.5v959h243v-959c0 -103.333 29 -183.166 87 -239.499s134.667 -84.5 230 -84.5c98.667 0 178 28.167 238 84.5
s90 136.166 90 239.499v959h243zM1061 1852c0 -63.333 -20.001 -117.333 -60.001 -162s-90 -67 -150 -67c-47.333 0 -98.5 14.833 -153.5 44.5s-99.5 44.5 -133.5 44.5c-26 0 -48 -10.833 -66 -32.5s-27 -47.5 -27 -77.5l-131 35c0 62.667 19.833 117.167 59.5 163.5
s89.5 69.5 149.5 69.5c37.333 0 85.833 -14.833 145.5 -44.5s106.834 -44.5 141.501 -44.5c25.333 0 47.333 10.667 66 32s28 47.333 28 78z" />
    <glyph glyph-name="utilde" unicode="&#x169;" 
d="M803 160c-33.333 -58 -76.1689 -102.668 -128.502 -134.001s-112.833 -47 -181.5 -47c-116 0 -206.667 38.167 -272 114.5s-98 194.833 -98 355.5v633h242v-635c0 -103.333 15 -174.166 45 -212.499s76.667 -57.5 140 -57.5c58.667 0 107.834 10.5 147.501 31.5
s70.834 51.5 93.501 91.5v782h243v-1082h-209zM938.997 1509c0 -63.333 -20.001 -117.333 -60.001 -162s-90 -67 -150 -67c-47.333 0 -98.5 14.833 -153.5 44.5s-99.5 44.5 -133.5 44.5c-26 0 -48 -10.833 -66 -32.5s-27 -47.5 -27 -77.5l-131 35
c0 62.667 19.833 117.167 59.5 163.5s89.5 69.5 149.5 69.5c37.333 0 85.833 -14.833 145.5 -44.5s106.834 -44.5 141.501 -44.5c25.333 0 47.333 10.667 66 32s28 47.333 28 78z" />
    <glyph glyph-name="Umacron" unicode="&#x16a;" horiz-adv-x="1396" 
d="M1265 1456v-959c0 -162 -53.167 -288.833 -159.5 -380.5s-243.5 -137.5 -411.5 -137.5c-165.333 0 -300 45.833 -404 137.5s-156 218.5 -156 380.5v959h243v-959c0 -103.333 29 -183.166 87 -239.499s134.667 -84.5 230 -84.5c98.667 0 178 28.167 238 84.5
s90 136.166 90 239.499v959h243zM1067 1624h-727v158h727v-158z" />
    <glyph glyph-name="umacron" unicode="&#x16b;" 
d="M803 160c-33.333 -58 -76.1689 -102.668 -128.502 -134.001s-112.833 -47 -181.5 -47c-116 0 -206.667 38.167 -272 114.5s-98 194.833 -98 355.5v633h242v-635c0 -103.333 15 -174.166 45 -212.499s76.667 -57.5 140 -57.5c58.667 0 107.834 10.5 147.501 31.5
s70.834 51.5 93.501 91.5v782h243v-1082h-209zM944.997 1282h-727v158h727v-158z" />
    <glyph glyph-name="Ubreve" unicode="&#x16c;" horiz-adv-x="1396" 
d="M1265 1456v-959c0 -162 -53.167 -288.833 -159.5 -380.5s-243.5 -137.5 -411.5 -137.5c-165.333 0 -300 45.833 -404 137.5s-156 218.5 -156 380.5v959h243v-959c0 -103.333 29 -183.166 87 -239.499s134.667 -84.5 230 -84.5c98.667 0 178 28.167 238 84.5
s90 136.166 90 239.499v959h243zM1015 1884l3 -6c2.66699 -82 -25 -148.667 -83 -200s-136 -77 -234 -77c-98.667 0 -177 25.667 -235 77s-85.333 118 -82 200l3 6h180c0 -38.667 10.833 -70.334 32.5 -95.001s55.5 -37 101.5 -37c44.667 0 78 12.333 100 37
s33 56.334 33 95.001h181z" />
    <glyph glyph-name="ubreve" unicode="&#x16d;" 
d="M803 160c-33.333 -58 -76.1689 -102.668 -128.502 -134.001s-112.833 -47 -181.5 -47c-116 0 -206.667 38.167 -272 114.5s-98 194.833 -98 355.5v633h242v-635c0 -103.333 15 -174.166 45 -212.499s76.667 -57.5 140 -57.5c58.667 0 107.834 10.5 147.501 31.5
s70.834 51.5 93.501 91.5v782h243v-1082h-209zM892.997 1541l3 -6c2.66699 -82 -25 -148.667 -83 -200s-136 -77 -234 -77c-98.667 0 -177 25.667 -235 77s-85.333 118 -82 200l3 6h180c0 -38.667 10.833 -70.334 32.5 -95.001s55.5 -37 101.5 -37
c44.667 0 78 12.333 100 37s33 56.334 33 95.001h181z" />
    <glyph glyph-name="Uring" unicode="&#x16e;" horiz-adv-x="1396" 
d="M1265 1456v-959c0 -162 -53.167 -288.833 -159.5 -380.5s-243.5 -137.5 -411.5 -137.5c-165.333 0 -300 45.833 -404 137.5s-156 218.5 -156 380.5v959h243v-959c0 -103.333 29 -183.166 87 -239.499s134.667 -84.5 230 -84.5c98.667 0 178 28.167 238 84.5
s90 136.166 90 239.499v959h243zM519 1740c0 48.667 17.667 89.5 53 122.5s78.333 49.5 129 49.5c49.333 0 91.333 -16.5 126 -49.5s52 -73.833 52 -122.5c0 -49.333 -17.167 -89.5 -51.5 -120.5s-76.5 -46.5 -126.5 -46.5c-51.333 0 -94.5 15.667 -129.5 47
s-52.5 71.333 -52.5 120zM627 1740c0 -20.667 7.16699 -37.834 21.5 -51.501s31.833 -20.5 52.5 -20.5c19.333 0 35.833 6.83301 49.5 20.5s20.5 30.834 20.5 51.501c0 21.333 -6.66699 39.333 -20 54s-30 22 -50 22c-21.333 0 -39 -7.33301 -53 -22s-21 -32.667 -21 -54z
" />
    <glyph glyph-name="uring" unicode="&#x16f;" 
d="M803 160c-33.333 -58 -76.1689 -102.668 -128.502 -134.001s-112.833 -47 -181.5 -47c-116 0 -206.667 38.167 -272 114.5s-98 194.833 -98 355.5v633h242v-635c0 -103.333 15 -174.166 45 -212.499s76.667 -57.5 140 -57.5c58.667 0 107.834 10.5 147.501 31.5
s70.834 51.5 93.501 91.5v782h243v-1082h-209zM396.997 1397c0 48.667 17.667 89.5 53 122.5s78.333 49.5 129 49.5c49.333 0 91.333 -16.5 126 -49.5s52 -73.833 52 -122.5c0 -49.333 -17.167 -89.5 -51.5 -120.5s-76.5 -46.5 -126.5 -46.5
c-51.333 0 -94.5 15.667 -129.5 47s-52.5 71.333 -52.5 120zM504.997 1397c0 -20.667 7.16699 -37.834 21.5 -51.501s31.833 -20.5 52.5 -20.5c19.333 0 35.833 6.83301 49.5 20.5s20.5 30.834 20.5 51.501c0 21.333 -6.66699 39.333 -20 54s-30 22 -50 22
c-21.333 0 -39 -7.33301 -53 -22s-21 -32.667 -21 -54z" />
    <glyph glyph-name="Uhungarumlaut" unicode="&#x170;" horiz-adv-x="1396" 
d="M1265 1456v-959c0 -162 -53.167 -288.833 -159.5 -380.5s-243.5 -137.5 -411.5 -137.5c-165.333 0 -300 45.833 -404 137.5s-156 218.5 -156 380.5v959h243v-959c0 -103.333 29 -183.166 87 -239.499s134.667 -84.5 230 -84.5c98.667 0 178 28.167 238 84.5
s90 136.166 90 239.499v959h243zM975 1867h254l2 -6l-293 -260h-201l-2 5zM619 1867h243l2 -5l-240 -261h-195z" />
    <glyph glyph-name="uhungarumlaut" unicode="&#x171;" 
d="M803 160c-33.333 -58 -76.1689 -102.668 -128.502 -134.001s-112.833 -47 -181.5 -47c-116 0 -206.667 38.167 -272 114.5s-98 194.833 -98 355.5v633h242v-635c0 -103.333 15 -174.166 45 -212.499s76.667 -57.5 140 -57.5c58.667 0 107.834 10.5 147.501 31.5
s70.834 51.5 93.501 91.5v782h243v-1082h-209zM852.997 1524h254l2 -6l-293 -260h-201l-2 5zM496.997 1524h243l2 -5l-240 -261h-195z" />
    <glyph glyph-name="Uogonek" unicode="&#x172;" horiz-adv-x="1396" 
d="M1265 1456v-959c0 -162 -53.167 -288.833 -159.5 -380.5s-243.5 -137.5 -411.5 -137.5c-165.333 0 -300 45.833 -404 137.5s-156 218.5 -156 380.5v959h243v-959c0 -103.333 29 -183.166 87 -239.499s134.667 -84.5 230 -84.5c98.667 0 178 28.167 238 84.5
s90 136.166 90 239.499v959h243zM811 0c-41.333 -34 -72.834 -65.167 -94.501 -93.5s-32.5 -59.5 -32.5 -93.5c0 -22.667 6.5 -41.667 19.5 -57s36.833 -23 71.5 -23c18 0 33.833 2 47.5 6s29.834 9.66699 48.501 17l35 -142c-24 -12.667 -50.667 -23.167 -80 -31.5
s-64.333 -12.5 -105 -12.5c-67.333 0 -122.833 18.833 -166.5 56.5s-65.5 90.167 -65.5 157.5c0 52.667 18.167 102.667 54.5 150s92.5 89.333 168.5 126z" />
    <glyph glyph-name="uogonek" unicode="&#x173;" 
d="M803 160c-33.333 -58 -76.1689 -102.668 -128.502 -134.001s-112.833 -47 -181.5 -47c-116 0 -206.667 38.167 -272 114.5s-98 194.833 -98 355.5v633h242v-635c0 -103.333 15 -174.166 45 -212.499s76.667 -57.5 140 -57.5c58.667 0 107.834 10.5 147.501 31.5
s70.834 51.5 93.501 91.5v782h243v-1082h-209zM979.997 -0.000976562c-41.333 -34 -72.834 -65.167 -94.501 -93.5s-32.5 -59.5 -32.5 -93.5c0 -22.667 6.5 -41.667 19.5 -57s36.833 -23 71.5 -23c18 0 33.833 2 47.5 6s29.834 9.66699 48.501 17l35 -142
c-24 -12.667 -50.667 -23.167 -80 -31.5s-64.333 -12.5 -105 -12.5c-67.333 0 -122.833 18.833 -166.5 56.5s-65.5 90.167 -65.5 157.5c0 52.667 18.167 102.667 54.5 150s92.5 89.333 168.5 126z" />
    <glyph glyph-name="Wcircumflex" unicode="&#x174;" horiz-adv-x="1781" 
d="M1276 406h6l214 1050h256l-346 -1456h-221l-291 1036h-6l-292 -1036h-222l-345 1456h255l216 -1049h6l277 1049h214zM1228 1621v-24h-195l-143 139l-142 -139h-193v26l264 240h143z" />
    <glyph glyph-name="wcircumflex" unicode="&#x175;" horiz-adv-x="1530" 
d="M1081 321h6l158 761h243l-296 -1082h-199l-229 716h-6l-226 -716h-199l-296 1082h243l162 -751h6l226 751h177zM1101 1278v-24h-195l-143 139l-142 -139h-193v26l264 240h143z" />
    <glyph glyph-name="Ycircumflex" unicode="&#x176;" horiz-adv-x="1300" 
d="M648 748l351 708h271l-505 -947v-509h-242v524l-497 932h271zM989 1621v-24h-195l-143 139l-142 -139h-193v26l264 240h143z" />
    <glyph glyph-name="ycircumflex" unicode="&#x177;" horiz-adv-x="1038" 
d="M487 434l24 -108.001h6l237 756h266l-448 -1246c-28.667 -75.333 -69 -139.666 -121 -192.999s-125.667 -80 -221 -80c-20 0 -41.5 2 -64.5 6s-45.167 8.66699 -66.5 14l27 188c8.66699 -0.666992 21 -1.66699 37 -3s28 -2 36 -2c44 0 79.167 15 105.5 45
s47.833 64.667 64.5 104l40 98l-393 1069h265zM856 1278v-24h-195l-143 139l-142 -139h-193v26l264 240h143z" />
    <glyph glyph-name="Ydieresis" unicode="&#x178;" horiz-adv-x="1300" 
d="M648 748l351 708h271l-505 -947v-509h-242v524l-497 932h271zM1014 1601h-242v204h242v-204zM530 1601h-241v204h241v-204z" />
    <glyph glyph-name="Zacute" unicode="&#x179;" horiz-adv-x="1196" 
d="M374 194h739v-194h-1025v152l711 1109h-705v195h993v-146zM682 1866h275l2 -6l-273 -260h-195z" />
    <glyph glyph-name="zacute" unicode="&#x17a;" horiz-adv-x="1038" 
d="M386 194h578v-194h-879v159l546 727h-535v196h842v-154zM601 1522h275l2 -6l-273 -260h-195z" />
    <glyph glyph-name="Zdotaccent" unicode="&#x17b;" horiz-adv-x="1196" 
d="M374 194h739v-194h-1025v152l711 1109h-705v195h993v-146zM740 1603h-270v223h270v-223z" />
    <glyph glyph-name="zdotaccent" unicode="&#x17c;" horiz-adv-x="1038" 
d="M386 194h578v-194h-879v159l546 727h-535v196h842v-154zM659 1259h-270v223h270v-223z" />
    <glyph glyph-name="Zcaron" unicode="&#x17d;" horiz-adv-x="1196" 
d="M374 194h739v-194h-1025v152l711 1109h-705v195h993v-146zM604 1735l132 136h215v-17l-268 -252h-157l-267 250v19h213z" />
    <glyph glyph-name="zcaron" unicode="&#x17e;" horiz-adv-x="1038" 
d="M386 194h578v-194h-879v159l546 727h-535v196h842v-154zM523 1391l132 136h215v-17l-268 -252h-157l-267 250v19h213z" />
    <glyph glyph-name="longs" unicode="&#x17f;" horiz-adv-x="524" 
d="M139 0v1208c0 119.333 32.5 211.333 97.5 276s155.833 97 272.5 97c24 0 48 -1.83301 72 -5.5s50.667 -8.83398 80 -15.501l-25 -185c-14.667 3.33301 -29.167 6 -43.5 8s-30.5 3 -48.5 3c-52.667 0 -93 -15.667 -121 -47s-42 -75 -42 -131v-1208h-242z" />
    <glyph glyph-name="florin" unicode="&#x192;" horiz-adv-x="720" 
d="M644 902l-201.002 0.000976562v-965c0 -119.333 -31 -211.5 -93 -276.5s-148.333 -97.5 -259 -97.5c-24 0 -45.667 1.33301 -65 4s-39.666 7 -60.999 13l15 191c11.333 -3.33301 26.666 -6.33301 45.999 -9s36.333 -4 51 -4c38.667 0 68.834 15.833 90.501 47.5
s32.5 75.5 32.5 131.5v965h-165v180h165v126c0 119.333 32.5 211.333 97.5 276s156.167 97 273.5 97c23.333 0 47 -1.83301 71 -5.5s51 -8.83398 81 -15.501l-25 -188c-13.333 2.66699 -28.166 5 -44.499 7s-33.833 3 -52.5 3c-52.667 0 -92.167 -15 -118.5 -45
s-39.5 -73 -39.5 -129v-126h201v-180z" />
    <glyph glyph-name="Ohorn" unicode="&#x1a0;" horiz-adv-x="1417" 
d="M1292 597c0 -178 -55.833 -325.5 -167.5 -442.5s-256.834 -175.5 -435.501 -175.5c-174 0 -315.667 58.5 -425 175.5s-164 264.5 -164 442.5v262c0 177.333 54.5 324.666 163.5 441.999s250.833 176 425.5 176c84.667 0 162.834 -14.5 234.501 -43.5
s134.5 -69.5 188.5 -121.5c74 13.333 130.5 47.833 169.5 103.5s58.5 128.834 58.5 219.501h208c0 -128 -27.5 -233.5 -82.5 -316.5s-133.833 -139.833 -236.5 -170.5c20 -43.333 35.5 -89.333 46.5 -138s16.5 -99 16.5 -151v-262zM1049 861
c0 121.333 -32.3311 221 -96.998 299s-152.334 117 -263.001 117c-107.333 0 -191.833 -39 -253.5 -117s-92.5 -177.667 -92.5 -299v-264c0 -122.667 31 -223.167 93 -301.5s146.333 -117.5 253 -117.5c111.333 0 199.166 39 263.499 117s96.5 178.667 96.5 302v264z" />
    <glyph glyph-name="ohorn" unicode="&#x1a1;" horiz-adv-x="1183" 
d="M83 551c0 161.333 44.167 293.501 132.5 396.501s209.166 154.5 362.499 154.5c72.667 0 138.5 -12.167 197.5 -36.5s110.167 -58.5 153.5 -102.5c44.667 18 78.334 49.667 101.001 95s34 101.666 34 168.999h195c0 -97.333 -21 -178.833 -63 -244.5
s-103 -112.167 -183 -139.5c20 -42.667 35.5 -88.5 46.5 -137.5s16.5 -100.5 16.5 -154.5v-21c0 -162.667 -44.167 -295.167 -132.5 -397.5s-209.5 -153.5 -363.5 -153.5c-154.667 0 -276.167 51.333 -364.5 154s-132.5 235 -132.5 397v21zM326 530.001
c0 -106 20.668 -191.999 62.001 -257.999s105.333 -99 192 -99c84.667 0 148.167 33.167 190.5 99.5s63.5 152.166 63.5 257.499v21c0 103.333 -21.167 188.5 -63.5 255.5s-106.5 100.5 -192.5 100.5c-84.667 0 -147.834 -33.5 -189.501 -100.5s-62.5 -152.167 -62.5 -255.5
v-21z" />
    <glyph glyph-name="Uhorn" unicode="&#x1af;" horiz-adv-x="1445" 
d="M1265 1456l0.000976562 -180.001l6 -2c55.333 16.667 96.666 52.834 123.999 108.501s41 127.5 41 215.5h208c0 -142.667 -32 -256.5 -96 -341.5s-158.333 -138.167 -283 -159.5v-600c0 -162 -53.167 -288.833 -159.5 -380.5s-243.5 -137.5 -411.5 -137.5
c-165.333 0 -300 45.833 -404 137.5s-156 218.5 -156 380.5v959h243v-959c0 -103.333 29 -183.166 87 -239.499s134.667 -84.5 230 -84.5c98.667 0 178 28.167 238 84.5s90 136.166 90 239.499v959h243z" />
    <glyph glyph-name="uhorn" unicode="&#x1b0;" horiz-adv-x="1187" 
d="M1388 1210l1.99707 -5.00391c2 -118.667 -25.833 -210.667 -83.5 -276s-148.5 -103.666 -272.5 -114.999v-814h-209l-22 160c-33.333 -58 -76.166 -102.667 -128.499 -134s-112.833 -47 -181.5 -47c-116 0 -206.667 38.167 -272 114.5s-98 194.833 -98 355.5v633h242
v-635c0 -103.333 15 -174.166 45 -212.499s76.667 -57.5 140 -57.5c58.667 0 107.834 10.5 147.501 31.5s70.834 51.5 93.501 91.5v782h243v-120l6 -2c61.333 6.66699 104.833 30.334 130.5 71.001s38.5 100.334 38.5 179.001h179z" />
    <glyph glyph-name="uni01F0" unicode="&#x1f0;" horiz-adv-x="550" 
d="M403 1082v-1145c0 -119.333 -31 -211.5 -93 -276.5s-148.333 -97.5 -259 -97.5c-24 0 -45.667 1.33301 -65 4s-39.666 7 -60.999 13l15 191c11.333 -3.33301 26.666 -6.33301 45.999 -9s36.333 -4 51 -4c38.667 0 69 15.833 91 47.5s33 75.5 33 131.5v1145h242zM273 1378
l132 136h215v-17l-268 -252h-157l-267 250v19h213z" />
    <glyph glyph-name="Aringacute" unicode="&#x1fa;" horiz-adv-x="1300" 
d="M911 340h-516l-112 -340h-251l508 1456h231l502 -1456h-251zM462 543h383l-187 574h-6zM751 2114h227l2 -6l-238 -192h-148l-3 5zM465 1690c0 50.667 18.167 93 54.5 127s80.833 51 133.5 51c51.333 0 94.833 -17 130.5 -51s53.5 -76.333 53.5 -127
s-17.833 -92.167 -53.5 -124.5s-79.167 -48.5 -130.5 -48.5c-53.333 0 -98 16.167 -134 48.5s-54 73.833 -54 124.5zM564 1690c0 -24.667 8.50098 -45.167 25.501 -61.5s38.167 -24.5 63.5 -24.5c23.333 0 43.166 8.16699 59.499 24.5s24.5 36.833 24.5 61.5
c0 25.333 -8 46.666 -24 63.999s-36 26 -60 26c-25.333 0 -46.5 -8.66699 -63.5 -26s-25.5 -38.666 -25.5 -63.999z" />
    <glyph glyph-name="aringacute" unicode="&#x1fb;" horiz-adv-x="1114" 
d="M780 0c-8.66699 27.333 -15.832 54 -21.499 80s-9.5 52 -11.5 78c-32.667 -50.667 -76.334 -93.167 -131.001 -127.5s-115.667 -51.5 -183 -51.5c-112.667 0 -199.167 29 -259.5 87s-90.5 137.667 -90.5 239c0 104.667 41.333 186.167 124 244.5s199 87.5 349 87.5h189
v95c0 56.667 -16.5 101 -49.5 133s-80.833 48 -143.5 48c-55.333 0 -99.333 -13.167 -132 -39.5s-49 -60.5 -49 -102.5l-234 -1l-1 6c-4.66699 85.333 33.5 161 114.5 227s186.5 99 316.5 99c126 0 227.667 -32 305 -96s116 -156 116 -276v-481c0 -44.667 3 -87.5 9 -128.5
s15.667 -81.167 29 -120.5h-246zM483.002 174c60.667 0 115.5 15.332 164.5 45.999s81.5 65.667 97.5 105v160h-193c-70.667 0 -126 -17.5 -166 -52.5s-60 -76.167 -60 -123.5c0 -41.333 13.5 -74.166 40.5 -98.499s65.833 -36.5 116.5 -36.5zM651.002 1792h227l2 -6
l-238 -192h-148l-3 5zM365.002 1368c0 50.667 18.167 93 54.5 127s80.833 51 133.5 51c51.333 0 94.833 -17 130.5 -51s53.5 -76.333 53.5 -127s-17.833 -92.167 -53.5 -124.5s-79.167 -48.5 -130.5 -48.5c-53.333 0 -98 16.167 -134 48.5s-54 73.833 -54 124.5z
M464.002 1368c0 -24.667 8.50098 -45.167 25.501 -61.5s38.167 -24.5 63.5 -24.5c23.333 0 43.166 8.16699 59.499 24.5s24.5 36.833 24.5 61.5c0 25.333 -8 46.666 -24 63.999s-36 26 -60 26c-25.333 0 -46.5 -8.66699 -63.5 -26s-25.5 -38.666 -25.5 -63.999z" />
    <glyph glyph-name="AEacute" unicode="&#x1fc;" horiz-adv-x="1976" 
d="M1902 0h-897l-15 340h-503l-184 -340h-290l835 1456h993v-197h-647l17 -408h549v-197h-541l20 -458h663v-196zM603 555h378l-27 638l-5 1zM1035 1865h275l2 -6l-273 -260h-195z" />
    <glyph glyph-name="aeacute" unicode="&#x1fd;" horiz-adv-x="1780" 
d="M1286 -21c-88 0 -166.169 14.833 -234.502 44.5s-124.5 72.167 -168.5 127.5c-39.333 -49.333 -94.666 -90.333 -165.999 -123s-156.666 -49 -255.999 -49c-120 0 -212.833 29.833 -278.5 89.5s-98.5 140.834 -98.5 243.501c0 105.333 40.167 186.666 120.5 243.999
s197.5 86 351.5 86h206v71c0 60.667 -15.5 108.167 -46.5 142.5s-75.167 51.5 -132.5 51.5c-62 0 -110.833 -15 -146.5 -45s-53.5 -66.667 -53.5 -110l-233 18l-2 6c-4 94 34.333 171.833 115 233.5s188 92.5 322 92.5c72 0 136.333 -11.167 193 -33.5
s103.667 -54.833 141 -97.5c42 42.667 91 75.167 147 97.5s117.333 33.5 184 33.5c142.667 0 253.334 -43.667 332.001 -131s118 -207 118 -359v-141h-680l-3 -6c2.66699 -87.333 27.334 -157.833 74.001 -211.5s116.667 -80.5 210 -80.5
c65.333 0 118.666 7.66699 159.999 23s89.666 38.333 144.999 69l72 -165c-38 -30.667 -90.5 -58.5 -157.5 -83.5s-145.167 -37.5 -234.5 -37.5zM507.998 164c44.667 0 91.334 12.166 140.001 36.499s86.667 52.833 114 85.5v189h-204
c-72.667 0 -129.334 -16.333 -170.001 -49s-61 -72 -61 -118c0 -43.333 15.167 -78.166 45.5 -104.499s75.5 -39.5 135.5 -39.5zM1250 906.999c-69.333 0 -123.333 -23.833 -162 -71.5s-61.334 -110.5 -68.001 -188.5l2 -5h438v30c0 70 -17.167 126.667 -51.5 170
s-87.166 65 -158.499 65zM968.998 1544h275l2 -6l-273 -260h-195z" />
    <glyph glyph-name="Oslashacute" unicode="&#x1fe;" horiz-adv-x="1403" 
d="M1297 597c0 -178 -55.835 -325.499 -167.502 -442.499s-256.834 -175.5 -435.501 -175.5c-55.333 0 -107.666 6.16699 -156.999 18.5s-95 30.5 -137 54.5l-86 -147h-148l131 222c-61.333 56 -108.666 124.5 -141.999 205.5s-50 169.167 -50 264.5v262
c0 177.333 54.5 324.666 163.5 441.999s250.833 176 425.5 176c64 0 124.5 -8.33301 181.5 -25s109.5 -40.667 157.5 -72l81 138h148l-130 -220c52.667 -56 93.334 -121.667 122.001 -197s43 -156 43 -242v-262zM347.998 597.001c0 -51.333 5.66797 -99.333 17.001 -144
s27.666 -83 48.999 -115l6 -1l504 857c-30 26.667 -64.5 47.167 -103.5 61.5s-81.167 21.5 -126.5 21.5c-107.333 0 -191.833 -39 -253.5 -117s-92.5 -177.667 -92.5 -299v-264zM1054 861.001c0 41.333 -3.99805 80.332 -11.998 116.999s-19 69.334 -33 98.001l-6 1
l-496 -843c25.333 -18.667 53.666 -32.667 84.999 -42s65.333 -14 102 -14c111.333 0 199.166 39 263.499 117s96.5 178.667 96.5 302v264zM782.001 1927h275l2 -6l-273 -260h-195z" />
    <glyph glyph-name="oslashacute" unicode="&#x1ff;" horiz-adv-x="1161" 
d="M83 551c0 161.333 44.167 293.499 132.5 396.499s209.166 154.5 362.499 154.5c35.333 0 69.5 -3.16699 102.5 -9.5s64.5 -15.166 94.5 -26.499l72 146h144l-104 -211c60.667 -49.333 107.334 -112.833 140.001 -190.5s49 -164.167 49 -259.5v-21
c0 -162.667 -44.167 -295.167 -132.5 -397.5s-209.5 -153.5 -363.5 -153.5c-32 0 -63 2.5 -93 7.5s-59 12.167 -87 21.5l-72 -146h-144l102 207c-66 47.333 -116.333 111 -151 191s-52 170 -52 270v21zM326 529.999c0 -52 4.83398 -99.3311 14.501 -141.998
s24.5 -77.334 44.5 -104.001l6 -1l294 600c-16 7.33301 -32.833 13.166 -50.5 17.499s-36.5 6.5 -56.5 6.5c-84.667 0 -147.834 -33.5 -189.501 -100.5s-62.5 -152.167 -62.5 -255.5v-21zM834.001 551.001c0 45.333 -4.33203 87.6689 -12.999 127.002s-21 72.666 -37 99.999
l-6 1l-289 -590c13.333 -5.33301 27.666 -9.33301 42.999 -12s31.333 -4 48 -4c84.667 0 148.167 33.167 190.5 99.5s63.5 152.166 63.5 257.499v21zM617.002 1540h275l2 -6l-273 -260h-195z" />
    <glyph glyph-name="Scommaaccent" unicode="&#x218;" horiz-adv-x="1259" 
d="M920 374c0 60.667 -21.5 110.335 -64.5 149.002s-119.167 73.334 -228.5 104.001c-156.667 43.333 -277.5 100.166 -362.5 170.499s-127.5 162.166 -127.5 275.499c0 117.333 46.667 214 140 290s213.333 114 360 114c157.333 0 283.166 -42.167 377.499 -126.5
s139.833 -188.5 136.5 -312.5l-2 -6h-234c0 76.667 -25.5 137.667 -76.5 183s-118.833 68 -203.5 68c-82 0 -145.167 -19.333 -189.5 -58s-66.5 -88.667 -66.5 -150c0 -56 24.333 -102.167 73 -138.5s129.334 -70.833 242.001 -103.5
c152.667 -42.667 269 -100.834 349 -174.501s120 -167.834 120 -282.501c0 -120.667 -47.333 -217 -142 -289s-219 -108 -373 -108c-148 0 -277 39.333 -387 118s-163.333 189.667 -160 333l2 6h234c0 -87.333 30.167 -153.166 90.5 -197.499s133.833 -66.5 220.5 -66.5
c86 0 152.833 18.167 200.5 54.5s71.5 85.5 71.5 147.5zM707 -266.999l-126 -238h-110l61 248v142h175v-152z" />
    <glyph glyph-name="scommaaccent" unicode="&#x219;" horiz-adv-x="1065" 
d="M736 296c0 37.333 -15.835 68.1699 -47.502 92.5029s-91.5 46.166 -179.5 65.499c-127.333 26 -224.666 64.333 -291.999 115s-101 118.667 -101 204c0 90.667 38.333 168.167 115 232.5s177.667 96.5 303 96.5c129.333 0 233.5 -33.167 312.5 -99.5
s116.833 -146.166 113.5 -239.499l-2 -6h-233c0 44 -17.333 82.167 -52 114.5s-81 48.5 -139 48.5c-58.667 0 -103.334 -13.333 -134.001 -40s-46 -59.334 -46 -98.001c0 -36.667 14.333 -66 43 -88s87.667 -41.667 177 -59c132.667 -26.667 232.667 -65.834 300 -117.501
s101 -120.834 101 -207.501c0 -97.333 -40.167 -176.833 -120.5 -238.5s-186.166 -92.5 -317.499 -92.5c-140.667 0 -251.667 36 -333 108s-120 154.667 -116 248l2 6h226c2.66699 -62.667 25.334 -108.334 68.001 -137.001s94.667 -43 156 -43
c62 0 110.167 12.333 144.5 37s51.5 57.334 51.5 98.001zM606.998 -266.996l-126 -238h-110l61 248v142h175v-152z" />
    <glyph glyph-name="uni0237" unicode="&#x237;" horiz-adv-x="550" 
d="M403 1082v-1145c0 -119.333 -31 -211.5 -93 -276.5s-148.333 -97.5 -259 -97.5c-24 0 -45.667 1.33301 -65 4s-39.666 7 -60.999 13l15 191c11.333 -3.33301 26.666 -6.33301 45.999 -9s36.333 -4 51 -4c38.667 0 69 15.833 91 47.5s33 75.5 33 131.5v1145h242z" />
    <glyph glyph-name="uni02BC" unicode="&#x2bc;" horiz-adv-x="536" 
d="M381 1227l-102 -315h-119v544h221v-229z" />
    <glyph glyph-name="circumflex" unicode="&#x2c6;" horiz-adv-x="998" 
d="M828 1276v-24h-195l-143 139l-142 -139h-193v26l264 240h143z" />
    <glyph glyph-name="caron" unicode="&#x2c7;" horiz-adv-x="944" 
d="M466 1385l132 136h215v-17l-268 -252h-157l-267 250v19h213z" />
    <glyph glyph-name="breve" unicode="&#x2d8;" horiz-adv-x="892" 
d="M754 1456l3 -6c2.66699 -82 -25 -148.667 -83 -200s-136 -77 -234 -77c-98.667 0 -177 25.667 -235 77s-85.333 118 -82 200l3 6h180c0 -38.667 10.833 -70.334 32.5 -95.001s55.5 -37 101.5 -37c44.667 0 78 12.333 100 37s33 56.334 33 95.001h181z" />
    <glyph glyph-name="dotaccent" unicode="&#x2d9;" horiz-adv-x="591" 
d="M420 1239h-270v223h270v-223z" />
    <glyph glyph-name="ring" unicode="&#x2da;" horiz-adv-x="690" 
d="M160 1305c0 48.667 17.667 89.5 53 122.5s78.333 49.5 129 49.5c49.333 0 91.333 -16.5 126 -49.5s52 -73.833 52 -122.5c0 -49.333 -17.167 -89.5 -51.5 -120.5s-76.5 -46.5 -126.5 -46.5c-51.333 0 -94.5 15.667 -129.5 47s-52.5 71.333 -52.5 120zM268 1305
c0 -20.667 7.16699 -37.834 21.5 -51.501s31.833 -20.5 52.5 -20.5c19.333 0 35.833 6.83301 49.5 20.5s20.5 30.834 20.5 51.501c0 21.333 -6.66699 39.333 -20 54s-30 22 -50 22c-21.333 0 -39 -7.33301 -53 -22s-21 -32.667 -21 -54z" />
    <glyph glyph-name="ogonek" unicode="&#x2db;" horiz-adv-x="589" 
d="M396 0c-41.333 -34 -72.834 -65.167 -94.501 -93.5s-32.5 -59.5 -32.5 -93.5c0 -22.667 6.5 -41.667 19.5 -57s36.833 -23 71.5 -23c18 0 33.833 2 47.5 6s29.834 9.66699 48.501 17l35 -142c-24 -12.667 -50.667 -23.167 -80 -31.5s-64.333 -12.5 -105 -12.5
c-67.333 0 -122.833 18.833 -166.5 56.5s-65.5 90.167 -65.5 157.5c0 52.667 18.167 102.667 54.5 150s92.5 89.333 168.5 126z" />
    <glyph glyph-name="tilde" unicode="&#x2dc;" horiz-adv-x="984" 
d="M849 1488c0 -63.333 -20.001 -117.333 -60.001 -162s-90 -67 -150 -67c-47.333 0 -98.5 14.833 -153.5 44.5s-99.5 44.5 -133.5 44.5c-26 0 -48 -10.833 -66 -32.5s-27 -47.5 -27 -77.5l-131 35c0 62.667 19.833 117.167 59.5 163.5s89.5 69.5 149.5 69.5
c37.333 0 85.833 -14.833 145.5 -44.5s106.834 -44.5 141.501 -44.5c25.333 0 47.333 10.667 66 32s28 47.333 28 78z" />
    <glyph glyph-name="hungarumlaut" unicode="&#x2dd;" horiz-adv-x="815" 
d="M664 1518h254l2 -6l-293 -260h-201l-2 5zM308 1518h243l2 -5l-240 -261h-195z" />
    <glyph glyph-name="uni02F3" unicode="&#x2f3;" horiz-adv-x="668" 
d="M171 -231c0 45.333 16.334 83.166 49.001 113.499s73 45.5 121 45.5c46 0 85 -15.167 117 -45.5s48 -68.166 48 -113.499s-15.833 -82.5 -47.5 -111.5s-70.834 -43.5 -117.501 -43.5c-48 0 -88.333 14.667 -121 44s-49 66.333 -49 111zM272.001 -231
c0 -18.667 6.5 -34.5 19.5 -47.5s29.5 -19.5 49.5 -19.5c18 0 33.333 6.5 46 19.5s19 28.833 19 47.5c0 20 -6.33301 36.667 -19 50s-28 20 -46 20c-20 0 -36.5 -6.66699 -49.5 -20s-19.5 -30 -19.5 -50z" />
    <glyph glyph-name="gravecomb" unicode="&#x300;" horiz-adv-x="0" 
d="M-480.882 1264.03h-140.798l-181.226 343.281l1.39355 7.92188h192.378z" />
    <glyph glyph-name="acutecomb" unicode="&#x301;" horiz-adv-x="0" 
d="M-512.956 1616.16h187.736l1.36523 -7.94531l-186.371 -344.297h-133.122z" />
    <glyph glyph-name="tildecomb" unicode="&#x303;" horiz-adv-x="0" 
d="M-170 1488c0 -63.333 -20.001 -117.333 -60.001 -162s-90 -67 -150 -67c-47.333 0 -98.5 14.833 -153.5 44.5s-99.5 44.5 -133.5 44.5c-26 0 -48 -10.833 -66 -32.5s-27 -47.5 -27 -77.5l-131 35c0 62.667 19.833 117.167 59.5 163.5s89.5 69.5 149.5 69.5
c37.333 0 85.833 -14.833 145.5 -44.5s106.834 -44.5 141.501 -44.5c25.333 0 47.333 10.667 66 32s28 47.333 28 78z" />
    <glyph glyph-name="hook" unicode="&#x309;" horiz-adv-x="0" 
d="M-687 1254l-6.99805 146c50 2.66699 85.5 9 106.5 19s31.5 26.333 31.5 49c0 25.333 -13.333 43.666 -40 54.999s-63.334 17 -110.001 17l7 123c110 0 194.167 -17.167 252.5 -51.5s87.5 -81.166 87.5 -140.499c0 -45.333 -14.333 -80 -43 -104
s-64.334 -38.667 -107.001 -44v-69h-178z" />
    <glyph glyph-name="uni030F" unicode="&#x30f;" horiz-adv-x="0" 
d="M-510 1257l-2 -5h-201l-293 260l2 6h254zM-204 1252h-195l-240 261l2 5h243z" />
    <glyph glyph-name="dotbelow" unicode="&#x323;" horiz-adv-x="0" 
d="M-464 -347h-270v223h270v-223z" />
    <glyph glyph-name="tonos" unicode="&#x384;" horiz-adv-x="605" 
d="M266 1549h242l-175 -279h-111z" />
    <glyph glyph-name="dieresistonos" unicode="&#x385;" horiz-adv-x="1084" 
d="M910 1252h-225v204h225v-204zM382 1252h-225v204h225v-204zM508 1746h249l-150 -273h-146z" />
    <glyph glyph-name="Alphatonos" unicode="&#x386;" horiz-adv-x="1300" 
d="M911 340h-516l-112 -340h-251l508 1456h231l502 -1456h-251zM462 543h383l-187 574h-6zM193 1549h242l-175 -279h-111z" />
    <glyph glyph-name="anoteleia" unicode="&#x387;" horiz-adv-x="578" 
d="M402 594h-242v240h242v-240z" />
    <glyph glyph-name="Epsilontonos" unicode="&#x388;" horiz-adv-x="1134" 
d="M966 655h-570v-461h672v-194h-915v1456h908v-195h-665v-411h570v-195zM-137 1551h242l-175 -279h-111z" />
    <glyph glyph-name="Etatonos" unicode="&#x389;" horiz-adv-x="1443" 
d="M1290 0h-243v621h-651v-621h-243v1456h243v-640h651v640h243v-1456zM-91 1549h242l-175 -279h-111z" />
    <glyph glyph-name="Iotatonos" unicode="&#x38a;" horiz-adv-x="589" 
d="M416 0h-243v1456h243v-1456zM-78 1551h242l-175 -279h-111z" />
    <glyph glyph-name="Omicrontonos" unicode="&#x38c;" horiz-adv-x="1402" 
d="M1297 597c0 -178 -55.832 -325.5 -167.499 -442.5s-256.834 -175.5 -435.501 -175.5c-174 0 -315.667 58.5 -425 175.5s-164 264.5 -164 442.5v262c0 177.333 54.5 324.666 163.5 441.999s250.833 176 425.5 176c178 0 323 -58.667 435 -176s168 -264.666 168 -441.999
v-262zM1054 861c0 121.333 -32.3311 221 -96.998 299s-152.334 117 -263.001 117c-107.333 0 -191.833 -39 -253.5 -117s-92.5 -177.667 -92.5 -299v-264c0 -122.667 31 -223.167 93 -301.5s146.333 -117.5 253 -117.5c111.333 0 199.166 39 263.499 117
s96.5 178.667 96.5 302v264zM62.0029 1549h242l-175 -279h-111z" />
    <glyph glyph-name="Upsilontonos" unicode="&#x38e;" horiz-adv-x="1300" 
d="M648 748l351 708h271l-505 -947v-509h-242v524l-497 932h271zM-195 1549h242l-175 -279h-111z" />
    <glyph glyph-name="Omegatonos" unicode="&#x38f;" horiz-adv-x="1371" 
d="M735 200c78.667 18.667 140 73.667 184 165s66 218 66 380v105c0 140 -27.5 246.667 -82.5 320s-131.167 110 -228.5 110s-173.166 -36.667 -227.499 -110s-81.5 -180 -81.5 -320v-105c0 -162.667 22.5 -289.667 67.5 -381s107.833 -146 188.5 -164v-200h-500v196h249
c-80 60.667 -143.667 140.167 -191 238.5s-71 201.833 -71 310.5v103c0 185.333 52.333 336.5 157 453.5s241 175.5 409 175.5s304.667 -58.5 410 -175.5s158 -268.167 158 -453.5v-103c0 -108.667 -23.833 -212 -71.5 -310s-110.834 -177.667 -189.501 -239h255v-196h-501
v200zM50 1549h242l-175 -279h-111z" />
    <glyph glyph-name="iotadieresistonos" unicode="&#x390;" horiz-adv-x="678" 
d="M412 1081v-784.999c0 -44 8.16699 -74.667 24.5 -92s39.5 -26 69.5 -26c17.333 0 33 1.83301 47 5.5s29.667 9.16699 47 16.5l38 -177c-30.667 -16.667 -60.667 -28.167 -90 -34.5s-62 -9.5 -98 -9.5c-91.333 0 -161 26.167 -209 78.5s-72 134.166 -72 245.499v778h243z
M673 1183h-225v204h225v-204zM145 1183h-225v204h225v-204zM271 1677h249l-150 -273h-146z" />
    <glyph glyph-name="Alpha" unicode="&#x391;" horiz-adv-x="1300" 
d="M911 340h-516l-112 -340h-251l508 1456h231l502 -1456h-251zM462 543h383l-187 574h-6z" />
    <glyph glyph-name="Beta" unicode="&#x392;" horiz-adv-x="1304" 
d="M153 0l-0.000976562 1456h477c160.667 0 286.334 -33.167 377.001 -99.5s136 -165.5 136 -297.5c0 -64 -18.167 -121.667 -54.5 -173s-86.833 -90.333 -151.5 -117c93.333 -15.333 165.166 -55.666 215.499 -120.999s75.5 -142 75.5 -230
c0 -136.667 -44.667 -240.5 -134 -311.5s-212.666 -106.5 -369.999 -106.5h-571zM395.999 661.999l0.000976562 -467.999h328c84 0 148.667 19.167 194 57.5s68 93.833 68 166.5c0 73.333 -22.333 131.666 -67 174.999s-107.334 66.333 -188.001 69h-13h-322zM396 843h260
c75.333 0 134.833 17.833 178.5 53.5s65.5 86.167 65.5 151.5c0 72 -23 125.5 -69 160.5s-113 52.5 -201 52.5h-234v-418z" />
    <glyph glyph-name="Gamma" unicode="&#x393;" horiz-adv-x="1130" 
d="M1068 1261h-677v-1261h-243v1456h920v-195z" />
    <glyph glyph-name="Delta" unicode="&#x394;" horiz-adv-x="1469" 
d="M627 1456h231l574 -1456h-1406zM354 194h754l-365 966h-6z" />
    <glyph glyph-name="Delta" unicode="&#x2206;" horiz-adv-x="1469" 
d="M627 1456h231l574 -1456h-1406zM354 194h754l-365 966h-6z" />
    <glyph glyph-name="Epsilon" unicode="&#x395;" horiz-adv-x="1134" 
d="M966 655h-570v-461h672v-194h-915v1456h908v-195h-665v-411h570v-195z" />
    <glyph glyph-name="Zeta" unicode="&#x396;" horiz-adv-x="1196" 
d="M374 194h739v-194h-1025v152l711 1109h-705v195h993v-146z" />
    <glyph glyph-name="Eta" unicode="&#x397;" horiz-adv-x="1443" 
d="M1290 0h-243v621h-651v-621h-243v1456h243v-640h651v640h243v-1456z" />
    <glyph glyph-name="Theta" unicode="&#x398;" horiz-adv-x="1403" 
d="M931 633h-448v195h448v-195zM1297 597c0 -178 -55.832 -325.5 -167.499 -442.5s-256.834 -175.5 -435.501 -175.5c-174 0 -315.667 58.5 -425 175.5s-164 264.5 -164 442.5v262c0 177.333 54.5 324.666 163.5 441.999s250.833 176 425.5 176c178 0 323 -58.667 435 -176
s168 -264.666 168 -441.999v-262zM1054 861c0 121.333 -32.3311 221 -96.998 299s-152.334 117 -263.001 117c-107.333 0 -191.833 -39 -253.5 -117s-92.5 -177.667 -92.5 -299v-264c0 -122.667 31 -223.167 93 -301.5s146.333 -117.5 253 -117.5
c111.333 0 199.166 39 263.499 117s96.5 178.667 96.5 302v264z" />
    <glyph glyph-name="Iota" unicode="&#x399;" horiz-adv-x="589" 
d="M416 0h-243v1456h243v-1456z" />
    <glyph glyph-name="Kappa" unicode="&#x39a;" horiz-adv-x="1304" 
d="M515 630h-119v-630h-243v1456h243v-617h95l473 617h285l3 -5l-546 -684l591 -767h-307z" />
    <glyph glyph-name="Lambda" unicode="&#x39b;" horiz-adv-x="1337" 
d="M668 1136h-6l-376 -1136h-251l515 1456h231l516 -1456h-252z" />
    <glyph glyph-name="Mu" unicode="&#x39c;" horiz-adv-x="1781" 
d="M890 336h6l421 1120h310v-1456h-243v1046l-6 1l-401 -1047h-167l-408 1067l-6 -2v-1065h-243v1456h319z" />
    <glyph glyph-name="Nu" unicode="&#x39d;" horiz-adv-x="1443" 
d="M1290 0h-243l-645 1049l-6 -2v-1047h-243v1456h243l645 -1049l6 2v1047h243v-1456z" />
    <glyph glyph-name="Xi" unicode="&#x39e;" horiz-adv-x="1169" 
d="M112 194h957v-194h-957v194zM208 844h759v-191h-759v191zM122 1456h922v-195h-922v195z" />
    <glyph glyph-name="Omicron" unicode="&#x39f;" horiz-adv-x="1402" 
d="M1297 597c0 -178 -55.832 -325.5 -167.499 -442.5s-256.834 -175.5 -435.501 -175.5c-174 0 -315.667 58.5 -425 175.5s-164 264.5 -164 442.5v262c0 177.333 54.5 324.666 163.5 441.999s250.833 176 425.5 176c178 0 323 -58.667 435 -176s168 -264.666 168 -441.999
v-262zM1054 861c0 121.333 -32.3311 221 -96.998 299s-152.334 117 -263.001 117c-107.333 0 -191.833 -39 -253.5 -117s-92.5 -177.667 -92.5 -299v-264c0 -122.667 31 -223.167 93 -301.5s146.333 -117.5 253 -117.5c111.333 0 199.166 39 263.499 117
s96.5 178.667 96.5 302v264z" />
    <glyph glyph-name="Pi" unicode="&#x3a0;" horiz-adv-x="1442" 
d="M1290 0h-243v1261h-653v-1261h-243v1456h1139v-1456z" />
    <glyph glyph-name="Rho" unicode="&#x3a1;" horiz-adv-x="1304" 
d="M396 552v-552h-243v1456h558c160.667 0 286.5 -41.5 377.5 -124.5s136.5 -192.167 136.5 -327.5c0 -136.667 -45.5 -246.167 -136.5 -328.5s-216.833 -123.5 -377.5 -123.5h-315zM396 747h315c90 0 157.667 24 203 72s68 109 68 183s-22.667 135.667 -68 185
s-113 74 -203 74h-315v-514z" />
    <glyph glyph-name="Sigma" unicode="&#x3a3;" horiz-adv-x="1169" 
d="M790 719l-403 -524h713v-195h-1029v152l462 577l-462 575v152h991v-195h-674l402 -522v-20z" />
    <glyph glyph-name="Tau" unicode="&#x3a4;" horiz-adv-x="1202" 
d="M1170 1261h-450v-1261h-243v1261h-443v195h1136v-195z" />
    <glyph glyph-name="Upsilon" unicode="&#x3a5;" horiz-adv-x="1300" 
d="M648 748l351 708h271l-505 -947v-509h-242v524l-497 932h271z" />
    <glyph glyph-name="Phi" unicode="&#x3a6;" horiz-adv-x="1471" 
d="M862 1244c158.667 -6.66699 289.167 -58 391.5 -154s153.5 -218.667 153.5 -368s-51.167 -271.5 -153.5 -366.5s-232.833 -145.5 -391.5 -151.5v-204h-243v203c-160.667 6 -292 56.333 -394 151s-153 216.667 -153 366c0 150 51.167 273.167 153.5 369.5
s233.5 147.833 393.5 154.5v212h243v-212zM311 720c0 -94.667 26.667 -169 80 -223s127.333 -82 222 -84l6 2v618l-6 2c-94.667 -2.66699 -168.667 -32 -222 -88s-80 -131.667 -80 -227zM1168 722c0 95.333 -26.667 170.666 -80 225.999s-126.666 84.333 -219.999 87l-6 -2
v-618l6 -2c93.333 2 166.666 30.333 219.999 85s80 129.334 80 224.001z" />
    <glyph glyph-name="Chi" unicode="&#x3a7;" horiz-adv-x="1300" 
d="M650 918l307 538h288l-448 -722l465 -734h-292l-316 547l-316 -547h-288l458 734l-448 722h286z" />
    <glyph glyph-name="Psi" unicode="&#x3a8;" horiz-adv-x="1447" 
d="M834 538l6 -2c86.667 10.667 154.667 48.5 204 113.5s74 152.833 74 263.5v543h243v-543c0 -168.667 -47.833 -303.667 -143.5 -405s-223.5 -160.333 -383.5 -177v-331h-242v330c-158.667 15.333 -285 73.833 -379 175.5s-141 237.5 -141 407.5v543h242v-543
c0 -108.667 24.333 -195.5 73 -260.5s115 -103.5 199 -115.5l6 2v917h242v-918z" />
    <glyph glyph-name="Omega" unicode="&#x3a9;" horiz-adv-x="1371" 
d="M735 200c78.667 18.667 140 73.667 184 165s66 218 66 380v105c0 140 -27.5 246.667 -82.5 320s-131.167 110 -228.5 110s-173.166 -36.667 -227.499 -110s-81.5 -180 -81.5 -320v-105c0 -162.667 22.5 -289.667 67.5 -381s107.833 -146 188.5 -164v-200h-500v196h249
c-80 60.667 -143.667 140.167 -191 238.5s-71 201.833 -71 310.5v103c0 185.333 52.333 336.5 157 453.5s241 175.5 409 175.5s304.667 -58.5 410 -175.5s158 -268.167 158 -453.5v-103c0 -108.667 -23.833 -212 -71.5 -310s-110.834 -177.667 -189.501 -239h255v-196h-501
v200z" />
    <glyph glyph-name="Omega" unicode="&#x2126;" horiz-adv-x="1371" 
d="M735 200c78.667 18.667 140 73.667 184 165s66 218 66 380v105c0 140 -27.5 246.667 -82.5 320s-131.167 110 -228.5 110s-173.166 -36.667 -227.499 -110s-81.5 -180 -81.5 -320v-105c0 -162.667 22.5 -289.667 67.5 -381s107.833 -146 188.5 -164v-200h-500v196h249
c-80 60.667 -143.667 140.167 -191 238.5s-71 201.833 -71 310.5v103c0 185.333 52.333 336.5 157 453.5s241 175.5 409 175.5s304.667 -58.5 410 -175.5s158 -268.167 158 -453.5v-103c0 -108.667 -23.833 -212 -71.5 -310s-110.834 -177.667 -189.501 -239h255v-196h-501
v200z" />
    <glyph glyph-name="Iotadieresis" unicode="&#x3aa;" horiz-adv-x="589" 
d="M416 0h-243v1456h243v-1456zM658 1601h-242v204h242v-204zM174 1601h-241v204h241v-204z" />
    <glyph glyph-name="Upsilondieresis" unicode="&#x3ab;" horiz-adv-x="1300" 
d="M648 748l351 708h271l-505 -947v-509h-242v524l-497 932h271zM1014 1601h-242v204h242v-204zM530 1601h-241v204h241v-204z" />
    <glyph glyph-name="alphatonos" unicode="&#x3ac;" horiz-adv-x="1156" 
d="M1015 1081l-0.000976562 -778.002c0 -44 6.33301 -74.667 19 -92s30.667 -26 54 -26c9.33301 0 17.833 0.333008 25.5 1s14.5 2.33398 20.5 5.00098l25 -181c-22 -12 -43.333 -20.167 -64 -24.5s-44 -6.5 -70 -6.5c-55.333 0 -102 11.667 -140 35
s-66.333 59.666 -85 108.999c-34.667 -47.333 -76.167 -83.166 -124.5 -107.499s-104.166 -36.5 -167.499 -36.5c-132.667 0 -236.167 48.333 -310.5 145s-111.5 223.667 -111.5 381v21c0 172.667 37.167 311.834 111.5 417.501s178.5 158.5 312.5 158.5
c62.667 0 118.167 -12.667 166.5 -38s89.833 -62 124.5 -110l49 127h165zM328.999 504.998c0 -100 19.168 -180.332 57.501 -240.999s99.166 -91 182.499 -91c46.667 0 86.667 9.66699 120 29s61 46.666 83 81.999v19v492c-22.667 35.333 -50.5 62.833 -83.5 82.5
s-72.167 29.5 -117.5 29.5c-82.667 0 -143.667 -35.5 -183 -106.5s-59 -162.5 -59 -274.5v-21zM590 1529h242l-175 -279h-111z" />
    <glyph glyph-name="epsilontonos" unicode="&#x3ad;" horiz-adv-x="1120" 
d="M96 306c0 60 17.335 111.332 52.002 153.999s85 75 151 97c-58 24 -103.167 56.167 -135.5 96.5s-48.5 84.5 -48.5 132.5c0 100 41.333 177.5 124 232.5s194 82.5 334 82.5c125.333 0 230.5 -29.667 315.5 -89s125.833 -136.333 122.5 -231l-2 -6h-232
c0 40 -20.333 73.167 -61 99.5s-90.667 39.5 -150 39.5c-68 0 -119.667 -13.833 -155 -41.5s-53 -60.5 -53 -98.5c0 -42 16.667 -75 50 -99s83.666 -36 150.999 -36h199v-173h-199c-72 0 -126.667 -12.167 -164 -36.5s-56 -62.166 -56 -113.499
c0 -42 20.167 -77.5 60.5 -106.5s95.833 -43.5 166.5 -43.5c68 0 123 15.167 165 45.5s63 66.833 63 109.5h232l2 -6c3.33301 -108.667 -40.334 -191.667 -131.001 -249s-198.667 -86 -324 -86c-140 0 -254.5 29.167 -343.5 87.5s-133.5 137.833 -133.5 238.5zM535.002 1528
h242l-175 -279h-111z" />
    <glyph glyph-name="etatonos" unicode="&#x3ae;" 
d="M348 1082l13 -150.001c36 54 80.5 95.833 133.5 125.5s112.167 44.5 177.5 44.5c114 0 202.167 -33.667 264.5 -101s93.5 -176.666 93.5 -327.999v-1088h-243v1086c0 84 -16.5 144.333 -49.5 181s-82.5 55 -148.5 55c-50 0 -93.333 -9.33301 -130 -28
s-66.667 -44.667 -90 -78v-801h-243v1082h222zM545 1529h242l-175 -279h-111z" />
    <glyph glyph-name="iotatonos" unicode="&#x3af;" horiz-adv-x="678" 
d="M412 1081v-784.999c0 -44 8.16699 -74.667 24.5 -92s39.5 -26 69.5 -26c17.333 0 33 1.83301 47 5.5s29.667 9.16699 47 16.5l38 -177c-30.667 -16.667 -60.667 -28.167 -90 -34.5s-62 -9.5 -98 -9.5c-91.333 0 -161 26.167 -209 78.5s-72 134.166 -72 245.499v778h243z
M269 1507h242l-175 -279h-111z" />
    <glyph glyph-name="upsilondieresistonos" unicode="&#x3b0;" 
d="M370 1082v-612c0 -104 20 -179.5 60 -226.5s93.667 -70.5 161 -70.5c81.333 0 141.333 38.333 180 115s58 169.334 58 278.001c-2 83.333 -12.833 167.666 -32.5 252.999s-46.5 173 -80.5 263h241c34 -70.667 61.667 -149 83 -235s32 -179.667 32 -281
c0 -174.667 -37.5 -316.167 -112.5 -424.5s-194.5 -162.5 -358.5 -162.5c-150 0 -266.333 40.5 -349 121.5s-124 204.833 -124 371.5v610h242zM970 1184h-225v204h225v-204zM442 1184h-225v204h225v-204zM568 1678h249l-150 -273h-146z" />
    <glyph glyph-name="alpha" unicode="&#x3b1;" horiz-adv-x="1156" 
d="M1015 1081l-0.000976562 -778.002c0 -44 6.33301 -74.667 19 -92s30.667 -26 54 -26c9.33301 0 17.833 0.333008 25.5 1s14.5 2.33398 20.5 5.00098l25 -181c-22 -12 -43.333 -20.167 -64 -24.5s-44 -6.5 -70 -6.5c-55.333 0 -102 11.667 -140 35
s-66.333 59.666 -85 108.999c-34.667 -47.333 -76.167 -83.166 -124.5 -107.499s-104.166 -36.5 -167.499 -36.5c-132.667 0 -236.167 48.333 -310.5 145s-111.5 223.667 -111.5 381v21c0 172.667 37.167 311.834 111.5 417.501s178.5 158.5 312.5 158.5
c62.667 0 118.167 -12.667 166.5 -38s89.833 -62 124.5 -110l49 127h165zM328.999 504.998c0 -100 19.168 -180.332 57.501 -240.999s99.166 -91 182.499 -91c46.667 0 86.667 9.66699 120 29s61 46.666 83 81.999v19v492c-22.667 35.333 -50.5 62.833 -83.5 82.5
s-72.167 29.5 -117.5 29.5c-82.667 0 -143.667 -35.5 -183 -106.5s-59 -162.5 -59 -274.5v-21z" />
    <glyph glyph-name="beta" unicode="&#x3b2;" horiz-adv-x="1222" 
d="M617 1477c136 0 244.833 -35.835 326.5 -107.502s122.5 -167.5 122.5 -287.5c0 -62.667 -16.5 -120.167 -49.5 -172.5s-78.833 -94.5 -137.5 -126.5c79.333 -29.333 141 -75.666 185 -138.999s66 -137.666 66 -222.999c0 -139.333 -41 -247.833 -123 -325.5
s-191.333 -116.5 -328 -116.5c-52 0 -102.833 6.83301 -152.5 20.5s-94.5 34.5 -134.5 62.5v-455h-242v1448c0 119.333 45.5 219.5 136.5 300.5s201.167 121.5 330.5 121.5zM613 860.998c72 0 125.001 18.5 159.001 55.5s51 89.167 51 156.5
c0 56.667 -18.167 105.667 -54.5 147s-86.833 62 -151.5 62s-118.334 -21.333 -161.001 -64s-64 -97 -64 -163v-799c27.333 -26.667 62 -47.167 104 -61.5s89 -21.5 141 -21.5c76.667 0 137.5 23 182.5 69s67.5 105.333 67.5 178c0 72 -20.167 132.667 -60.5 182
s-95.833 74 -166.5 74h-121v185h74z" />
    <glyph glyph-name="gamma" unicode="&#x3b3;" horiz-adv-x="1039" 
d="M762 1082h251l-369 -1040v-459h-242v462l-370 1037h251l221 -716l18 -89h6l19 89z" />
    <glyph glyph-name="delta" unicode="&#x3b4;" 
d="M957 1456v-193h-428l-2 -6l309 -226c72 -54 130 -122 174 -204s66 -174 66 -276v-21c0 -162.667 -44.167 -295.167 -132.5 -397.5s-209.5 -153.5 -363.5 -153.5c-154.667 0 -276.167 50 -364.5 150s-132.5 229 -132.5 387v21c0 138 35.5 255 106.5 351
s165.5 154 283.5 174l7 1l1 6l-292 235v152h768zM578 907c-84.667 0 -147.833 -33.499 -189.5 -100.499s-62.5 -152.167 -62.5 -255.5v-21c0 -106 20.667 -192 62 -258s105.333 -99 192 -99c84.667 0 148.167 33.167 190.5 99.5s63.5 152.166 63.5 257.499v21
c0 103.333 -21.167 188.5 -63.5 255.5s-106.5 100.5 -192.5 100.5z" />
    <glyph glyph-name="epsilon" unicode="&#x3b5;" horiz-adv-x="1120" 
d="M96 306c0 60 17.335 111.332 52.002 153.999s85 75 151 97c-58 24 -103.167 56.167 -135.5 96.5s-48.5 84.5 -48.5 132.5c0 100 41.333 177.5 124 232.5s194 82.5 334 82.5c125.333 0 230.5 -29.667 315.5 -89s125.833 -136.333 122.5 -231l-2 -6h-232
c0 40 -20.333 73.167 -61 99.5s-90.667 39.5 -150 39.5c-68 0 -119.667 -13.833 -155 -41.5s-53 -60.5 -53 -98.5c0 -42 16.667 -75 50 -99s83.666 -36 150.999 -36h199v-173h-199c-72 0 -126.667 -12.167 -164 -36.5s-56 -62.166 -56 -113.499
c0 -42 20.167 -77.5 60.5 -106.5s95.833 -43.5 166.5 -43.5c68 0 123 15.167 165 45.5s63 66.833 63 109.5h232l2 -6c3.33301 -108.667 -40.334 -191.667 -131.001 -249s-198.667 -86 -324 -86c-140 0 -254.5 29.167 -343.5 87.5s-133.5 137.833 -133.5 238.5z" />
    <glyph glyph-name="zeta" unicode="&#x3b6;" horiz-adv-x="1054" 
d="M970 1456l0.00195312 -138.001l-349 -428c-79.333 -92.667 -136.333 -173.667 -171 -243s-52 -149.333 -52 -240c0 -72 16.667 -125.833 50 -161.5s83.666 -53.5 150.999 -53.5h41c103.333 0 184.333 -22.833 243 -68.5s88 -112.5 88 -200.5
c-1.33301 -79.333 -29.833 -150 -85.5 -212s-125.834 -108 -210.501 -138l-89 165c43.333 19.333 79.5 41.833 108.5 67.5s43.5 58.834 43.5 99.501c0 30 -12.333 53.333 -37 70s-64 25 -118 25h-50c-123.333 0 -217 36.167 -281 108.5s-96 163.833 -96 274.5
c0 92 22.667 188.333 68 289s115.333 207 210 319l230 265l-2 5h-565v195h873z" />
    <glyph glyph-name="eta" unicode="&#x3b7;" 
d="M348 1082l13 -150.001c36 54 80.5 95.833 133.5 125.5s112.167 44.5 177.5 44.5c114 0 202.167 -33.667 264.5 -101s93.5 -176.666 93.5 -327.999v-1088h-243v1086c0 84 -16.5 144.333 -49.5 181s-82.5 55 -148.5 55c-50 0 -93.333 -9.33301 -130 -28
s-66.667 -44.667 -90 -78v-801h-243v1082h222z" />
    <glyph glyph-name="theta" unicode="&#x3b8;" horiz-adv-x="1186" 
d="M1065 521c0 -168 -43.168 -300.333 -129.501 -397s-201.833 -145 -346.5 -145s-260.667 48.5 -348 145.5s-131 229.167 -131 396.5v413c0 167.333 43.333 299.666 130 396.999s202.334 146 347.001 146s260.5 -48.667 347.5 -146s130.5 -229.666 130.5 -396.999v-413z
M821.999 634h-469v-148c0 -98.667 20.667 -175.5 62 -230.5s99.333 -82.5 174 -82.5s132.167 27.333 172.5 82s60.5 131.667 60.5 231v148zM352.999 824h469.001v147c0 97.333 -20.667 173.5 -62 228.5s-99 82.5 -173 82.5c-74.667 0 -132.334 -27.5 -173.001 -82.5
s-61 -131.167 -61 -228.5v-147z" />
    <glyph glyph-name="iota" unicode="&#x3b9;" horiz-adv-x="678" 
d="M412 1081v-784.999c0 -44 8.16699 -74.667 24.5 -92s39.5 -26 69.5 -26c17.333 0 33 1.83301 47 5.5s29.667 9.16699 47 16.5l38 -177c-30.667 -16.667 -60.667 -28.167 -90 -34.5s-62 -9.5 -98 -9.5c-91.333 0 -161 26.167 -209 78.5s-72 134.166 -72 245.499v778h243z
" />
    <glyph glyph-name="kappa" unicode="&#x3ba;" horiz-adv-x="1176" 
d="M495 428h-111v-428h-242v1082h242v-432h85l336 432h293l3 -5l-416 -513l446 -564h-309z" />
    <glyph glyph-name="lambda" unicode="&#x3bb;" horiz-adv-x="1135" 
d="M301 0h-265l383 1043l-54 125c-19.333 45.333 -43 82.333 -71 111s-60.667 43 -98 43c-8 0 -19 -0.666992 -33 -2s-25.333 -2.33301 -34 -3l-3 182c21.333 5.33301 42.333 9.83301 63 13.5s41 5.5 61 5.5c95.333 0 168.833 -26.667 220.5 -80s92.167 -117.333 121.5 -192
l361 -920c13.333 -40 31 -72.5 53 -97.5s47 -38.833 75 -41.5c10 -0.666992 18 -1 24 -1s14.333 1 25 3l-11 -192c-14 -4 -29.5 -7.16699 -46.5 -9.5s-32.5 -2.83301 -46.5 -1.5c-80.667 3.33301 -145.5 31.5 -194.5 84.5s-89.833 124.5 -122.5 214.5l-173 459h-6l-23 -105z
" />
    <glyph glyph-name="uni03BC" unicode="&#x3bc;" horiz-adv-x="1211" 
d="M388 1082v-620c0 -111.333 16.667 -187 50 -227s82.333 -60 147 -60c58 0 105.5 10.167 142.5 30.5s65.167 50.5 84.5 90.5v786h243v-1082h-223l-7 86c-30 -35.333 -64.833 -62 -104.5 -80s-84.5 -27 -134.5 -27c-40.667 0 -77.5 4.5 -110.5 13.5
s-62.167 22.833 -87.5 41.5v-450h-242v1498h242z" />
    <glyph glyph-name="nu" unicode="&#x3bd;" horiz-adv-x="1038" 
d="M504 366l18 -88h6l19 88l215 716h251l-384 -1082h-211l-386 1082h251z" />
    <glyph glyph-name="xi" unicode="&#x3be;" horiz-adv-x="1068" 
d="M950 1456l0.000976562 -199.002h-301c-73.333 -5.33301 -128.333 -25.5 -165 -60.5s-55 -79.5 -55 -133.5c0 -55.333 21.167 -98.666 63.5 -129.999s108.5 -47 198.5 -47h146v-199h-143c-114.667 0 -201.834 -23.5 -261.501 -70.5s-89.5 -115.833 -89.5 -206.5
c0 -68.667 23.667 -124.667 71 -168s112.666 -65 195.999 -65h90c104.667 0 186.5 -22.333 245.5 -67s88.5 -111.667 88.5 -201c-1.33301 -85.333 -29 -158 -83 -218s-125 -106.333 -213 -139l-81 153c42 19.333 77.833 42.166 107.5 68.499s44.5 60.833 44.5 103.5
c0 32 -11.167 57 -33.5 75s-56.833 27 -103.5 27h-69c-151.333 0 -273 38.333 -365 115s-138 183.334 -138 320.001c0 92 25.5 169.667 76.5 233s125.5 110.333 223.5 141c-68 24.667 -120.667 58.5 -158 101.5s-56 92.5 -56 148.5c0 48.667 10.833 91.334 32.5 128.001
s53.834 67 96.501 91h-213v199h848z" />
    <glyph glyph-name="omicron" unicode="&#x3bf;" 
d="M83 551c0 161.333 44.1689 293.5 132.502 396.5s209.166 154.5 362.499 154.5c155.333 0 277.166 -51.5 365.499 -154.5s132.5 -235.167 132.5 -396.5v-21c0 -162.667 -44.167 -295.167 -132.5 -397.5s-209.5 -153.5 -363.5 -153.5
c-154.667 0 -276.167 51.333 -364.5 154s-132.5 235 -132.5 397v21zM326.002 530c0 -106 20.668 -191.999 62.001 -257.999s105.333 -99 192 -99c84.667 0 148.167 33.167 190.5 99.5s63.5 152.166 63.5 257.499v21c0 103.333 -21.167 188.5 -63.5 255.5
s-106.5 100.5 -192.5 100.5c-84.667 0 -147.834 -33.5 -189.501 -100.5s-62.5 -152.167 -62.5 -255.5v-21z" />
    <glyph glyph-name="pi" unicode="&#x3c0;" horiz-adv-x="1267" 
d="M1167 893l-154 0.000976562v-597c0 -44 8.16699 -74.667 24.5 -92s39.5 -26 69.5 -26c17.333 0 33 1.83301 47 5.5s29.667 9.16699 47 16.5l38 -177c-30.667 -16.667 -60.667 -28.167 -90 -34.5s-62 -9.5 -98 -9.5c-91.333 0 -161 26.167 -209 78.5
s-72 134.166 -72 245.499v590h-292v-893h-243v893h-156v189h1088v-189z" />
    <glyph glyph-name="rho" unicode="&#x3c1;" 
d="M1073 505c0 -158 -36.667 -285.167 -110 -381.5s-175.666 -144.5 -306.999 -144.5c-60.667 0 -114.834 10.167 -162.501 30.5s-88.5 50.166 -122.5 89.499v-515h-243v991c0 160.667 43.667 288.667 131 384s200.333 143 339 143c152.667 0 270 -52.667 352 -158
s123 -244.666 123 -417.999v-21zM830 526c0 112.667 -19.167 204.333 -57.5 275s-98.5 106 -180.5 106c-73.333 0 -128.5 -34.167 -165.5 -102.5s-55.5 -148.833 -55.5 -241.5v-272c21.333 -38 49.666 -67.167 84.999 -87.5s79 -30.5 131 -30.5
c82.667 0 143.834 30.333 183.501 91s59.5 141 59.5 241v21z" />
    <glyph glyph-name="sigma1" unicode="&#x3c2;" horiz-adv-x="1079" 
d="M568 1102c128.667 0 232.5 -36.1699 311.5 -108.503s117.167 -170.166 114.5 -293.499l-2 -6h-220c0 61.333 -17.5 112.166 -52.5 152.499s-85.5 60.5 -151.5 60.5c-83.333 0 -144.833 -34 -184.5 -102s-59.5 -150.333 -59.5 -247v-35c0 -92 24.5 -166.5 73.5 -223.5
s125.5 -92.833 229.5 -107.5c123.333 -19.333 213.5 -48.666 270.5 -87.999s85.5 -102.333 85.5 -189c-2 -79.333 -30.833 -149.833 -86.5 -211.5s-125.5 -107.5 -209.5 -137.5l-89 164c44 20.667 80.333 43.667 109 69s43 58.333 43 99c0 29.333 -13.667 51.833 -41 67.5
s-70.333 27.834 -129 36.501c-166.667 24.667 -291.5 81.334 -374.5 170.001s-124.5 205.667 -124.5 351v35c0 154.667 43.167 284 129.5 388s205.5 156 357.5 156z" />
    <glyph glyph-name="sigma" unicode="&#x3c3;" horiz-adv-x="1168" 
d="M1149 886l-266.001 -0.00195312c57.333 -45.333 102.666 -100.666 135.999 -165.999s50 -135.333 50 -210v-21c0 -143.333 -44.167 -264.166 -132.5 -362.499s-207.166 -147.5 -356.499 -147.5c-155.333 0 -277.166 51.333 -365.499 154s-132.5 235 -132.5 397v21
c0 154.667 44 281.667 132 381s209 149.333 363 150h572v-196zM324.999 529.998c0 -106 20.8311 -191.999 62.498 -257.999s105.834 -99 192.501 -99c82 0 143.5 33.167 184.5 99.5s61.5 152.166 61.5 257.499v21c0 97.333 -20.5 177.5 -61.5 240.5
s-103.167 94.5 -186.5 94.5h-1c-85.333 -0.666992 -148.666 -32.5 -189.999 -95.5s-62 -142.833 -62 -239.5v-21z" />
    <glyph glyph-name="tau" unicode="&#x3c4;" horiz-adv-x="1074" 
d="M1008 889h-351v-889h-243v889h-347v193h941v-193z" />
    <glyph glyph-name="upsilon" unicode="&#x3c5;" 
d="M370 1082v-612c0 -104 20 -179.5 60 -226.5s93.667 -70.5 161 -70.5c81.333 0 141.333 38.333 180 115s58 169.334 58 278.001c-2 83.333 -12.833 167.666 -32.5 252.999s-46.5 173 -80.5 263h241c34 -70.667 61.667 -149 83 -235s32 -179.667 32 -281
c0 -174.667 -37.5 -316.167 -112.5 -424.5s-194.5 -162.5 -358.5 -162.5c-150 0 -266.333 40.5 -349 121.5s-124 204.833 -124 371.5v610h242z" />
    <glyph glyph-name="phi" unicode="&#x3c6;" horiz-adv-x="1488" 
d="M856 1082c162.667 0 296.166 -54.502 400.499 -163.502s156.5 -238.167 156.5 -387.5c0 -146 -44.833 -269.167 -134.5 -369.5s-230.5 -159.166 -422.5 -176.499v-463h-243v464c-188.667 20 -326.667 84.667 -414 194s-131 242.666 -131 399.999
c0 98.667 11.167 189.834 33.5 273.501s51.833 159.834 88.5 228.501h238c-36 -88.667 -64.167 -174.334 -84.5 -257.001s-31.166 -164.334 -32.499 -245.001c0 -99.333 23.667 -184.666 71 -255.999s122.333 -115.666 225 -132.999l6 2v889h243zM1170 530.998
c-2 99.333 -30 183 -84 251s-128.667 100.667 -224 98l-6 -2v-688l6 -2c106.667 14 184.667 52.5 234 115.5s74 138.833 74 227.5z" />
    <glyph glyph-name="chi" unicode="&#x3c7;" horiz-adv-x="1135" 
d="M186 1098c95.333 0 168.997 -26.666 220.997 -79.999s92.333 -117.333 121 -192l77 -183h6l214 439h245l-348 -717l194 -458c18 -42 37 -74.833 57 -98.5s43.667 -36.834 71 -39.501c10 -0.666992 18 -1 24 -1s14 0.666992 24 2l-10 -193c-12.667 -4 -27.667 -7 -45 -9
s-33.333 -2.66699 -48 -2c-75.333 3.33301 -136.166 31.666 -182.499 84.999s-86.5 125 -120.5 215l-94 218l-6 1l-243 -501h-248l379 777l-166 387c-18.667 45.333 -43 82.5 -73 111.5s-64.667 43.5 -104 43.5c-7.33301 0 -16.833 -0.666992 -28.5 -2
s-24.5 -2.66602 -38.5 -3.99902l-2 182c18.667 5.33301 38.834 9.83301 60.501 13.5s42.834 5.5 63.501 5.5z" />
    <glyph glyph-name="psi" unicode="&#x3c8;" horiz-adv-x="1481" 
d="M850 1082l0.00195312 -890l6 -2c105.333 17.333 183 61.833 233 133.5s75 157.167 75 256.5c-2 80.667 -13.333 162.667 -34 246s-48.334 168.666 -83.001 255.999h238c36 -68 65.167 -144 87.5 -228s33.5 -175.333 33.5 -274c0 -160 -44.5 -294.667 -133.5 -404
s-229.833 -173.333 -422.5 -192v-462h-243v464c-168.667 19.333 -298.834 79 -390.501 179s-137.5 242.667 -137.5 428v489h243v-491c0 -121.333 25 -214.666 75 -279.999s118 -105 204 -119l6 2v888h243z" />
    <glyph glyph-name="omega" unicode="&#x3c9;" horiz-adv-x="1750" 
d="M490 1082c-46 -88.667 -82.333 -175.834 -109 -261.501s-41.334 -170.5 -44.001 -254.5c0 -115.333 16.167 -209.666 48.5 -282.999s84.166 -110 155.499 -110c63.333 0 113.833 24.5 151.5 73.5s56.5 126.833 56.5 233.5v325h251v-325
c0 -106.667 18.667 -184.5 56 -233.5s87.666 -73.5 150.999 -73.5c71.333 0 123.333 36.5 156 109.5s49 167.5 49 283.5c-3.33301 84 -18.333 169 -45 255s-63 173 -109 261h242c46 -69.333 83.167 -147.166 111.5 -233.499s42.5 -180.5 42.5 -282.5
c0 -175.333 -34.667 -317 -104 -425s-180 -162 -332 -162c-81.333 0 -151.166 19.5 -209.499 58.5s-103.166 95.833 -134.499 170.5c-31.333 -74.667 -76.166 -131.5 -134.499 -170.5s-127.833 -58.5 -208.5 -58.5c-152.667 0 -263.5 54 -332.5 162
s-103.5 249.667 -103.5 425c0 102 14 196.167 42 282.5s65.333 164.166 112 233.499h241z" />
    <glyph glyph-name="iotadieresis" unicode="&#x3ca;" horiz-adv-x="678" 
d="M412 1081v-784.999c0 -44 8.16699 -74.667 24.5 -92s39.5 -26 69.5 -26c17.333 0 33 1.83301 47 5.5s29.667 9.16699 47 16.5l38 -177c-30.667 -16.667 -60.667 -28.167 -90 -34.5s-62 -9.5 -98 -9.5c-91.333 0 -161 26.167 -209 78.5s-72 134.166 -72 245.499v778h243z
M665 1257h-242v204h242v-204zM181 1257h-241v204h241v-204z" />
    <glyph glyph-name="upsilondieresis" unicode="&#x3cb;" 
d="M370 1082v-612c0 -104 20 -179.5 60 -226.5s93.667 -70.5 161 -70.5c81.333 0 141.333 38.333 180 115s58 169.334 58 278.001c-2 83.333 -12.833 167.666 -32.5 252.999s-46.5 173 -80.5 263h241c34 -70.667 61.667 -149 83 -235s32 -179.667 32 -281
c0 -174.667 -37.5 -316.167 -112.5 -424.5s-194.5 -162.5 -358.5 -162.5c-150 0 -266.333 40.5 -349 121.5s-124 204.833 -124 371.5v610h242zM962 1258h-242v204h242v-204zM478 1258h-241v204h241v-204z" />
    <glyph glyph-name="omicrontonos" unicode="&#x3cc;" 
d="M83 551c0 161.333 44.1689 293.5 132.502 396.5s209.166 154.5 362.499 154.5c155.333 0 277.166 -51.5 365.499 -154.5s132.5 -235.167 132.5 -396.5v-21c0 -162.667 -44.167 -295.167 -132.5 -397.5s-209.5 -153.5 -363.5 -153.5
c-154.667 0 -276.167 51.333 -364.5 154s-132.5 235 -132.5 397v21zM326.002 530c0 -106 20.668 -191.999 62.001 -257.999s105.333 -99 192 -99c84.667 0 148.167 33.167 190.5 99.5s63.5 152.166 63.5 257.499v21c0 103.333 -21.167 188.5 -63.5 255.5
s-106.5 100.5 -192.5 100.5c-84.667 0 -147.834 -33.5 -189.501 -100.5s-62.5 -152.167 -62.5 -255.5v-21zM547.003 1529h242l-175 -279h-111z" />
    <glyph glyph-name="upsilontonos" unicode="&#x3cd;" 
d="M370 1082v-612c0 -104 20 -179.5 60 -226.5s93.667 -70.5 161 -70.5c81.333 0 141.333 38.333 180 115s58 169.334 58 278.001c-2 83.333 -12.833 167.666 -32.5 252.999s-46.5 173 -80.5 263h241c34 -70.667 61.667 -149 83 -235s32 -179.667 32 -281
c0 -174.667 -37.5 -316.167 -112.5 -424.5s-194.5 -162.5 -358.5 -162.5c-150 0 -266.333 40.5 -349 121.5s-124 204.833 -124 371.5v610h242zM567 1508h242l-175 -279h-111z" />
    <glyph glyph-name="omegatonos" unicode="&#x3ce;" horiz-adv-x="1750" 
d="M490 1082c-46 -88.667 -82.333 -175.834 -109 -261.501s-41.334 -170.5 -44.001 -254.5c0 -115.333 16.167 -209.666 48.5 -282.999s84.166 -110 155.499 -110c63.333 0 113.833 24.5 151.5 73.5s56.5 126.833 56.5 233.5v325h251v-325
c0 -106.667 18.667 -184.5 56 -233.5s87.666 -73.5 150.999 -73.5c71.333 0 123.333 36.5 156 109.5s49 167.5 49 283.5c-3.33301 84 -18.333 169 -45 255s-63 173 -109 261h242c46 -69.333 83.167 -147.166 111.5 -233.499s42.5 -180.5 42.5 -282.5
c0 -175.333 -34.667 -317 -104 -425s-180 -162 -332 -162c-81.333 0 -151.166 19.5 -209.499 58.5s-103.166 95.833 -134.499 170.5c-31.333 -74.667 -76.166 -131.5 -134.499 -170.5s-127.833 -58.5 -208.5 -58.5c-152.667 0 -263.5 54 -332.5 162
s-103.5 249.667 -103.5 425c0 102 14 196.167 42 282.5s65.333 164.166 112 233.499h241zM842 1508h242l-175 -279h-111z" />
    <glyph glyph-name="uni03D1" unicode="&#x3d1;" horiz-adv-x="1326" 
d="M532 999l0.000976562 84.001c0 119.333 33.667 214.833 101 286.5s154.666 107.5 261.999 107.5c109.333 0 195.666 -35 258.999 -105s95 -166.333 95 -289v-508c0 -179.333 -52.167 -323.5 -156.5 -432.5s-241.5 -163.5 -411.5 -163.5
c-167.333 0 -303.166 56.5 -407.499 169.5s-156.5 255.167 -156.5 426.5v677l250 2v-679c0 -116 28.167 -210.5 84.5 -283.5s132.833 -109.5 229.5 -109.5c97.333 0 174.166 33.667 230.499 101s85.833 160.666 88.5 279.999c-137.333 8 -249.666 52.333 -336.999 133
s-131 181.667 -131 303v0zM1000 1098c0 56 -9.5 97.999 -28.5 125.999s-47.167 42 -84.5 42c-36.667 0 -65.667 -14.167 -87 -42.5s-32 -70.166 -32 -125.499v-101c0 -66 20.167 -121.167 60.5 -165.5s95.5 -68.5 165.5 -72.5l6 2v337z" />
    <glyph glyph-name="uni03D2" unicode="&#x3d2;" horiz-adv-x="1141" 
d="M754 1220c37.333 92.667 78.6689 158.167 124.002 196.5s102.666 57.5 171.999 57.5c21.333 0 40.5 -1.5 57.5 -4.5s33.5 -8.5 49.5 -16.5l-24 -192c-2.66699 1.33301 -8.5 2.5 -17.5 3.5s-17.833 1.5 -26.5 1.5c-22.667 0 -43.334 -7.16699 -62.001 -21.5
s-33.667 -34.5 -45 -60.5l-293 -659v-525h-242v530l-292 654c-12 26 -27.167 46.167 -45.5 60.5s-38.5 21.5 -60.5 21.5c-10 0 -19.333 -0.5 -28 -1.5s-14 -2.16699 -16 -3.5l-23 192c14.667 8 30.5 13.5 47.5 16.5s36.5 4.5 58.5 4.5c69.333 0 126.5 -18.667 171.5 -56
s86.167 -102.333 123.5 -195l165 -393l18 -78h6l18 78z" />
    <glyph glyph-name="uni03D6" unicode="&#x3d6;" horiz-adv-x="1649" 
d="M1620 910h-132c18 -52.667 32.333 -107.5 43 -164.5s16 -116.833 16 -179.5c0 -174.667 -31 -316.167 -93 -424.5s-161 -162.5 -297 -162.5c-78 0 -145 19.167 -201 57.5s-99 94.833 -129 169.5c-30.667 -74.667 -74 -131.167 -130 -169.5s-122.667 -57.5 -200 -57.5
c-136 0 -234.833 54.167 -296.5 162.5s-92.5 249.833 -92.5 424.5c0 62.667 5.16699 122.5 15.5 179.5s24.833 111.833 43.5 164.5h-116v172h1569v-172zM1305 566c-2 56.667 -9 113.669 -21 171.002s-28 115 -48 173h-818
c-20.667 -58.667 -36.834 -116.834 -48.501 -174.501s-18.167 -114.167 -19.5 -169.5c0 -114.667 12.5 -208.834 37.5 -282.501s65.167 -110.5 120.5 -110.5c58.667 0 105.834 24.5 141.501 73.5s53.5 126.833 53.5 233.5v226h250v-226c0 -106.667 17.5 -184.5 52.5 -233.5
s82.167 -73.5 141.5 -73.5c54.667 0 94.667 36.5 120 109.5s38 167.5 38 283.5z" />
    <glyph glyph-name="uni0400" unicode="&#x400;" horiz-adv-x="1134" 
d="M966 655h-570v-461h672v-194h-915v1456h908v-195h-665v-411h570v-195zM720 1600h-202l-260 260l2 6h276z" />
    <glyph glyph-name="uni0401" unicode="&#x401;" horiz-adv-x="1134" 
d="M966 655h-570v-461h672v-194h-915v1456h908v-195h-665v-411h570v-195zM973 1601h-242v204h242v-204zM489 1601h-241v204h241v-204z" />
    <glyph glyph-name="uni0402" unicode="&#x402;" horiz-adv-x="1535" 
d="M1190 1261h-450v-360h178c166.667 0 301.167 -42.5 403.5 -127.5s153.5 -203.5 153.5 -355.5c0 -90.667 -32.333 -182.167 -97 -274.5s-159 -153.833 -283 -184.5l-85 172c76 25.333 132 62 168 110s54 107 54 177c-0.666992 89.333 -29.167 158.5 -85.5 207.5
s-132.5 73.5 -228.5 73.5h-178v-699h-243v1261h-443v195h1136v-195z" />
    <glyph glyph-name="uni0403" unicode="&#x403;" horiz-adv-x="1130" 
d="M1068 1261h-677v-1261h-243v1456h920v-195zM685 1865h275l2 -6l-273 -260h-195z" />
    <glyph glyph-name="uni0404" unicode="&#x404;" horiz-adv-x="1342" 
d="M1234 477l2.00195 -6.00098c2.66699 -146.667 -45 -265.167 -143 -355.5s-230.333 -135.5 -397 -135.5c-169.333 0 -306.666 57.167 -411.999 171.5s-158 260.5 -158 438.5v277c0 177.333 52 323.5 156 438.5s239.667 172.5 407 172.5
c171.333 0 306.166 -43.667 404.499 -131s146.166 -207 143.499 -359l-2 -6h-235c0 97.333 -26.333 171.833 -79 223.5s-130 77.5 -232 77.5c-98.667 0 -176.834 -39.167 -234.501 -117.5s-86.5 -177.166 -86.5 -296.499v-38h501v-195h-501v-46
c0 -120.667 29.333 -220.167 88 -298.5s138.667 -117.5 240 -117.5c99.333 0 174.833 26 226.5 78s77.5 127 77.5 225h234z" />
    <glyph glyph-name="uni0405" unicode="&#x405;" horiz-adv-x="1259" 
d="M920 374c0 60.667 -21.5 110.335 -64.5 149.002s-119.167 73.334 -228.5 104.001c-156.667 43.333 -277.5 100.166 -362.5 170.499s-127.5 162.166 -127.5 275.499c0 117.333 46.667 214 140 290s213.333 114 360 114c157.333 0 283.166 -42.167 377.499 -126.5
s139.833 -188.5 136.5 -312.5l-2 -6h-234c0 76.667 -25.5 137.667 -76.5 183s-118.833 68 -203.5 68c-82 0 -145.167 -19.333 -189.5 -58s-66.5 -88.667 -66.5 -150c0 -56 24.333 -102.167 73 -138.5s129.334 -70.833 242.001 -103.5
c152.667 -42.667 269 -100.834 349 -174.501s120 -167.834 120 -282.501c0 -120.667 -47.333 -217 -142 -289s-219 -108 -373 -108c-148 0 -277 39.333 -387 118s-163.333 189.667 -160 333l2 6h234c0 -87.333 30.167 -153.166 90.5 -197.499s133.833 -66.5 220.5 -66.5
c86 0 152.833 18.167 200.5 54.5s71.5 85.5 71.5 147.5z" />
    <glyph glyph-name="uni0406" unicode="&#x406;" horiz-adv-x="589" 
d="M416 0h-243v1456h243v-1456z" />
    <glyph glyph-name="uni0407" unicode="&#x407;" horiz-adv-x="589" 
d="M416 0h-243v1456h243v-1456zM658 1601h-242v204h242v-204zM174 1601h-241v204h241v-204z" />
    <glyph glyph-name="uni0408" unicode="&#x408;" horiz-adv-x="1130" 
d="M737 1456l242 0.000976562v-1019c0 -140 -42.5 -251.333 -127.5 -334s-195.167 -124 -330.5 -124c-143.333 0 -257 36.667 -341 110s-124.333 180.333 -121 321l2 6h235c0 -82.667 19.833 -143.834 59.5 -183.501s94.834 -59.5 165.501 -59.5
c63.333 0 115.166 24 155.499 72s60.5 112 60.5 192v1019z" />
    <glyph glyph-name="uni0409" unicode="&#x409;" horiz-adv-x="2186" 
d="M1290 1456v-532.999h308c160 0 286.167 -42.833 378.5 -128.5s138.5 -196.834 138.5 -333.501s-46.167 -247.667 -138.5 -333s-218.5 -128 -378.5 -128h-551v1261h-448v-480c0 -274 -40.333 -472.667 -121 -596s-208.667 -185 -384 -185h-48v194h40
c99.333 0 169.333 44.333 210 133s61 240 61 454v675h933zM1290 728.001v-534h308c90 0 158.333 26 205 78s70 115.667 70 191c0 73.333 -23.333 135.833 -70 187.5s-115 77.5 -205 77.5h-308z" />
    <glyph glyph-name="uni040A" unicode="&#x40a;" horiz-adv-x="2185" 
d="M394 836l653 -0.000976562v620h242v-567h309c160.667 0 287 -40.667 379 -122s138 -187.666 138 -318.999c0 -132.667 -46.167 -240.5 -138.5 -323.5s-218.5 -124.5 -378.5 -124.5h-551v641h-653v-641h-243v1456h243v-620zM1289 693.999v-492h309
c90 0 158.167 23.5 204.5 70.5s69.5 106.167 69.5 177.5c0 69.333 -23.167 127.333 -69.5 174s-114.5 70 -204.5 70h-309z" />
    <glyph glyph-name="uni040B" unicode="&#x40b;" horiz-adv-x="1654" 
d="M1206 1261h-450v-290h248c166.667 0 294.334 -38 383.001 -114s133 -194.333 133 -355v-502h-243v502c0 102 -21.333 173.167 -64 213.5s-112.334 60.5 -209.001 60.5h-248v-776h-243v1261h-443v195h1136v-195z" />
    <glyph glyph-name="uni040C" unicode="&#x40c;" horiz-adv-x="1304" 
d="M515 630h-119v-630h-243v1456h243v-617h95l473 617h285l3 -5l-546 -684l591 -767h-307zM679 1777h275l2 -6l-273 -260h-195z" />
    <glyph glyph-name="uni040D" unicode="&#x40d;" horiz-adv-x="1435" 
d="M1044 1456h243v-1456h-243v1044l-6 2l-646 -1046h-242v1456h242v-1043l6 -2zM830 1600h-202l-260 260l2 6h276z" />
    <glyph glyph-name="uni040E" unicode="&#x40e;" horiz-adv-x="1303" 
d="M600 798l51 -148h6l327 806h268l-529 -1198c-39.333 -88.667 -87.166 -157.334 -143.499 -206.001s-136.833 -73 -241.5 -73c-42 0 -80.333 3.5 -115 10.5s-67 16.5 -97 28.5l28 181c26.667 -7.33301 53.667 -13.5 81 -18.5s52.666 -7.5 75.999 -7.5
c54.667 0 97.667 12.833 129 38.5s56 60.834 74 105.501l30 68l-497 1071h266zM964 1884l3 -6c2.66699 -82 -25 -148.667 -83 -200s-136 -77 -234 -77c-98.667 0 -177 25.667 -235 77s-85.333 118 -82 200l3 6h180c0 -38.667 10.833 -70.334 32.5 -95.001
s55.5 -37 101.5 -37c44.667 0 78 12.333 100 37s33 56.334 33 95.001h181z" />
    <glyph glyph-name="uni040F" unicode="&#x40f;" horiz-adv-x="1435" 
d="M145 1456h243v-1262h652v1262h243v-1456h-438v-360h-243v360h-457v1456z" />
    <glyph glyph-name="uni0410" unicode="&#x410;" horiz-adv-x="1300" 
d="M911 340h-516l-112 -340h-251l508 1456h231l502 -1456h-251zM462 543h383l-187 574h-6z" />
    <glyph glyph-name="uni0411" unicode="&#x411;" horiz-adv-x="1288" 
d="M1068 1261h-677v-345h308c161.333 0 288 -41.833 380 -125.5s138 -193.5 138 -329.5c0 -136.667 -46.167 -247.667 -138.5 -333s-218.833 -128 -379.5 -128h-551v1456h920v-195zM391 721v-527.001h308c90 0 158.333 26 205 78s70 115.667 70 191
c0 72.667 -23.333 133.834 -70 183.501s-115 74.5 -205 74.5h-308z" />
    </font>
</defs>
</svg>
